<svg fill="none" height="40" viewBox="0 0 40 40" width="40" xmlns="http://www.w3.org/2000/svg"><g fill="#fff"><circle cx="20" cy="20" fill-opacity=".2" r="20"/><g clip-rule="evenodd" fill-rule="evenodd"><path d="m7.10742 33.3613c.0166-.0371.0332-.0722.04981-.1074.93164-1.8906 3.35057-7.5391 12.77537-7.5391 9.4258 0 11.8858 5.6485 12.7754 7.5391.0303.0645.0596.1309.0869.1992-3.332 3.1719-7.8379 5.1192-12.7949 5.1192-5.0049 0-9.5508-1.9864-12.89258-5.211zm12.82618-24.07614c-3.7471 0-6.7852 3.03714-6.7852 6.78514 0 3.7481 3.0381 6.7871 6.7852 6.7871 3.748 0 6.7861-3.039 6.7861-6.7871 0-3.748-3.0381-6.78514-6.7861-6.78514z"/><path d="m7.10742 33.3613c.0166-.0371.0332-.0722.04981-.1074.93164-1.8906 3.35057-7.5391 12.77537-7.5391 9.4258 0 11.8858 5.6485 12.7754 7.5391.0303.0645.0596.1309.0869.1992-3.332 3.1719-7.8379 5.1192-12.7949 5.1192-5.0049 0-9.5508-1.9864-12.89258-5.211zm12.82618-24.07614c-3.7471 0-6.7852 3.03714-6.7852 6.78514 0 3.7481 3.0381 6.7871 6.7852 6.7871 3.748 0 6.7861-3.039 6.7861-6.7871 0-3.748-3.0381-6.78514-6.7861-6.78514z"/></g></g></svg>