<?xml version="1.0" encoding="UTF-8"?>
<svg width="24px" height="24px" viewBox="0 0 24 24" version="1.1" xmlns="http://www.w3.org/2000/svg" xmlns:xlink="http://www.w3.org/1999/xlink">
    <title>proportion_original_fill_active_dark</title>
    <g id="proportion_original_fill_active_dark" stroke="none" stroke-width="1" fill="none" fill-rule="evenodd">
        <path d="M6,3 L18,3 C19.6569,3 21,4.34315 21,6 L21,18 C21,19.6569 19.6569,21 18,21 L6,21 C4.34315,21 3,19.6569 3,18 L3,6 C3,4.34315 4.34315,3 6,3 Z" id="矩形-542528" fill-opacity="0.200000003" fill="#FFFFFF"></path>
        <path d="M18,3 L6,3 C5.87061,3 5.74304,3.00819 5.61792,3.02411 C5.57935,3.02901 5.54114,3.03462 5.50305,3.04097 C5.32983,3.06984 5.16174,3.11353 5,3.1707 C4.2749,3.427 3.67773,3.95418 3.33008,4.63065 C3.20764,4.86882 3.11621,5.1255 3.06091,5.3954 C3.02344,5.57848 3.00269,5.76764 3.00024,5.96123 C3,5.97414 3,5.98706 3,6 L3,18 C3,19.6569 4.34314,21 6,21 L18,21 C19.6569,21 21,19.6569 21,18 L21,6 C21,4.34314 19.6569,3 18,3 Z M6,4.5 C5.96899,4.5 5.93823,4.5009 5.90771,4.5027 C5.81604,4.5081 5.72644,4.52162 5.63879,4.54324 C5.56323,4.56189 5.48914,4.58656 5.41663,4.61726 C5.33801,4.6505 5.26331,4.68979 5.1925,4.73514 L5.1925,4.73515 L5.1925,4.73517 C5.10168,4.79327 5.01733,4.86134 4.93933,4.93935 C4.86133,5.01733 4.79333,5.10172 4.73523,5.19244 C4.68982,5.26328 4.65051,5.338 4.61731,5.4166 C4.58655,5.48918 4.56189,5.56326 4.54321,5.63882 C4.5321,5.68387 4.52319,5.72943 4.51636,5.77553 C4.51001,5.81857 4.50549,5.86208 4.50281,5.90604 C4.50098,5.93713 4.5,5.96844 4.5,6 L4.5,9 L13,9 C14.1046,9 15,9.89543 15,11 L15,19.5 L18,19.5 C18.1085,19.5 18.2142,19.489 18.3173,19.4669 C18.3219,19.4659 18.3264,19.4649 18.3311,19.4639 C18.3412,19.4616 18.3512,19.4592 18.3613,19.4567 C18.3627,19.4564 18.364,19.4561 18.3654,19.4557 C18.3682,19.455 18.3708,19.4543 18.3737,19.4536 C18.4355,19.4378 18.4963,19.4179 18.5562,19.394 C18.5652,19.3903 18.5743,19.3866 18.5834,19.3827 C18.5897,19.3801 18.5959,19.3774 18.6022,19.3746 C18.6332,19.361 18.6636,19.3465 18.6934,19.331 C18.7158,19.3193 18.7379,19.307 18.7596,19.2943 C18.7667,19.2901 18.7738,19.2858 18.7808,19.2816 C18.7898,19.2761 18.7987,19.2705 18.8075,19.2648 C18.8092,19.2638 18.8108,19.2627 18.8125,19.2616 C18.9014,19.2042 18.9841,19.1372 19.0607,19.0607 C19.0974,19.0239 19.132,18.9858 19.1642,18.9463 C19.1663,18.9438 19.1682,18.9413 19.1702,18.9389 C19.2042,18.8967 19.2357,18.8529 19.2648,18.8076 C19.2659,18.8058 19.267,18.8041 19.2681,18.8023 C19.29,18.7677 19.3107,18.7321 19.3298,18.6956 C19.3407,18.6747 19.3512,18.6535 19.3612,18.632 C19.3687,18.616 19.3757,18.5998 19.3827,18.5834 C19.3884,18.57 19.3939,18.5565 19.3992,18.543 C19.4175,18.496 19.4332,18.4484 19.4465,18.4001 C19.4496,18.3892 19.4525,18.3782 19.4552,18.3672 C19.4557,18.3652 19.4562,18.3633 19.4567,18.3613 L19.4567,18.3613 C19.4595,18.35 19.4622,18.3386 19.4647,18.3273 C19.4735,18.2875 19.4807,18.2473 19.4862,18.2067 C19.4885,18.1898 19.4905,18.1728 19.4922,18.1557 C19.4974,18.1044 19.5,18.0525 19.5,18 L19.5,6 C19.5,5.97969 19.4996,5.95949 19.4988,5.93938 C19.4972,5.89807 19.494,5.85719 19.4891,5.8167 C19.486,5.79036 19.4822,5.76419 19.4777,5.73819 C19.4755,5.72586 19.4731,5.71358 19.4707,5.70132 C19.4666,5.68034 19.4619,5.65948 19.4568,5.63873 C19.4542,5.62857 19.4517,5.61844 19.4489,5.60834 C19.4425,5.58469 19.4355,5.56119 19.428,5.53784 L19.4271,5.53523 C19.4183,5.50818 19.4087,5.48134 19.3982,5.45468 C19.3932,5.44193 19.3881,5.42923 19.3827,5.4166 C19.3739,5.39572 19.3646,5.37512 19.355,5.3548 C19.3424,5.32849 19.3292,5.30264 19.3152,5.27727 C19.3096,5.26688 19.3037,5.25656 19.2977,5.24634 C19.2871,5.22815 19.2762,5.21019 19.2649,5.19249 C19.2606,5.1859 19.2563,5.17932 19.252,5.17278 C19.2217,5.127 19.1887,5.08289 19.1532,5.04042 C19.1504,5.03702 19.1475,5.03357 19.1445,5.03011 C19.1179,4.99895 19.09,4.96869 19.0607,4.93935 C19.0314,4.9101 19.0012,4.88225 18.9702,4.85579 C18.9379,4.82823 18.9045,4.8022 18.8704,4.77768 C18.8607,4.77083 18.8511,4.76408 18.8413,4.75748 C18.8302,4.74989 18.819,4.74246 18.8076,4.73518 L18.8075,4.73517 C18.7367,4.6898 18.662,4.6505 18.5834,4.61726 C18.5751,4.61377 18.5668,4.61034 18.5585,4.60699 C18.5435,4.60095 18.5284,4.59518 18.5133,4.58966 C18.4679,4.57307 18.4219,4.55879 18.3754,4.54681 C18.3706,4.54559 18.366,4.5444 18.3612,4.54324 C18.3466,4.53964 18.3319,4.53625 18.3173,4.53311 C18.2142,4.51105 18.1084,4.5 18,4.5 L6,4.5 Z M13.5,19.5 L13.5,11 C13.5,10.931 13.4878,10.8671 13.4635,10.8083 L13.4634,10.8081 C13.439,10.7491 13.4023,10.6953 13.3535,10.6465 C13.3047,10.5976 13.2509,10.561 13.1919,10.5366 C13.1331,10.5122 13.0691,10.5 13,10.5 L4.5,10.5 L4.5,18 C4.5,18.0465 4.50208,18.0925 4.5061,18.138 C4.51282,18.2138 4.52527,18.2882 4.54321,18.3612 L4.54321,18.3613 C4.54321,18.3613 4.58362,18.5005 4.61401,18.5755 C4.61511,18.5781 4.61621,18.5808 4.61731,18.5834 C4.65051,18.662 4.68982,18.7367 4.73523,18.8076 C4.76843,18.8594 4.80481,18.9091 4.84448,18.9567 C4.8656,18.9821 4.88757,19.0069 4.91052,19.0311 C4.92004,19.0411 4.92957,19.0509 4.93933,19.0607 C4.95886,19.0802 4.97876,19.099 4.99902,19.1173 C5.02246,19.1384 5.04651,19.1586 5.07092,19.1781 C5.10486,19.2049 5.13965,19.2302 5.17554,19.2538 C5.18115,19.2575 5.18677,19.2612 5.1925,19.2648 C5.19385,19.2657 5.19531,19.2666 5.19666,19.2675 C5.25732,19.3061 5.32092,19.3403 5.38733,19.37 C5.39697,19.3743 5.40674,19.3786 5.41663,19.3827 C5.41919,19.3838 5.42175,19.3849 5.42432,19.386 C5.49438,19.4152 5.56592,19.4388 5.63879,19.4567 L5.63879,19.4567 C5.74829,19.4838 5.86096,19.4981 5.97681,19.4998 C5.98376,19.4999 5.99084,19.5 5.9978,19.5 L6,19.5 L13.5,19.5 Z" id="矢量-846" fill-opacity="0.898039222" fill="#FFFFFF"></path>
    </g>
</svg>