<?xml version="1.0" encoding="UTF-8"?>
<svg width="24px" height="24px" viewBox="0 0 24 24" version="1.1" xmlns="http://www.w3.org/2000/svg" xmlns:xlink="http://www.w3.org/1999/xlink">
    <title>proportion_9:16_fill_active_dark</title>
    <g id="proportion_9:16_fill_active_dark" stroke="none" stroke-width="1" fill="none" fill-rule="evenodd">
        <rect id="矩形-542334" fill-opacity="0.200000003" fill="#FFFFFF" fill-rule="nonzero" x="6.375" y="2" width="11.25" height="20" rx="3"></rect>
        <path d="M14.625,2 L9.375,2 C7.71814575,2 6.375,3.34314575 6.375,5 L6.375,19 C6.375,20.6568542 7.71814575,22 9.375,22 L14.625,22 C16.2818542,22 17.625,20.6568542 17.625,19 L17.625,5 C17.625,3.34314575 16.2818542,2 14.625,2 Z M9.375,3.5 L14.625,3.5 C15.4534271,3.5 16.125,4.17157288 16.125,5 L16.125,19 C16.125,19.8284271 15.4534271,20.5 14.625,20.5 L9.375,20.5 C8.54657288,20.5 7.875,19.8284271 7.875,19 L7.875,5 C7.875,4.17157288 8.54657288,3.5 9.375,3.5 Z" id="矩形-542334" fill-opacity="0.898039222" fill="#FFFFFF" fill-rule="nonzero"></path>
    </g>
</svg>