<?xml version="1.0" encoding="UTF-8"?>
<svg width="24px" height="24px" viewBox="0 0 24 24" version="1.1" xmlns="http://www.w3.org/2000/svg" xmlns:xlink="http://www.w3.org/1999/xlink">
    <title>proportion_1:1_fill_active_dark</title>
    <g id="proportion_1:1_fill_active_dark" stroke="none" stroke-width="1" fill="none" fill-rule="evenodd">
        <rect id="矩形-542333" fill-opacity="0.200000003" fill="#FFFFFF" fill-rule="nonzero" x="3" y="3" width="18" height="18" rx="3"></rect>
        <path d="M18,3 L6,3 C4.34314575,3 3,4.34314575 3,6 L3,18 C3,19.6568542 4.34314575,21 6,21 L18,21 C19.6568542,21 21,19.6568542 21,18 L21,6 C21,4.34314575 19.6568542,3 18,3 Z M6,4.5 L18,4.5 C18.8284271,4.5 19.5,5.17157288 19.5,6 L19.5,18 C19.5,18.8284271 18.8284271,19.5 18,19.5 L6,19.5 C5.17157288,19.5 4.5,18.8284271 4.5,18 L4.5,6 C4.5,5.17157288 5.17157288,4.5 6,4.5 Z" id="矩形-542333" fill-opacity="0.898039222" fill="#FFFFFF" fill-rule="nonzero"></path>
    </g>
</svg>