<svg viewBox="0 0 24 24" xmlns="http://www.w3.org/2000/svg" xmlns:xlink="http://www.w3.org/1999/xlink" width="24.000000" height="24.000000" fill="none" customFrame="#000000">
	<defs>
		<clipPath id="clipPath_1">
			<rect width="24.000000" height="24.000000" x="0.000000" y="0.000000" fill="rgb(255,255,255)" />
		</clipPath>
	</defs>
	<rect id="icon/9:21" width="24.000000" height="24.000000" x="0.000000" y="0.000000" fill="rgb(255,255,255)" fill-opacity="0" />
	<g id="Add_pic_56/layout" customFrame="url(#clipPath_1)">
		<rect id="Add_pic_56/layout" width="24.000000" height="24.000000" x="0.000000" y="0.000000" />
		<rect id="矩形 542322" width="24.000000" height="24.000000" x="0.000000" y="0.000000" opacity="0.199999988" />
		<rect id="矩形 542328" width="20.000000" height="20.000000" x="2.000000" y="2.000000" opacity="0.199999988" />
		<rect id="矩形 542329" width="22.000000" height="22.000000" x="1.000000" y="1.000000" opacity="0.199999988" />
	</g>
	<path id="矩形 542338" d="M10.28 1L13.7086 1C15.3655 1 16.7086 2.34315 16.7086 4L16.7086 20C16.7086 21.6569 15.3655 23 13.7086 23L10.28 23C8.62317 23 7.28003 21.6569 7.28003 20L7.28003 4C7.28003 2.34315 8.62317 1 10.28 1Z" fill="rgb(255,255,255)" fill-opacity="0.200000003" fill-rule="evenodd" />
	<path id="矩形 542338(边框)" d="M13.7086 1C15.3655 1 16.7086 2.34315 16.7086 4L16.7086 20C16.7086 21.6569 15.3655 23 13.7086 23L10.28 23C8.62317 23 7.28003 21.6569 7.28003 20L7.28003 4C7.28003 2.34315 8.62317 1 10.28 1L13.7086 1ZM13.7086 2.5L10.28 2.5C10.1561 2.5 10.0357 2.51441 9.91884 2.54324C9.84328 2.56189 9.76921 2.58656 9.69662 2.61726C9.61803 2.6505 9.54332 2.6898 9.4725 2.73516L9.47249 2.73517C9.38174 2.79328 9.29737 2.86134 9.21937 2.93934C9.14137 3.01734 9.07331 3.10171 9.0152 3.19245C8.96984 3.26328 8.93053 3.338 8.89729 3.41659C8.86659 3.48918 8.84191 3.56326 8.82327 3.63882C8.79444 3.75566 8.78003 3.87605 8.78003 4L8.78003 20C8.78003 20.124 8.79445 20.2444 8.82329 20.3612C8.84193 20.4368 8.8666 20.5108 8.89729 20.5834C8.93054 20.662 8.96984 20.7367 9.01521 20.8076C9.07332 20.8983 9.14137 20.9827 9.21937 21.0607C9.29738 21.1387 9.38176 21.2067 9.47252 21.2649C9.54335 21.3102 9.61805 21.3495 9.69662 21.3827C9.76918 21.4134 9.84323 21.4381 9.91877 21.4567C10.0356 21.4856 10.156 21.5 10.28 21.5L13.7086 21.5C13.8326 21.5 13.953 21.4856 14.0699 21.4567C14.1454 21.4381 14.2195 21.4134 14.292 21.3827C14.3706 21.3495 14.4453 21.3102 14.5161 21.2648C14.6069 21.2067 14.6913 21.1387 14.7693 21.0607C14.8472 20.9827 14.9153 20.8983 14.9734 20.8076C15.0188 20.7368 15.0581 20.662 15.0913 20.5834C15.122 20.5108 15.1467 20.4367 15.1654 20.3612L15.1654 20.3611C15.1942 20.2443 15.2086 20.1239 15.2086 20L15.2086 4C15.2086 3.87605 15.1942 3.75565 15.1654 3.63881C15.1467 3.56325 15.122 3.48918 15.0913 3.41659C15.0581 3.33799 15.0188 3.26326 14.9734 3.19242C14.9153 3.10169 14.8473 3.01733 14.7693 2.93934C14.6913 2.86135 14.6069 2.79331 14.5162 2.73521L14.5162 2.73519C14.4453 2.68982 14.3706 2.65051 14.292 2.61726C14.2194 2.58656 14.1453 2.56188 14.0698 2.54324C13.9529 2.51441 13.8326 2.5 13.7086 2.5Z" fill="rgb(255,255,255)" fill-rule="evenodd" />
</svg>
