<svg viewBox="0 0 24 24" xmlns="http://www.w3.org/2000/svg" xmlns:xlink="http://www.w3.org/1999/xlink" width="24.000000" height="24.000000" fill="none">
	<g id="组合 29475">
		<path id="合并" d="M22.0001 5C22.0001 3.34326 20.6569 2 19.0001 2L5.00012 2C3.34338 2 2.00012 3.34326 2.00012 5L2.00012 19C2.00012 20.6567 3.34338 22 5.00012 22L19.0001 22C20.6569 22 22.0001 20.6567 22.0001 19L22.0001 5ZM5.00012 3.5L19.0001 3.5C19.1241 3.5 19.2445 3.51465 19.3612 3.54346L19.3615 3.54346C19.4369 3.56201 19.5109 3.58643 19.5836 3.61719C19.6622 3.65039 19.7369 3.68994 19.8077 3.73535C19.8986 3.79346 19.9828 3.86133 20.0607 3.93945C20.1388 4.01758 20.2069 4.10156 20.265 4.19238L20.2658 4.19359Q20.3334 4.29925 20.3829 4.4165C20.4135 4.48926 20.4381 4.56299 20.4569 4.63867C20.4857 4.75537 20.5001 4.87598 20.5001 5L20.5001 19C20.5001 19.124 20.4857 19.2446 20.4569 19.3613C20.4381 19.437 20.4135 19.5107 20.3829 19.5835Q20.3334 19.7007 20.2658 19.8064L20.265 19.8076C20.2069 19.8984 20.1388 19.9829 20.0607 20.0605C19.9828 20.1387 19.8986 20.2065 19.8077 20.2646C19.7369 20.3101 19.6622 20.3496 19.5836 20.3828C19.5109 20.4136 19.4369 20.438 19.3615 20.4565C19.2445 20.4854 19.1241 20.5 19.0001 20.5L5.00012 20.5C4.8761 20.5 4.75574 20.4854 4.63879 20.4565C4.56335 20.438 4.48938 20.4136 4.41663 20.3828C4.33826 20.3496 4.26355 20.3101 4.1925 20.2646C4.10193 20.2065 4.01746 20.1387 3.93958 20.0605C3.86145 19.9824 3.79333 19.8984 3.73523 19.8076L3.73446 19.8064Q3.66683 19.7007 3.61731 19.5835C3.58679 19.5107 3.56213 19.437 3.54333 19.3613C3.51453 19.2441 3.50012 19.124 3.50012 19L3.50012 5C3.50012 4.87598 3.51453 4.75586 3.54333 4.63867C3.56189 4.56348 3.58679 4.48926 3.61731 4.4165Q3.66683 4.29925 3.73446 4.19359L3.73523 4.19238C3.79333 4.10156 3.86145 4.01758 3.93958 3.93945C4.01746 3.86133 4.10193 3.79346 4.1925 3.73535C4.26331 3.68994 4.33801 3.65039 4.41663 3.61719C4.48938 3.58643 4.56335 3.56201 4.63904 3.54346C4.75574 3.51465 4.8761 3.5 5.00012 3.5ZM12.4251 7.99657C12.4459 8.03111 12.462 8.07026 12.4735 8.11401L15.3578 15.0432Q15.3992 15.1434 15.3992 15.2435Q15.3992 15.3437 15.3578 15.4439C15.3025 15.5752 15.2035 15.6684 15.0607 15.7237C14.9502 15.779 14.8258 15.779 14.6877 15.7237C14.5495 15.6684 14.4528 15.5752 14.3975 15.4439L13.5512 13.4024L10.4355 13.4024L9.57194 15.4439C9.52818 15.5752 9.43722 15.6684 9.29905 15.7237C9.16088 15.779 9.03077 15.779 8.90872 15.7237C8.76595 15.6684 8.66923 15.5752 8.61857 15.4439C8.57021 15.3103 8.57366 15.1768 8.62893 15.0432L11.4959 8.11401L11.5305 8.03111C11.5742 7.94361 11.6341 7.87682 11.7101 7.83077Q11.8275 7.76514 11.9934 7.76514C12.1914 7.76514 12.3353 7.84228 12.4251 7.99657ZM13.1056 12.3593L11.9761 9.64078L10.85 12.3593L13.1056 12.3593Z" fill="rgb(255,255,255)" fill-rule="evenodd" />
	</g>
</svg>
