<?xml version="1.0" encoding="UTF-8"?>
<svg width="24px" height="24px" viewBox="0 0 24 24" version="1.1" xmlns="http://www.w3.org/2000/svg" xmlns:xlink="http://www.w3.org/1999/xlink">
    <title>add to text_light</title>
    <g id="add-to-text_light" stroke="none" stroke-width="1" fill="none" fill-rule="evenodd" fill-opacity="0.9">
        <path d="M6.49999,1.75 C6.40332,1.75 6.33832,1.79833 6.30499,1.895 C6.11499,2.80833 5.68332,3.6 5.00999,4.27 C4.33999,4.94333 3.54832,5.37667 2.63499,5.57 C2.60166,5.57 2.56999,5.585 2.53999,5.615 C2.50666,5.64833 2.48999,5.69667 2.48999,5.76 C2.48999,5.80667 2.50666,5.84667 2.53999,5.88 C2.56999,5.91333 2.60166,5.93667 2.63499,5.95 C3.56166,6.14333 4.35832,6.57167 5.02499,7.235 C5.68832,7.89833 6.11499,8.68667 6.30499,9.6 C6.30499,9.63333 6.32166,9.665 6.35499,9.695 C6.38832,9.72833 6.43666,9.745 6.49999,9.745 C6.56332,9.745 6.62666,9.69667 6.68999,9.6 C6.88332,8.67333 7.31166,7.88167 7.97499,7.225 C8.63832,6.56833 9.42666,6.14333 10.34,5.95 C10.45,5.92 10.505,5.85667 10.505,5.76 C10.505,5.69667 10.48999,5.64833 10.46,5.615 C10.4267,5.585 10.3867,5.57 10.34,5.57 C9.42666,5.37667 8.63832,4.94333 7.97499,4.27 C7.31166,3.6 6.88332,2.80833 6.68999,1.895 C6.67332,1.79833 6.60999,1.75 6.49999,1.75 Z M12.045,2.76 C11.835,2.76 11.655,2.83167 11.50499,2.975 C11.3517,3.11833 11.275,3.295 11.275,3.505 C11.275,3.71167 11.3517,3.89167 11.50499,4.045 C11.655,4.195 11.835,4.27 12.045,4.27 L17.13,4.27 C17.5933,4.27 18.025,4.395 18.425,4.645 C18.825,4.89167 19.1417,5.22333 19.375,5.64 C19.6083,6.05667 19.725,6.51333 19.725,7.01 L19.725,17.975 C19.725,18.4717 19.6083,18.9283 19.375,19.345 C19.1417,19.7617 18.825,20.0933 18.425,20.34 C18.025,20.5867 17.5933,20.71 17.13,20.71 L8.10499,20.71 C7.64166,20.71 7.20999,20.5867 6.80999,20.34 C6.40999,20.0933 6.09499,19.7617 5.86499,19.345 C5.63166,18.9283 5.51499,18.4717 5.51499,17.975 L5.51499,11.57 C5.51499,11.36 5.43832,11.1833 5.28499,11.04 C5.13499,10.8967 4.95499,10.825 4.74499,10.825 C4.53832,10.825 4.36332,10.8967 4.21999,11.04 C4.07666,11.1833 4.00499,11.36 4.00499,11.57 L4.00499,17.975 C4.00499,18.745 4.18832,19.4567 4.55499,20.11 C4.92166,20.7667 5.41832,21.2867 6.04499,21.67 C6.66832,22.0567 7.35499,22.25 8.10499,22.25 L17.13,22.25 C17.8833,22.25 18.5717,22.0567 19.195,21.67 C19.8183,21.2867 20.315,20.7667 20.685,20.11 C21.0517,19.4567 21.235,18.745 21.235,17.975 L21.235,7.01 C21.235,6.24 21.0517,5.53167 20.685,4.885 C20.315,4.235 19.8183,3.71833 19.195,3.335 C18.5717,2.95167 17.8833,2.76 17.13,2.76 L12.045,2.76 Z M8.39499,15.07 C8.18832,15.07 8.00832,15.1467 7.85499,15.3 C7.70166,15.4533 7.62499,15.6333 7.62499,15.84 C7.62499,16.0467 7.70166,16.2267 7.85499,16.38 C8.00832,16.5333 8.18832,16.61 8.39499,16.61 L16.845,16.61 C17.0683,16.61 17.2517,16.5333 17.395,16.38 C17.5383,16.2267 17.61,16.0467 17.61,15.84 C17.61,15.6333 17.535,15.4533 17.385,15.3 C17.2317,15.1467 17.0517,15.07 16.845,15.07 L8.39499,15.07 Z M11.105,11.11 C10.8983,11.11 10.7183,11.1867 10.565,11.34 C10.415,11.4933 10.34,11.6733 10.34,11.88 C10.34,12.0867 10.415,12.2667 10.565,12.42 C10.7183,12.5733 10.8983,12.65 11.105,12.65 L16.845,12.65 C17.0683,12.65 17.2517,12.5733 17.395,12.42 C17.5383,12.2667 17.61,12.0867 17.61,11.88 C17.61,11.6733 17.535,11.4933 17.385,11.34 C17.2317,11.1867 17.0517,11.11 16.845,11.11 L11.105,11.11 Z" id="矢量-866" fill="#000000" fill-rule="nonzero"></path>
    </g>
</svg>