<svg width="32.000000" height="32.000000" viewBox="0 0 32 32" fill="none" xmlns="http://www.w3.org/2000/svg" xmlns:xlink="http://www.w3.org/1999/xlink">
	<desc>
			Created with Pixso.
	</desc>
	<defs/>
	<g style="mix-blend-mode:normal">
		<rect id="矩形 5" width="32.000000" height="32.000000" fill="#C4C4C4" fill-opacity="0"/>
	</g>
	<g style="mix-blend-mode:normal">
		<path id="合并" d="M13.717 4.30688L14.5 4.00708L14.5 1L12.9575 1.5708L12.3142 1.81348L11.4858 2.15674L10.4084 2.59985L9.2771 3.05957L8.54468 3.35327L7.74121 3.6709L6.11401 4.30029L5.97144 4.35864C5.0603 4.7478 4.20166 5.36523 3.83374 5.99634C3.63184 6.34302 3.5481 6.67505 3.5166 7.177L3.50537 7.42847L3.50146 7.6123L3.5 7.81055L3.50024 8.0249L3.5061 8.56592L3.50757 16.4841L3.50879 16.6646C3.55664 20.5642 5.28003 23.8562 8.10229 26.824L8.27271 26.9873C9.3042 27.8384 10.5806 28.749 12.0417 29.6907L12.2734 29.8313L12.4192 29.9138L12.585 30.0051L12.8376 30.1401L13.127 30.2908L13.6306 30.5464L14.4946 31L14.5 27.8157L13.9438 27.5254L13.7729 27.4316L13.5872 27.3228L13.3596 27.1755C12.1387 26.3813 11.0703 25.6189 10.2046 24.9165L10.0149 24.7373C7.61304 22.2083 6.32666 19.6311 6.32666 16.4841L6.32642 8.69653L6.31934 8.01147C6.34253 7.7002 6.41382 7.47681 6.53271 7.34155C6.71143 7.13867 6.89087 7.03784 7.1311 6.94019L9.02979 6.20435L10.0203 5.8103L11.2976 5.29297L12.5576 4.77515L13.3428 4.44946L13.717 4.30688ZM17.5 4.00708L18.283 4.30688L18.6572 4.44946L19.4424 4.77515L20.7024 5.29297L21.9797 5.8103L22.9702 6.20435L24.8689 6.94019C25.1091 7.03784 25.2886 7.13867 25.4673 7.34155C25.5862 7.47681 25.6575 7.7002 25.6807 8.01147L25.6736 8.69653L25.6733 16.4841C25.6733 19.6311 24.387 22.2083 21.9851 24.7373L21.7954 24.9165C20.9297 25.6189 19.8613 26.3813 18.6404 27.1755L18.4128 27.3228L18.2271 27.4316L18.0562 27.5254L17.5 27.8157L17.5054 31L18.3694 30.5464L18.873 30.2908L19.1624 30.1401L19.415 30.0051L19.5808 29.9138L19.7266 29.8313L19.9583 29.6907C21.4194 28.749 22.6958 27.8384 23.7273 26.9873L23.8977 26.824C26.72 23.8562 28.4434 20.5642 28.4912 16.6646L28.4924 16.4841L28.4939 8.56592L28.4998 8.0249L28.5 7.81055L28.4985 7.6123L28.4946 7.42847L28.4834 7.177C28.4519 6.67505 28.3682 6.34302 28.1663 5.99634C27.7983 5.36523 26.9397 4.7478 26.0286 4.35864L25.886 4.30029L24.2588 3.6709L23.4553 3.35327L22.7229 3.05957L21.5916 2.59985L20.5142 2.15674L19.6858 1.81348L19.0425 1.5708L17.5 1L17.5 4.00708ZM14.1667 19.6665L17.8333 19.6665L17.8333 11L14.1667 11L14.1667 19.6665Z" clip-rule="evenodd" fill="#000000" fill-opacity="1.000000" fill-rule="evenodd"/>
	</g>
</svg>
