<?xml version="1.0" encoding="UTF-8"?>
<svg width="24px" height="24px" viewBox="0 0 24 24" version="1.1" xmlns="http://www.w3.org/2000/svg" xmlns:xlink="http://www.w3.org/1999/xlink">
    <title>ballpointpen_result</title>
    <g id="ballpointpen_result" stroke="none" stroke-width="1" fill="none" fill-rule="evenodd" fill-opacity="0.898039222">
        <path d="M22.4776,8.63035 C22.4879,8.66206 22.4981,8.69426 22.5081,8.72645 C22.8328,9.768 22.9951,10.8598 22.9951,12.0028 C22.9951,13.0556 22.8548,14.0678 22.5741,15.0391 C22.5653,15.0699 22.5564,15.1001 22.5473,15.1309 C22.5387,15.1591 22.53,15.1879 22.5212,15.2167 C22.2767,16.0099 21.9382,16.7744 21.5055,17.5096 C21.0298,18.316 20.4735,19.0434 19.8365,19.6912 C19.8239,19.7044 19.8112,19.7171 19.7985,19.7297 C19.775,19.7537 19.7513,19.7771 19.7276,19.8005 C19.0666,20.4542 18.3224,21.024 17.495,21.5089 C16.7701,21.9358 16.0167,22.2714 15.2348,22.5153 C15.1972,22.527 15.1595,22.5387 15.1217,22.55 C15.0882,22.5602 15.0547,22.57 15.0211,22.5797 L15.0181,22.5802 C14.0479,22.8602 13.0375,23.0002 11.9866,23.0002 C11.0829,23.0002 10.2055,22.8944 9.35441,22.6827 L9.3517,22.6817 C9.3216,22.6744 9.29156,22.6666 9.26152,22.6592 C9.23268,22.6514 9.20385,22.6441 9.17505,22.6363 C8.26748,22.3934 7.39223,22.0299 6.54929,21.545 C5.80087,21.1167 5.11873,20.6166 4.50285,20.0454 L4.49841,20.041 C4.46537,20.0103 4.43252,19.9795 4.39985,19.9483 C4.37971,19.9293 4.35965,19.9098 4.33966,19.8907 C3.64048,19.2146 3.03206,18.4443 2.5144,17.5803 C2.15149,16.9744 1.85366,16.3456 1.62093,15.6933 C1.61215,15.6685 1.60345,15.6436 1.59485,15.6192 C1.58306,15.585 1.57146,15.5514 1.56003,15.5172 C1.18668,14.4088 1,13.2375 1,12.0028 C1,10.9305 1.14394,9.90069 1.43182,8.91232 C1.4407,8.88208 1.44973,8.85134 1.45891,8.82109 C1.46732,8.79329 1.47586,8.76499 1.4845,8.73719 L1.48551,8.73426 C1.72663,7.95761 2.05712,7.20877 2.47704,6.48774 C2.96055,5.65597 3.53003,4.90908 4.18546,4.24757 C4.20923,4.22318 4.23312,4.19976 4.2571,4.17586 C4.28039,4.15293 4.30378,4.12951 4.32728,4.10707 C4.32872,4.10561 4.33015,4.10414 4.3316,4.10268 C4.97061,3.48214 5.68687,2.94064 6.48038,2.47865 C7.19107,2.0635 7.92918,1.73567 8.69467,1.49516 C8.73276,1.48296 8.77094,1.47126 8.80917,1.45955 C8.84306,1.4493 8.877,1.43955 8.91098,1.4293 L8.91401,1.42881 C9.89668,1.14294 10.9209,1 11.9866,1 C13.1389,1 14.2395,1.1644 15.2885,1.4937 L15.2917,1.49467 C15.3277,1.50589 15.3636,1.5176 15.3994,1.52931 C15.7857,1.65517 15.9903,2.05764 15.8645,2.44401 C15.7387,2.83039 15.3363,3.03528 14.9501,2.90942 C14.0138,2.60403 13.026,2.45182 11.9866,2.45182 C11.0257,2.45182 10.1063,2.58403 9.22847,2.84941 C8.53147,3.06016 7.85858,3.35482 7.20979,3.73387 C6.4919,4.15146 5.84791,4.64272 5.27785,5.20764 C4.68338,5.79647 4.16762,6.46677 3.73058,7.21902 C3.3525,7.86785 3.05833,8.54156 2.84809,9.23966 C2.58328,10.1192 2.45086,11.0403 2.45086,12.0028 C2.45086,13.1112 2.62221,14.1576 2.96489,15.1416 C3.16863,15.7265 3.43327,16.2905 3.75884,16.8339 C4.22371,17.6101 4.77079,18.2974 5.4001,18.897 C5.95788,19.4278 6.58191,19.8912 7.27216,20.2864 C8.02846,20.7215 8.81254,21.0435 9.6244,21.2533 C10.3855,21.4504 11.1729,21.5484 11.9866,21.5484 C12.9332,21.5484 13.8395,21.4187 14.7054,21.1591 C15.2239,21.004 15.729,20.8015 16.2209,20.5527 C15.5954,19.9722 14.9768,19.3673 14.3648,18.7384 C13.4007,17.755 12.6531,16.9481 12.1219,16.3188 C11.8822,16.0382 11.7624,15.7368 11.7624,15.4143 C11.7624,15.3753 11.7642,15.3353 11.7677,15.2957 C11.8005,14.9347 11.9415,14.6298 12.1907,14.3806 L13.8434,12.7282 C14.1123,12.4589 14.4336,12.3214 14.8074,12.315 C15.0054,12.3116 15.19,12.3428 15.3614,12.4087 L15.3615,12.4087 C15.5193,12.4692 15.6658,12.5594 15.801,12.679 C16.3191,13.1512 17.0831,13.8625 18.0931,14.8133 C18.9996,15.667 19.7001,16.3544 20.1945,16.8749 C20.2149,16.8412 20.2352,16.8071 20.2553,16.7729 C20.644,16.1124 20.9446,15.4265 21.1572,14.7147 C21.4152,13.8512 21.5443,12.9473 21.5443,12.0028 C21.5443,10.9769 21.3951,10.0012 21.0968,9.07575 C20.9721,8.68889 21.1779,8.28691 21.5645,8.16202 C21.9511,8.03713 22.3529,8.24349 22.4776,8.63035 Z M19.3256,18.0955 C19.3083,18.0769 19.2909,18.0584 19.2735,18.0403 C18.8472,17.5813 18.198,16.9417 17.3257,16.1217 C16.4535,15.3084 15.6141,14.5313 14.8074,13.7903 L13.2335,15.4138 C13.7056,15.9646 14.4172,16.7188 15.3681,17.6759 C16.0844,18.3926 16.808,19.0843 17.5391,19.7522 C17.9816,19.4356 18.3917,19.0873 18.7692,18.7067 C18.9631,18.5116 19.1486,18.3077 19.3256,18.0955 Z M19.5247,1.00681395 C19.4582,1.00681395 19.407,1.02293 19.3712,1.0561 C19.3498,1.0761 19.3339,1.10196 19.3235,1.13318 C19.1614,1.94495 18.7924,2.6411 18.2166,3.22164 C17.8898,3.55093 17.5297,3.81339 17.1363,4.00853 C16.8365,4.15683 16.5175,4.26659 16.179,4.33733 C16.1008,4.36563 16.0477,4.39929 16.0197,4.4388 C15.9918,4.47832 16.0002,4.51783 16.0449,4.55735 C16.084,4.60223 16.1287,4.63589 16.179,4.65833 C16.5175,4.72907 16.8365,4.83883 17.1363,4.98763 L17.1363,4.98763 C17.5297,5.18276 17.8898,5.44522 18.2166,5.77452 C18.7924,6.36042 19.1614,7.04535 19.3235,7.82882 C19.3514,7.87956 19.385,7.92737 19.4241,7.97225 C19.4632,8.01176 19.5108,8.01762 19.5667,7.98932 C19.617,7.96103 19.6561,7.90737 19.6841,7.82882 C19.8462,7.04535 20.2095,6.36042 20.7741,5.77452 C21.3331,5.19398 22.0151,4.82225 22.8201,4.65833 C22.876,4.63589 22.9235,4.60223 22.9626,4.55735 C23.0018,4.51783 23.0102,4.47832 22.9878,4.4388 C22.9599,4.39929 22.904,4.36563 22.8201,4.33733 C22.0151,4.14561 21.3331,3.76802 20.7741,3.20456 C20.2095,2.63525 19.8462,1.94495 19.6841,1.13318 C19.6841,1.10537 19.6701,1.07708 19.6421,1.04878 C19.6385,1.04537 19.6346,1.04195 19.6306,1.03854 L19.6306,1.03854 C19.6038,1.01707 19.5685,1.00634 19.5247,1.00681395 Z M6.85896,11.2032 C6.62286,10.6588 6.50482,10.0949 6.50482,9.51139 C6.50482,8.59962 6.84911,7.56344 7.53772,6.40286 C7.6492,6.22577 7.78037,6.11064 7.93121,6.05844 C8.08204,5.99941 8.22961,5.98966 8.37389,6.02868 C8.52473,6.0682 8.64933,6.14381 8.7477,6.25504 C9.4691,7.16682 10.1839,7.72735 10.8922,7.93712 C11.2726,8.02933 11.5907,8.15714 11.8464,8.32106 C12.1087,8.48497 12.3481,8.71133 12.5645,8.99965 C12.8195,9.38211 12.9799,9.77971 13.0455,10.1924 L13.0455,10.1924 C13.0609,10.289 13.0711,10.3866 13.0761,10.4851 C13.0788,10.5383 13.0801,10.591 13.0801,10.6432 C13.0801,10.91 13.0453,11.1666 12.9757,11.413 C12.9256,11.5911 12.8574,11.7638 12.7711,11.9311 C12.6628,12.1448 12.5325,12.3394 12.3803,12.515 C12.2101,12.7116 12.0124,12.8843 11.7874,13.0331 C11.4838,13.2453 11.1647,13.3893 10.8302,13.4649 L10.83,13.4649 C10.4926,13.541 10.1396,13.5483 9.77077,13.4854 C9.03626,13.3541 8.39356,13.0526 7.84268,12.5804 C7.42295,12.2067 7.09505,11.7477 6.85896,11.2032 Z M9.23956,8.80305 C8.95757,8.59961 8.68867,8.32398 8.43291,7.97664 L8.41323,7.95713 C8.22304,8.30447 8.09845,8.6523 8.03942,8.99965 C7.99955,9.18307 7.9796,9.3665 7.9796,9.54993 L7.9796,9.54993 C7.9796,9.81922 8.0225,10.088 8.10828,10.3573 C8.19446,10.6364 8.31915,10.8871 8.48236,11.1096 C8.57998,11.2427 8.69139,11.3657 8.81657,11.4789 C9.14447,11.7935 9.50517,11.974 9.89865,12.0199 C10.2921,12.0657 10.6463,11.9872 10.9611,11.7838 C11.2759,11.5803 11.4824,11.2818 11.5808,10.8886 C11.6076,10.7642 11.621,10.6466 11.621,10.5364 C11.621,10.35 11.5828,10.1836 11.5064,10.0368 L11.5064,10.0368 L11.5064,10.0368 C11.4729,9.9724 11.4322,9.91191 11.3841,9.85532 C11.1676,9.59969 10.8234,9.41626 10.3512,9.30455 C9.89209,9.18015 9.52156,9.01282 9.23956,8.80305 Z" id="矢量-873" fill="#000000"></path>
    </g>
</svg>