<svg viewBox="0 0 24 24" xmlns="http://www.w3.org/2000/svg" xmlns:xlink="http://www.w3.org/1999/xlink" width="24.000000" height="24.000000" fill="none" customFrame="#000000">
	<g id="下一级">
		<rect id="矩形 113" width="24.000000" height="24.000000" x="0.000000" y="0.000000" opacity="0" fill="rgb(0,0,0)" />
		<path id="矢量 1" d="M14.7801 18C14.9734 18.16 15.1667 18.24 15.3601 18.24C15.5534 18.24 15.7201 18.16 15.8601 18L21.1401 12.65L21.2401 12.55C21.3867 12.3567 21.4601 12.1334 21.4601 11.88C21.4601 11.56 21.3534 11.3034 21.1401 11.11L15.8601 5.74002C15.7201 5.59335 15.5467 5.52002 15.3401 5.52002C15.1267 5.52002 14.9501 5.59335 14.8101 5.74002C14.6834 5.86669 14.6134 6.02669 14.6001 6.22002C14.5934 6.40669 14.6467 6.58002 14.7601 6.74002L14.8101 6.79002L19.8201 11.88L14.7801 16.94C14.6401 17.0867 14.5701 17.2634 14.5701 17.47C14.5701 17.6767 14.6401 17.8534 14.7801 18Z" fill="rgb(0,0,0)" fill-opacity="0.90196079" fill-rule="nonzero" />
	</g>
</svg>