<?xml version="1.0" encoding="UTF-8"?>
<svg width="24px" height="24px" viewBox="0 0 24 24" version="1.1" xmlns="http://www.w3.org/2000/svg" xmlns:xlink="http://www.w3.org/1999/xlink">
    <title>clarity_2k</title>
    <g id="clarity_2k" stroke="none" stroke-width="1" fill="none" fill-rule="evenodd">
        <path d="M22.0001,6 C22.0001,3.79102 20.2094,2 18.0001,2 L6.00012,2 C3.79089,2 2.00012,3.79102 2.00012,6 L2.00012,18 C2.00012,20.209 3.79089,22 6.00012,22 L18.0001,22 C20.2094,22 22.0001,20.209 22.0001,18 L22.0001,6 Z M6.00012,3.5 L18.0001,3.5 C18.1991,3.5 18.3927,3.52246 18.5812,3.56738 L18.5814,3.56738 C18.7145,3.59912 18.8448,3.6416 18.9728,3.6958 C19.1075,3.75293 19.2352,3.82031 19.3561,3.89844 L19.3563,3.89893 C19.5038,3.99414 19.641,4.10547 19.7679,4.23242 C19.8949,4.35938 20.0062,4.49658 20.1014,4.64404 C20.1798,4.76465 20.2472,4.89258 20.3043,5.02734 C20.3583,5.15527 20.4012,5.28564 20.433,5.41895 C20.4777,5.60742 20.5001,5.80078 20.5001,6 L20.5001,18 C20.5001,18.1992 20.4777,18.3926 20.433,18.5811 C20.4012,18.7144 20.3583,18.8447 20.3043,18.9727 C20.2472,19.1074 20.1798,19.2354 20.1014,19.356 C20.006,19.5034 19.8949,19.6406 19.7679,19.7676 C19.641,19.8945 19.5035,20.0059 19.3561,20.1016 C19.2352,20.1797 19.1075,20.2471 18.9728,20.3042 C18.8448,20.3584 18.7145,20.4009 18.5814,20.4326 L18.5812,20.4326 C18.3929,20.4775 18.1991,20.5 18.0001,20.5 L6.00012,20.5 C5.80115,20.5 5.6073,20.4775 5.41907,20.4326 C5.28577,20.4009 5.1554,20.3584 5.02747,20.3042 C4.8927,20.2471 4.76501,20.1797 4.64392,20.1011 C4.49646,20.0059 4.35925,19.8945 4.2323,19.7676 C4.10535,19.6406 3.99426,19.5034 3.8988,19.356 C3.82068,19.2354 3.75305,19.1074 3.69592,18.9727 C3.64197,18.8447 3.599,18.7144 3.56726,18.5811 C3.52258,18.3926 3.50012,18.1992 3.50012,18 L3.50012,6 C3.50012,5.80078 3.52258,5.60742 3.56726,5.41895 C3.599,5.28564 3.64197,5.15527 3.69592,5.02734 C3.75305,4.89258 3.82068,4.76465 3.8988,4.64404 C3.99426,4.49658 4.10535,4.35938 4.2323,4.23242 C4.35925,4.10547 4.49646,3.99414 4.64392,3.89893 C4.76501,3.82031 4.8927,3.75293 5.02747,3.6958 C5.1554,3.6416 5.28577,3.59912 5.41907,3.56738 C5.6073,3.52246 5.80115,3.5 6.00012,3.5 Z M15.7621,10.0684 C15.8451,9.98584 15.8588,9.86963 15.806,9.71973 C15.7552,9.56982 15.6469,9.47656 15.4818,9.44043 C15.3656,9.40625 15.2592,9.41504 15.1625,9.46582 C15.0619,9.51904 14.9711,9.60352 14.889,9.71973 L13.0043,11.8105 L13.0043,9.91211 C13.0043,9.75 12.9633,9.62793 12.8812,9.54541 C12.8011,9.46338 12.6791,9.42188 12.5131,9.42188 C12.351,9.42188 12.223,9.46582 12.1312,9.55273 C12.0365,9.64014 11.9896,9.75977 11.9896,9.91211 L11.9896,14.0933 C11.9896,14.2432 12.0336,14.3618 12.1205,14.4492 C12.1334333,14.4621333 12.1471,14.4741333 12.1615,14.4852 C12.2439,14.5481333 12.3503333,14.5796 12.4808,14.5796 C12.6429,14.5796 12.7709,14.5361 12.8627,14.4492 C12.9574,14.3618 13.0043,14.2432 13.0043,14.0933 L13.0043,13.0298 L13.7035,12.2822 L15.0453,14.1807 C15.1869,14.3667 15.3168,14.4854 15.4388,14.5361 C15.5619,14.5894 15.722,14.5747 15.9183,14.4927 C16.0355,14.4346 16.1205,14.3452 16.1732,14.2241 C16.2269,14.1006 16.2181,13.9932 16.1478,13.9009 L14.434,11.5127 L15.7621,10.0684 Z M11.0326,14.4199 C10.9427333,14.4931667 10.8177333,14.5298 10.6576,14.5298 L8.30798,14.5298 C8.17712,14.5298 8.0697,14.5015 7.98279,14.4448 C7.89587,14.3882 7.8363,14.3135 7.80212,14.2202 C7.78552,14.0601 7.85779,13.8833 8.01794,13.6899 L9.36267,12.2002 L9.5072,12.0601 C9.73083333,11.7866333 9.87927,11.5815333 9.95251,11.4448 C10.0228,11.3081 10.058,11.1533 10.058,10.98 C10.058,10.77 10.0023,10.6016 9.89294,10.4751 C9.77966,10.3452 9.62634,10.2798 9.43298,10.2798 C9.28943,10.2798 9.15759,10.3169 9.03748,10.3901 C8.91736,10.4634 8.81775,10.5635 8.73767,10.6899 C8.62732,10.8833 8.49255,10.98 8.3324,10.98 C8.17224,10.98 8.05212,10.9116 7.97302,10.7749 C7.89294,10.6382 7.89294,10.4814 7.97302,10.3052 C8.1156,10.0352 8.32263,9.82324 8.59216,9.66992 C8.70588,9.60616 8.82365,9.55565667 8.94547,9.51841 C9.11657667,9.46609667 9.29568333,9.43994 9.48279,9.43994 C9.84959667,9.43994 10.1569333,9.52580333 10.4048,9.69753 C10.4697333,9.74249667 10.5305667,9.79335333 10.5873,9.8501 C10.8578,10.1235 10.9926,10.4917 10.9926,10.9551 C10.9926,11.2417 10.9213,11.5166 10.7777,11.7798 C10.6342,12.0469 10.3861,12.3716 10.0326,12.7549 L9.17224,13.7148 L10.6576,13.7148 C10.8177,13.7148 10.9427,13.75 11.0326,13.8198 C11.1195,13.8936 11.1625,13.9932 11.1625,14.1201 C11.1625,14.25 11.1195,14.3501 11.0326,14.4199 Z" id="矢量-797" fill="#000000"></path>
    </g>
</svg>