<?xml version="1.0" encoding="UTF-8"?>
<svg width="24px" height="24px" viewBox="0 0 24 24" version="1.1" xmlns="http://www.w3.org/2000/svg" xmlns:xlink="http://www.w3.org/1999/xlink">
    <title>clarity_1k</title>
    <g id="clarity_1k" stroke="none" stroke-width="1" fill="none" fill-rule="evenodd">
        <path d="M22.0001,6 C22.0001,3.79102 20.2094,2 18.0001,2 L6.00012,2 C3.79089,2 2.00012,3.79102 2.00012,6 L2.00012,18 C2.00012,20.209 3.79089,22 6.00012,22 L18.0001,22 C20.2094,22 22.0001,20.209 22.0001,18 L22.0001,6 Z M6.00012,3.5 L18.0001,3.5 C18.1991,3.5 18.3927,3.52246 18.5812,3.56738 L18.5814,3.56738 C18.7145,3.59912 18.8448,3.6416 18.9728,3.6958 C19.1075,3.75293 19.2352,3.82031 19.3561,3.89844 L19.3563,3.89893 C19.5038,3.99414 19.641,4.10547 19.7679,4.23242 C19.8949,4.35938 20.0062,4.49658 20.1014,4.64404 C20.1798,4.76465 20.2472,4.89258 20.3043,5.02734 C20.3583,5.15527 20.4012,5.28564 20.433,5.41895 C20.4777,5.60742 20.5001,5.80078 20.5001,6 L20.5001,18 C20.5001,18.1992 20.4777,18.3926 20.433,18.5811 C20.4012,18.7144 20.3583,18.8447 20.3043,18.9727 C20.2472,19.1074 20.1798,19.2354 20.1014,19.356 C20.006,19.5034 19.8949,19.6406 19.7679,19.7676 C19.641,19.8945 19.5035,20.0059 19.3561,20.1016 C19.2352,20.1797 19.1075,20.2471 18.9728,20.3042 C18.8448,20.3584 18.7145,20.4009 18.5814,20.4326 L18.5812,20.4326 C18.3929,20.4775 18.1991,20.5 18.0001,20.5 L6.00012,20.5 C5.80115,20.5 5.6073,20.4775 5.41907,20.4326 C5.28577,20.4009 5.1554,20.3584 5.02747,20.3042 C4.8927,20.2471 4.76501,20.1797 4.64392,20.1011 C4.49646,20.0059 4.35925,19.8945 4.2323,19.7676 C4.10535,19.6406 3.99426,19.5034 3.8988,19.356 C3.82068,19.2354 3.75305,19.1074 3.69592,18.9727 C3.64197,18.8447 3.599,18.7144 3.56726,18.5811 C3.52258,18.3926 3.50012,18.1992 3.50012,18 L3.50012,6 C3.50012,5.80078 3.52258,5.60742 3.56726,5.41895 C3.599,5.28564 3.64197,5.15527 3.69592,5.02734 C3.75305,4.89258 3.82068,4.76465 3.8988,4.64404 C3.99426,4.49658 4.10535,4.35938 4.2323,4.23242 C4.35925,4.10547 4.49646,3.99414 4.64392,3.89893 C4.76501,3.82031 4.8927,3.75293 5.02747,3.6958 C5.1554,3.6416 5.28577,3.59912 5.41907,3.56738 C5.6073,3.52246 5.80115,3.5 6.00012,3.5 Z M9.89099,14.6753 C10.0372,14.6753 10.1508,14.6284 10.2306,14.5352 C10.3109,14.4351 10.3507,14.3052 10.3507,14.145 L10.3507,9.89502 C10.3507,9.72168 10.3239,9.58838 10.2711,9.49512 C10.2655,9.48574667 10.2593667,9.47675667 10.2527,9.46815 C10.1885,9.38479667 10.07794,9.33714667 9.92102,9.3252 C9.85437,9.3252 9.78113,9.3418 9.70081,9.375 C9.62048,9.40186 9.54089,9.44189 9.46057,9.49512 L9.39075,9.53516 L8.43054,10.1152 C8.25769,10.2085 8.14392,10.312 8.09094,10.4253 C8.06750667,10.4819667 8.05579,10.5386 8.05579,10.5952 C8.05579,10.6518667 8.06750667,10.7085 8.09094,10.7651 C8.15759,10.9053 8.23743,10.9819 8.33069,10.9951 C8.43054,11.002 8.56775,10.9717 8.74084,10.9053 L9.41101,10.5254 L9.41101,14.145 C9.41101,14.3252 9.45081,14.4585 9.53113,14.5454 C9.61072,14.6318 9.73083,14.6753 9.89099,14.6753 Z M15.5504,9.70996 C15.6034,9.85986 15.589,9.97607 15.5067,10.0586 L14.1783,11.5029 L15.892,13.8911 C15.9625,13.9829 15.9711,14.0908 15.9174,14.2144 C15.8646,14.3354 15.7797,14.4248 15.6627,14.4829 C15.4662,14.5649 15.3063,14.5796 15.1827,14.5264 C15.0614,14.4756 14.9308,14.3569 14.7897,14.1709 L13.4476,12.2725 L12.7487,13.02 L12.7487,14.0835 C12.7487,14.2334 12.7018,14.3521 12.6071,14.4395 C12.515,14.5264 12.3876,14.5698 12.225,14.5698 C12.0721,14.5698 11.952,14.5264 11.8651,14.4395 C11.7777,14.3521 11.7338,14.2334 11.7338,14.0835 L11.7338,9.90234 C11.7338,9.75 11.7809,9.62988 11.8756,9.54297 C11.9677,9.45605 12.0951,9.41211 12.2577,9.41211 C12.423,9.41211 12.545,9.45361 12.6254,9.53564 C12.7076,9.61816 12.7487,9.74023 12.7487,9.90234 L12.7487,11.8008 L14.6334,9.70996 C14.7157,9.59375 14.8065,9.50928 14.9066,9.45605 C15.0031,9.40527 15.1102,9.39648 15.2264,9.43066 C15.391,9.4668 15.4994,9.56006 15.5504,9.70996 Z" id="矢量-796" fill="#000000"></path>
    </g>
</svg>