<?xml version="1.0" encoding="UTF-8"?>
<svg width="24px" height="24px" viewBox="0 0 24 24" version="1.1" xmlns="http://www.w3.org/2000/svg" xmlns:xlink="http://www.w3.org/1999/xlink">
    <title>clarity_4k</title>
    <g id="clarity_4k" stroke="none" stroke-width="1" fill="none" fill-rule="evenodd">
        <path d="M22.0001,6 C22.0001,3.79102 20.2094,2 18.0001,2 L6.00012,2 C3.79089,2 2.00012,3.79102 2.00012,6 L2.00012,18 C2.00012,20.209 3.79089,22 6.00012,22 L18.0001,22 C20.2094,22 22.0001,20.209 22.0001,18 L22.0001,6 Z M6.00012,3.5 L18.0001,3.5 C18.1991,3.5 18.3927,3.52246 18.5812,3.56738 L18.5814,3.56738 C18.7145,3.59912 18.8448,3.6416 18.9728,3.6958 C19.1075,3.75293 19.2352,3.82031 19.3561,3.89844 L19.3563,3.89893 C19.5038,3.99414 19.641,4.10547 19.7679,4.23242 C19.8949,4.35938 20.0062,4.49658 20.1014,4.64404 C20.1798,4.76465 20.2472,4.89258 20.3043,5.02734 C20.3583,5.15527 20.4012,5.28564 20.433,5.41895 C20.4777,5.60742 20.5001,5.80078 20.5001,6 L20.5001,18 C20.5001,18.1992 20.4777,18.3926 20.433,18.5811 C20.4012,18.7144 20.3583,18.8447 20.3043,18.9727 C20.2472,19.1074 20.1798,19.2354 20.1014,19.356 C20.006,19.5034 19.8949,19.6406 19.7679,19.7676 C19.641,19.8945 19.5035,20.0059 19.3561,20.1016 C19.2352,20.1797 19.1075,20.2471 18.9728,20.3042 C18.8448,20.3584 18.7145,20.4009 18.5814,20.4326 L18.5812,20.4326 C18.3929,20.4775 18.1991,20.5 18.0001,20.5 L6.00012,20.5 C5.80115,20.5 5.6073,20.4775 5.41907,20.4326 C5.28577,20.4009 5.1554,20.3584 5.02747,20.3042 C4.8927,20.2471 4.76501,20.1797 4.64392,20.1011 C4.49646,20.0059 4.35925,19.8945 4.2323,19.7676 C4.10535,19.6406 3.99426,19.5034 3.8988,19.356 C3.82068,19.2354 3.75305,19.1074 3.69592,18.9727 C3.64197,18.8447 3.599,18.7144 3.56726,18.5811 C3.52258,18.3926 3.50012,18.1992 3.50012,18 L3.50012,6 C3.50012,5.80078 3.52258,5.60742 3.56726,5.41895 C3.599,5.28564 3.64197,5.15527 3.69592,5.02734 C3.75305,4.89258 3.82068,4.76465 3.8988,4.64404 C3.99426,4.49658 4.10535,4.35938 4.2323,4.23242 C4.35925,4.10547 4.49646,3.99414 4.64392,3.89893 C4.76501,3.82031 4.8927,3.75293 5.02747,3.6958 C5.1554,3.6416 5.28577,3.59912 5.41907,3.56738 C5.6073,3.52246 5.80115,3.5 6.00012,3.5 Z M10.5453,14.4351 C10.4486,14.5317 10.3373,14.5801 10.2103,14.5801 C10.1545667,14.5801 10.1024,14.5707667 10.0538,14.5521 C9.99172667,14.5283 9.93550333,14.4893 9.88513,14.4351 C9.79919,14.3384 9.75525,14.2183 9.75525,14.0747 L9.75525,13.5 L8.09973,13.5 C7.87317,13.5 7.71985,13.4268 7.63977,13.2798 C7.56067,13.1367 7.56067,12.9766 7.63977,12.7998 L9.30017,9.66016 C9.34705,9.58008 9.40173,9.52002 9.46521,9.47998 C9.52869,9.43994 9.59998,9.41992 9.68005,9.41992 C9.84021,9.41992 9.96521,9.48633 10.0551,9.62012 C10.142,9.75684 10.1459,9.90479 10.0658,10.0649 L8.70032,12.6797 L9.75525,12.6797 L9.75525,11.8896 C9.75525,11.73 9.79919,11.6016 9.88513,11.5049 C9.93550333,11.4507 9.99172667,11.4117 10.0538,11.3879 C10.1024,11.3692333 10.1545667,11.3599 10.2103,11.3599 C10.3373,11.3599 10.4486,11.4082 10.5453,11.5049 C10.642,11.6016 10.6908,11.73 10.6908,11.8896 L10.6908,12.6797 L10.8802,12.6797 C11.0033333,12.6797 11.1078333,12.7079667 11.1937,12.7645 C11.2099667,12.7752333 11.2256,12.787 11.2406,12.7998 C11.3373,12.8799 11.3851,12.9766 11.3851,13.0898 C11.3851,13.2031 11.3422,13.2998 11.2552,13.3799 C11.2197333,13.4115667 11.1813333,13.4369667 11.14,13.4561 C11.0768,13.4853667 11.0068333,13.5 10.9301,13.5 L10.6908,13.5 L10.6908,14.0498 C10.6908,14.21 10.642,14.3384 10.5453,14.4351 Z M15.9735,10.0732 C16.0565,9.99072 16.0702,9.875 16.0175,9.72461 C15.9667,9.57471 15.8583,9.48145 15.6932,9.44531 C15.577,9.41113 15.4706,9.41992 15.3739,9.4707 C15.2733,9.52393 15.1823,9.6084 15.1002,9.72461 L13.2155,11.8154 L13.2155,9.91699 C13.2155,9.75685667 13.1754667,9.63579333 13.0954,9.5538 C13.0944,9.55278667 13.0934,9.55178 13.0924,9.55078 C13.0123,9.46826 12.8903,9.42725 12.7242,9.42725 C12.5621,9.42725 12.4342,9.4707 12.3424,9.55762 C12.2477,9.64502 12.2008,9.76465 12.2008,9.91699 L12.2008,14.0986 C12.2008,14.2485 12.2448,14.3672 12.3317,14.4541 C12.4186,14.541 12.5387,14.585 12.692,14.585 C12.8541,14.585 12.9821,14.541 13.0739,14.4541 C13.1686,14.3672 13.2155,14.2485 13.2155,14.0986 L13.2155,13.0352 L13.9147,12.2871 L15.2567,14.1855 C15.3983,14.3716 15.5282,14.4902 15.6503,14.541 C15.7733,14.5942 15.9335,14.5801 16.1298,14.4976 C16.2469,14.4395 16.3319,14.3501 16.3846,14.229 C16.4384,14.1055 16.4296,13.998 16.3593,13.9062 L14.6451,11.5176 L15.9735,10.0732 Z" id="矢量-798" fill="#000000"></path>
    </g>
</svg>