<svg viewBox="0 0 24 24" xmlns="http://www.w3.org/2000/svg" xmlns:xlink="http://www.w3.org/1999/xlink" width="24.000000" height="24.000000" fill="none" customFrame="#000000">
	<g id="2">
		<rect id="矩形 11" width="24.000000" height="24.000000" x="0.000000" y="0.000000" opacity="0" fill="rgb(0,0,0)" fill-opacity="0.899999976" />
		<g id="ic_window_Menu_Screen_N备份 2">
			<path id="矩形" d="M19.5 4C21.433 4 23 5.567 23 7.5L23 16.5C23 18.433 21.433 20 19.5 20L4.5 20C2.567 20 1 18.433 1 16.5L1 7.5C1 5.567 2.567 4 4.5 4L19.5 4ZM19.5 5.5L4.5 5.5C4.33851 5.5 4.18145 5.51841 4.02883 5.55522C3.92447 5.58039 3.82218 5.61417 3.72197 5.65655C3.61531 5.70167 3.51404 5.75512 3.41814 5.81693C3.29906 5.89368 3.18828 5.9833 3.08579 6.08579C2.9833 6.18828 2.89368 6.29906 2.81693 6.41814C2.75513 6.51404 2.70167 6.61531 2.65655 6.72197C2.61417 6.82219 2.58038 6.92448 2.55521 7.02885C2.5184 7.18146 2.5 7.33851 2.5 7.5L2.5 16.5C2.5 16.6615 2.5184 16.8185 2.55521 16.9712C2.58039 17.0755 2.61417 17.1778 2.65655 17.278C2.70166 17.3847 2.7551 17.4859 2.81689 17.5818C2.89365 17.7009 2.98328 17.8117 3.08579 17.9142C3.18828 18.0167 3.29906 18.1063 3.41815 18.1831C3.51404 18.2449 3.61532 18.2983 3.72197 18.3434C3.82219 18.3858 3.92449 18.4196 4.02887 18.4448C4.18147 18.4816 4.33852 18.5 4.5 18.5L19.5 18.5C19.6615 18.5 19.8186 18.4816 19.9712 18.4448C20.0755 18.4196 20.1778 18.3858 20.278 18.3434C20.3847 18.2983 20.486 18.2449 20.5819 18.183C20.701 18.1063 20.8117 18.0167 20.9142 17.9142C21.0167 17.8117 21.1063 17.7009 21.1831 17.5819C21.2449 17.486 21.2983 17.3847 21.3434 17.278C21.3858 17.1778 21.4196 17.0756 21.4448 16.9712C21.4816 16.8186 21.5 16.6615 21.5 16.5L21.5 7.5C21.5 7.3385 21.4816 7.18144 21.4448 7.0288C21.4196 6.92445 21.3858 6.82217 21.3434 6.72197C21.2983 6.6153 21.2449 6.51401 21.183 6.4181C21.1063 6.29904 21.0167 6.18826 20.9142 6.08579C20.8117 5.98331 20.701 5.89371 20.5819 5.81697C20.486 5.75515 20.3847 5.70168 20.278 5.65655C20.1778 5.61416 20.0755 5.58038 19.9711 5.55521C19.8185 5.5184 19.6615 5.5 19.5 5.5Z" fill="rgb(0,0,0)" fill-opacity="0.90196079" fill-rule="evenodd" />
			<rect id="矩形" width="17.000000" height="11.000000" x="3.500000" y="6.500000" rx="1.500000" fill="rgb(0,0,0)" fill-opacity="0.90196079" />
			<rect id="矩形" width="16.000000" height="10.000000" x="4.000000" y="7.000000" rx="1.000000" stroke="rgb(151,151,151)" stroke-opacity="0" stroke-width="1" />
		</g>
	</g>
</svg>