<svg viewBox="0 0 24.0005 24" xmlns="http://www.w3.org/2000/svg" xmlns:xlink="http://www.w3.org/1999/xlink" width="24.000488" height="24.000000" fill="none" customFrame="#000000">
	<defs>
		<filter id="pixso_custom_mask_type_alpha">
			<feColorMatrix type="matrix" values="0 0 0 0 1 0 0 0 0 1 0 0 0 0 1 0 0 0 1 0 " />
		</filter>
	</defs>
	<mask id="mask_0" width="22.000000" height="20.400002" x="1.000000" y="1.800049" maskUnits="userSpaceOnUse">
		<g filter="url(#pixso_custom_mask_type_alpha)">
			<g id="组合 2524">
				<path id="减去顶层" d="M2.0755 4.9755C1.41259 5.61238 1 6.50789 1 7.49976L1 16.4998C1 18.4328 2.567 19.9998 4.5 19.9998L17.0998 19.9998L15.5998 18.4998L4.5 18.4998C4.33852 18.4998 4.18148 18.4814 4.02888 18.4446L4.02887 18.4445C3.92449 18.4194 3.82219 18.3856 3.72197 18.3432C3.61532 18.2981 3.51404 18.2446 3.41815 18.1828L3.4178 18.1826C3.29885 18.1059 3.18818 18.0164 3.08579 17.914C2.98328 17.8115 2.89365 17.7007 2.81689 17.5816L2.81639 17.5808C2.75481 17.4851 2.70153 17.3841 2.65655 17.2778C2.61417 17.1776 2.58039 17.0753 2.55521 16.9709L2.55515 16.9707C2.51838 16.8181 2.5 16.6612 2.5 16.4998L2.5 7.49976C2.5 7.3383 2.5184 7.18128 2.55519 7.0287L2.55521 7.02861L2.55521 7.0286L2.55521 7.0286C2.58039 6.92423 2.61417 6.82194 2.65655 6.72173C2.70167 6.61507 2.75513 6.51379 2.81693 6.4179C2.89368 6.29882 2.9833 6.18803 3.08579 6.08554C3.10247 6.06886 3.11938 6.05251 3.13651 6.03651L2.0755 4.9755ZM8.39976 5.49976L6.89976 3.99976L19.5 3.99976C21.433 3.99976 23 5.56676 23 7.49976L23 16.4998C23 17.4918 22.5873 18.3874 21.9242 19.0242L20.8632 17.9632C20.8805 17.9472 20.8975 17.9307 20.9142 17.914C21.0166 17.8115 21.1062 17.7008 21.1829 17.5818L21.1831 17.5816C21.2449 17.4857 21.2983 17.3844 21.3434 17.2778C21.3858 17.1776 21.4196 17.0753 21.4448 16.971C21.4816 16.8183 21.5 16.6613 21.5 16.4998L21.5 7.49976C21.5 7.33829 21.4816 7.18126 21.4448 7.02867L21.4448 7.02856L21.4445 7.02751C21.4194 6.92352 21.3857 6.82159 21.3434 6.72173C21.2983 6.61505 21.2449 6.51376 21.183 6.41786L21.1824 6.41686C21.1058 6.29817 21.0164 6.18773 20.9142 6.08554C20.8119 5.98324 20.7013 5.89376 20.5825 5.8171L20.5819 5.81673C20.486 5.7549 20.3847 5.70143 20.278 5.65631C20.1778 5.61392 20.0755 5.58014 19.9711 5.55497L19.971 5.55493C19.8184 5.51815 19.6614 5.49976 19.5 5.49976L8.39976 5.49976Z" fill="rgb(0,0,0)" fill-rule="evenodd" />
				<path id="减去顶层" d="M8.39976 5.49976L6.89976 3.99976L19.5 3.99976C21.433 3.99976 23 5.56676 23 7.49976L23 16.4998C23 17.4918 22.5873 18.3874 21.9242 19.0242L20.8632 17.9632C20.8805 17.9472 20.8975 17.9307 20.9142 17.914C21.0166 17.8115 21.1062 17.7008 21.1829 17.5818L21.1831 17.5816C21.2449 17.4857 21.2983 17.3844 21.3434 17.2778C21.3858 17.1776 21.4196 17.0753 21.4448 16.971C21.4816 16.8183 21.5 16.6613 21.5 16.4998L21.5 7.49976C21.5 7.33829 21.4816 7.18126 21.4448 7.02867L21.4448 7.02856L21.4445 7.02751C21.4194 6.92352 21.3857 6.82159 21.3434 6.72173C21.2983 6.61505 21.2449 6.51376 21.183 6.41786L21.1824 6.41686L21.1818 6.41586Q21.0671 6.23838 20.9142 6.08554C20.8119 5.98324 20.7013 5.89376 20.5825 5.8171L20.5819 5.81673C20.486 5.7549 20.3847 5.70143 20.278 5.65631C20.1778 5.61392 20.0755 5.58014 19.9711 5.55497L19.971 5.55493C19.8184 5.51815 19.6614 5.49976 19.5 5.49976L8.39976 5.49976ZM1 7.49976C1 6.50789 1.41259 5.61238 2.0755 4.9755L3.13651 6.03651C3.11938 6.05251 3.10247 6.06886 3.08579 6.08554Q2.93205 6.23928 2.81693 6.4179Q2.72422 6.56174 2.65655 6.72173Q2.59297 6.87205 2.55521 7.0286L2.55521 7.0286L2.55521 7.02861L2.55519 7.0287Q2.5 7.25757 2.5 7.49976L2.5 16.4998C2.5 16.6612 2.51838 16.8181 2.55515 16.9707L2.55521 16.9709C2.58039 17.0753 2.61417 17.1776 2.65655 17.2778C2.70153 17.3841 2.75481 17.4851 2.81639 17.5808L2.81689 17.5816Q2.93203 17.7602 3.08579 17.914C3.18818 18.0164 3.29885 18.1059 3.4178 18.1826L3.41815 18.1828C3.51404 18.2446 3.61532 18.2981 3.72197 18.3432Q3.87229 18.4068 4.02884 18.4445L4.02887 18.4445L4.02888 18.4446Q4.25778 18.4998 4.5 18.4998L15.5998 18.4998L17.0998 19.9998L4.5 19.9998C2.567 19.9998 1 18.4328 1 16.4998L1 7.49976Z" fill="rgb(0,0,0)" fill-rule="evenodd" />
				<path id="path" d="M20.9303 21.98C21.0703 22.1267 21.247 22.2001 21.4603 22.2001C21.667 22.2001 21.8403 22.1267 21.9803 21.98C22.127 21.84 22.2003 21.6667 22.2003 21.46C22.2003 21.2467 22.127 21.07 21.9803 20.93L3.07029 2.02005C2.93029 1.87338 2.75363 1.80005 2.54029 1.80005C2.33363 1.80005 2.16029 1.87338 2.02029 2.02005C1.87363 2.16005 1.80029 2.33338 1.80029 2.54005C1.80029 2.75338 1.87363 2.93005 2.02029 3.07005L20.9303 21.98Z" fill="rgb(0,0,0)" fill-rule="nonzero" />
				<path id="path" d="M20.9303 21.98C20.9888 22.0414 21.0538 22.0899 21.1252 22.1256C21.2245 22.1752 21.3362 22.2001 21.4603 22.2001C21.667 22.2001 21.8403 22.1267 21.9803 21.98C22.127 21.84 22.2003 21.6667 22.2003 21.46C22.2003 21.3359 22.1755 21.2242 22.1258 21.1249C22.0901 21.0536 22.0416 20.9886 21.9803 20.93L3.07029 2.02005C3.01175 1.95872 2.94679 1.91021 2.87542 1.87452C2.77612 1.82487 2.66441 1.80005 2.54029 1.80005C2.43059 1.80005 2.33028 1.82071 2.23936 1.86204C2.159 1.89857 2.08598 1.95124 2.02029 2.02005C1.95148 2.08573 1.89881 2.15876 1.86228 2.23912C1.82096 2.33004 1.80029 2.43035 1.80029 2.54005C1.80029 2.66417 1.82512 2.77588 1.87477 2.87518C1.91045 2.94655 1.95896 3.0115 2.02029 3.07005L20.9303 21.98Z" fill="rgb(0,0,0)" fill-rule="evenodd" />
			</g>
		</g>
	</mask>
	<g id="组合 2525">
		<rect id="rect" width="24.000000" height="24.000000" x="0.000488" y="0.000000" opacity="0" fill="rgb(0,0,0)" />
		<g id="原始比例" mask="url(#mask_0)">
			<rect id="rect" width="24.000000" height="24.000000" x="0.000488" y="0.000000" opacity="0.899999976" fill="rgb(0,0,0)" />
		</g>
	</g>
</svg>