<?xml version="1.0" encoding="UTF-8"?>
<svg width="28px" height="28px" viewBox="0 0 28 28" version="1.1" xmlns="http://www.w3.org/2000/svg" xmlns:xlink="http://www.w3.org/1999/xlink">
    <title>close</title>
    <g id="TMG结论" stroke="none" stroke-width="1" fill="none" fill-rule="evenodd">
        <g id="窗口控制/light" transform="translate(-80.000000, 0.000000)" fill="#E84026">
            <g id="group-0" transform="translate(80.000000, 0.000000)">
                <path d="M10.3250396,9.19798788 L10.3633718,9.23391762 L13.9997822,12.8704985 L17.6366282,9.23391762 C17.9485183,8.92202746 18.4541922,8.92202746 18.7660824,9.23391762 C19.0654969,9.53333218 19.0774735,10.0113378 18.8020121,10.3250396 L18.7660824,10.3633718 L15.129332,13.9997822 L18.7660824,17.6366282 C19.0779725,17.9485183 19.0779725,18.4541922 18.7660824,18.7660824 C18.4666678,19.0654969 17.9886622,19.0774735 17.6749604,18.8020121 L17.6366282,18.7660824 L13.9997822,15.129332 L10.3633718,18.7660824 C10.0514817,19.0779725 9.54580779,19.0779725 9.23391762,18.7660824 C8.93450307,18.4666678 8.92252648,17.9886622 9.19798788,17.6749604 L9.23391762,17.6366282 L12.8704985,13.9997822 L9.23391762,10.3633718 C8.92202746,10.0514817 8.92202746,9.54580779 9.23391762,9.23391762 C9.53333218,8.93450307 10.0113378,8.92252648 10.3250396,9.19798788 Z" id="路径"></path>
            </g>
        </g>
    </g>
</svg>