<?xml version="1.0" encoding="UTF-8"?>
<svg width="24.000000" height="24.000000" viewBox="0 0 24 24" fill="none" xmlns="http://www.w3.org/2000/svg" xmlns:xlink="http://www.w3.org/1999/xlink">
	<desc>
			Created with Pixso.
	</desc>
	<defs>
		<clipPath id="clip309_66391">
			<rect id="属性 1=关闭" width="24.000000" height="24.000000" fill="white" fill-opacity="0"/>
		</clipPath>
	</defs>
	<g clip-path="url(#clip309_66391)">
		<path id="矩形 107 (边框)" d="M7.28 6.21L17.78 16.71C18.07 17.01 18.07 17.48 17.78 17.78C17.48 18.07 17.01 18.07 16.71 17.78L6.21 7.28C5.92 6.98 5.92 6.51 6.21 6.21C6.51 5.92 6.98 5.92 7.28 6.21Z" fill="#000000" fill-opacity="0.898039" fill-rule="evenodd"/>
		<path id="矩形 108 (边框)" d="M16.71 6.21L6.21 16.71C5.92 17.01 5.92 17.48 6.21 17.78C6.51 18.07 6.98 18.07 7.28 17.78L17.78 7.28C18.07 6.98 18.07 6.51 17.78 6.21C17.48 5.92 17.01 5.92 16.71 6.21Z" fill="#000000" fill-opacity="0.898039" fill-rule="evenodd"/>
	</g>
</svg>