<?xml version="1.0" encoding="UTF-8"?>
<svg width="24.000000" height="24.000000" viewBox="0 0 24 24" fill="none" xmlns="http://www.w3.org/2000/svg" xmlns:xlink="http://www.w3.org/1999/xlink">
	<desc>
			Created with Pixso.
	</desc>
	<defs>
		<clipPath id="clip309_66386">
			<rect id="属性 1=最大化" width="24.000000" height="24.000000" fill="white" fill-opacity="0"/>
		</clipPath>
	</defs>
	<g clip-path="url(#clip309_66386)">
		<path id="矩形 110 (边框)" d="M5.25 7.33L5.25 10.8C5.25 11.22 5.57 11.55 6 11.55C6.42 11.55 6.75 11.22 6.75 10.8L6.75 7.33C6.75 7.25 6.76 7.17 6.79 7.1C6.82 7.04 6.86 6.97 6.92 6.92C6.97 6.86 7.04 6.82 7.1 6.79C7.17 6.76 7.25 6.75 7.33 6.75L10.8 6.75C11.22 6.75 11.55 6.42 11.55 6C11.55 5.57 11.22 5.25 10.8 5.25L7.33 5.25C7.18 5.25 7.03 5.26 6.89 5.29C6.76 5.32 6.64 5.36 6.52 5.41C6.4 5.46 6.28 5.52 6.18 5.59C6.06 5.67 5.95 5.76 5.86 5.86C5.76 5.95 5.67 6.06 5.59 6.18C5.52 6.28 5.46 6.4 5.41 6.52C5.36 6.64 5.32 6.76 5.29 6.89C5.26 7.03 5.25 7.18 5.25 7.33ZM18.75 13.2C18.75 12.78 18.42 12.45 18 12.45C17.58 12.45 17.25 12.78 17.25 13.2L17.25 16.66C17.25 16.74 17.23 16.82 17.2 16.89C17.17 16.95 17.13 17.02 17.07 17.07C17.02 17.13 16.95 17.17 16.89 17.2C16.82 17.23 16.74 17.25 16.66 17.25L13.2 17.25C12.78 17.25 12.45 17.58 12.45 18C12.45 18.42 12.78 18.75 13.2 18.75L16.66 18.75C16.81 18.75 16.96 18.73 17.1 18.7C17.23 18.67 17.35 18.63 17.47 18.58C17.72 18.48 17.94 18.33 18.13 18.13C18.33 17.94 18.48 17.72 18.58 17.47C18.69 17.21 18.75 16.94 18.75 16.66L18.75 13.2Z" fill="#000000" fill-opacity="0.898039" fill-rule="evenodd"/>
	</g>
</svg>
