<?xml version="1.0" encoding="UTF-8"?>
<svg width="24.000000" height="24.000000" viewBox="0 0 24 24" fill="none" xmlns="http://www.w3.org/2000/svg" xmlns:xlink="http://www.w3.org/1999/xlink">
	<desc>
			Created with Pixso.
	</desc>
	<defs>
		<clipPath id="clip309_66401">
			<rect id="属性 1=最大化还原" width="24.000000" height="24.000000" fill="white" fill-opacity="0"/>
		</clipPath>
	</defs>
	<g clip-path="url(#clip309_66401)">
		<path id="矩形 111 (边框)" d="M10.76 5.25C10.76 4.82 10.43 4.5 10.01 4.5C9.59 4.5 9.26 4.82 9.26 5.25L9.26 8.66C9.26 8.74 9.25 8.82 9.22 8.89C9.19 8.96 9.14 9.03 9.08 9.08C9.03 9.14 8.96 9.19 8.89 9.22C8.82 9.24 8.74 9.26 8.66 9.26L5.25 9.26C4.83 9.26 4.5 9.59 4.5 10.01C4.5 10.43 4.83 10.76 5.25 10.76L8.66 10.76C8.81 10.76 8.96 10.74 9.11 10.71C9.23 10.69 9.36 10.65 9.48 10.59C9.73 10.49 9.95 10.34 10.14 10.14C10.25 10.04 10.33 9.94 10.41 9.82C10.48 9.71 10.54 9.6 10.59 9.48C10.65 9.36 10.69 9.23 10.71 9.11C10.74 8.96 10.76 8.81 10.76 8.66L10.76 5.25ZM13.23 15.33L13.23 18.75C13.23 19.17 13.56 19.5 13.98 19.5C14.4 19.5 14.73 19.17 14.73 18.75L14.73 15.33C14.73 15.16 14.79 15.02 14.91 14.91C15.02 14.79 15.16 14.73 15.33 14.73L18.74 14.73C19.16 14.73 19.49 14.4 19.49 13.98C19.49 13.56 19.16 13.23 18.74 13.23L15.33 13.23C15.05 13.23 14.77 13.29 14.51 13.4C14.39 13.45 14.28 13.51 14.17 13.58C14.05 13.66 13.95 13.74 13.85 13.85C13.74 13.95 13.66 14.05 13.58 14.17C13.51 14.28 13.45 14.39 13.4 14.51C13.29 14.77 13.23 15.05 13.23 15.33Z" fill="#000000" fill-opacity="0.898039" fill-rule="evenodd"/>
	</g>
</svg>
