<?xml version="1.0" encoding="UTF-8"?>
<svg width="20px" height="20px" viewBox="0 0 20 20" version="1.1" xmlns="http://www.w3.org/2000/svg" xmlns:xlink="http://www.w3.org/1999/xlink">
    <title>enlarge</title>
    <g id="enlarge" stroke="none" stroke-width="1" fill="none" fill-rule="evenodd">
        <path d="M14.75,10 C15.1642136,10 15.5,10.3357864 15.5,10.75 L15.5,13.75 C15.5,14.7164983 14.7164983,15.5 13.75,15.5 L10.75,15.5 C10.3357864,15.5 10,15.1642136 10,14.75 C10,14.3357864 10.3357864,14 10.75,14 L13.75,14 C13.8880712,14 14,13.8880712 14,13.75 L14,10.75 C14,10.3357864 14.3357864,10 14.75,10 Z M9.75,5 C10.1642136,5 10.5,5.33578644 10.5,5.75 C10.5,6.16421356 10.1642136,6.5 9.75,6.5 L6.75,6.5 C6.6119288,6.5 6.5,6.6119288 6.5,6.75 L6.5,9.75 C6.5,10.1642136 6.16421356,10.5 5.75,10.5 C5.33578644,10.5 5,10.1642136 5,9.75 L5,6.75 C5,5.78350169 5.78350169,5 6.75,5 L9.75,5 Z" id="形状" fill="#000000" fill-rule="nonzero"></path>
    </g>
</svg>