<?xml version="1.0" encoding="UTF-8"?>
<svg width="20px" height="20px" viewBox="0 0 20 20" version="1.1" xmlns="http://www.w3.org/2000/svg" xmlns:xlink="http://www.w3.org/1999/xlink">
    <title>recover</title>
    <g id="shrink" stroke="none" stroke-width="1" fill="none" fill-rule="evenodd">
        <path d="M11.75,16.5 C11.3357864,16.5 11,16.1642136 11,15.75 L11,12.75 C11,11.7835017 11.7835017,11 12.75,11 L15.75,11 C16.1642136,11 16.5,11.3357864 16.5,11.75 C16.5,12.1642136 16.1642136,12.5 15.75,12.5 L12.75,12.5 C12.6119288,12.5 12.5,12.6119288 12.5,12.75 L12.5,15.75 C12.5,16.1642136 12.1642136,16.5 11.75,16.5 Z M4.75,9.5 C4.33578644,9.5 4,9.16421356 4,8.75 C4,8.33578644 4.33578644,8 4.75,8 L7.75,8 C7.88807119,8 8,7.88807119 8,7.75 L8,4.75 C8,4.33578644 8.33578644,4 8.75,4 C9.16421356,4 9.5,4.33578644 9.5,4.75 L9.5,7.75 C9.5,8.71649831 8.71649831,9.5 7.75,9.5 L4.75,9.5 Z" id="形状" fill="#000000" fill-rule="nonzero"></path>
    </g>
</svg>
