<?xml version="1.0" encoding="UTF-8"?>
<svg width="20px" height="20px" viewBox="0 0 20 20" version="1.1" xmlns="http://www.w3.org/2000/svg" xmlns:xlink="http://www.w3.org/1999/xlink">
    <title>close</title>
    <g id="close" stroke="none" stroke-width="1" fill="none" fill-rule="evenodd">
        <path d="M6.3250396,5.19798788 L6.3633718,5.23391762 L9.9997822,8.8704985 L13.6366282,5.23391762 C13.9485183,4.92202746 14.4541922,4.92202746 14.7660824,5.23391762 C15.0654969,5.53333218 15.0774735,6.0113378 14.8020121,6.3250396 L14.7660824,6.3633718 L11.129332,9.9997822 L14.7660824,13.6366282 C15.0779725,13.9485183 15.0779725,14.4541922 14.7660824,14.7660824 C14.4666678,15.0654969 13.9886622,15.0774735 13.6749604,14.8020121 L13.6366282,14.7660824 L9.9997822,11.129332 L6.3633718,14.7660824 C6.0514817,15.0779725 5.54580779,15.0779725 5.23391762,14.7660824 C4.93450307,14.4666678 4.92252648,13.9886622 5.19798788,13.6749604 L5.23391762,13.6366282 L8.8704985,9.9997822 L5.23391762,6.3633718 C4.92202746,6.0514817 4.92202746,5.54580779 5.23391762,5.23391762 C5.53333218,4.93450307 6.0113378,4.92252648 6.3250396,5.19798788 Z" id="路径" fill="#E84026" fill-rule="nonzero"></path>
    </g>
</svg>