<?xml version="1.0" encoding="UTF-8"?>
<svg width="28px" height="28px" viewBox="0 0 28 28" version="1.1" xmlns="http://www.w3.org/2000/svg" xmlns:xlink="http://www.w3.org/1999/xlink">
    <title>xhdpi/shrink</title>
    <g id="TMG结论 " stroke="none" stroke-width="1" fill="none" fill-rule="evenodd" fill-opacity="0.901960784">
        <g id="画板" fill="#000000" fill-rule="nonzero">
            <g id="group-0">
                <path d="M15.5,20.25 C15.0857864,20.25 14.75,19.9142136 14.75,19.5 L14.75,16.5 C14.75,15.5335017 15.5335017,14.75 16.5,14.75 L19.5,14.75 C19.9142136,14.75 20.25,15.0857864 20.25,15.5 C20.25,15.9142136 19.9142136,16.25 19.5,16.25 L16.5,16.25 C16.3619288,16.25 16.25,16.3619288 16.25,16.5 L16.25,19.5 C16.25,19.9142136 15.9142136,20.25 15.5,20.25 Z M8.5,13.25 C8.08578644,13.25 7.75,12.9142136 7.75,12.5 C7.75,12.0857864 8.08578644,11.75 8.5,11.75 L11.5,11.75 C11.6380712,11.75 11.75,11.6380712 11.75,11.5 L11.75,8.5 C11.75,8.08578644 12.0857864,7.75 12.5,7.75 C12.9142136,7.75 13.25,8.08578644 13.25,8.5 L13.25,11.5 C13.25,12.4664983 12.4664983,13.25 11.5,13.25 L8.5,13.25 Z" id="形状"></path>
            </g>
        </g>
    </g>
</svg>