<?xml version="1.0" encoding="UTF-8"?>
<svg width="24px" height="24px" viewBox="0 0 24 24" version="1.1" xmlns="http://www.w3.org/2000/svg" xmlns:xlink="http://www.w3.org/1999/xlink">
    <title>creat_dark</title>
    <g id="creat_dark" stroke="none" stroke-width="1" fill="none" fill-rule="evenodd" fill-opacity="0.9">
        <path d="M5.14286,1.005 C5.19619,1.01833 5.24952,1.075 5.30286,1.175 C5.39771,1.60031 5.54242,1.99964 5.73698,2.37299 C5.96633,2.8131 6.26496,3.2171 6.63286,3.585 C7.00076,3.9529 7.40476,4.25152 7.84486,4.48087 C8.21821,4.67544 8.61754,4.82015 9.04286,4.915 C9.10952,4.935 9.15619,4.97167 9.18286,5.025 C9.21619,5.07833 9.21619,5.135 9.18286,5.195 C9.15619,5.24833 9.10952,5.285 9.04286,5.305 C8.53396,5.40535 8.06552,5.57697 7.63753,5.81988 C7.26937,6.02884 6.93114,6.29055 6.62286,6.605 C6.31312,6.9178 6.05276,7.25881 5.84178,7.62804 C5.5941,8.06148 5.41446,8.5338 5.30286,9.045 C5.28286,9.11167 5.24952,9.15833 5.20286,9.185 C5.15619,9.21833 5.09952,9.225 5.03286,9.205 C4.97286,9.17833 4.92619,9.125 4.89286,9.045 C4.81772,8.65819 4.69844,8.29229 4.53503,7.94729 C4.30695,7.4658 3.99289,7.02504 3.59286,6.625 C3.22708,6.25567 2.82442,5.95823 2.38486,5.73267 C1.99925,5.53479 1.58525,5.39223 1.14286,5.305 C1.13517,5.305 1.12767,5.30419 1.12034,5.30256 C1.08319,5.2943 1.0507,5.26512 1.02286,5.215 C0.99619,5.16167 0.992857,5.10167 1.01286,5.035 C1.03952,4.975 1.08286,4.935 1.14286,4.915 C1.62427,4.8099 2.07206,4.6436 2.48623,4.4161 C2.88651,4.19623 3.25538,3.9192 3.59286,3.585 C3.98247,3.19917 4.29052,2.77364 4.51701,2.30841 C4.68971,1.95369 4.81499,1.57589 4.89286,1.175 C4.90619,1.12833 4.93619,1.085 4.98286,1.045 C5.03619,1.005 5.08952,0.991667 5.14286,1.005 Z M11.5827,15.115 C11.216,15.0817 10.906,14.9384 10.6527,14.685 L8.97267,13.005 C8.69934,12.7317 8.55934,12.405 8.55267,12.025 C8.54601,11.6384 8.66934,11.3017 8.92267,11.015 C9.40267,10.4884 10.126,9.71169 11.0927,8.68502 C12.0593,7.65836 12.816,6.89169 13.3627,6.38502 C14.0827,5.72502 14.966,4.98836 16.0127,4.17502 C17.0593,3.35502 18.0393,2.77169 18.9527,2.42502 C19.626,2.16502 20.1793,2.11502 20.6127,2.27502 C21.046,2.43502 21.3093,2.75169 21.4027,3.22502 C21.496,3.69836 21.4093,4.26169 21.1427,4.91502 C20.6293,6.11502 19.5493,7.64502 17.9027,9.50502 C17.0227,10.5117 16.0827,11.5017 15.0827,12.475 C14.0827,13.455 13.2627,14.215 12.6227,14.755 C12.3027,15.0284 11.956,15.1484 11.5827,15.115 Z M12.4227,9.46502 C11.596,10.3517 10.806,11.205 10.0527,12.025 L11.7027,13.625 C12.2627,13.145 13.0293,12.4217 14.0027,11.455 C14.9693,10.4884 15.8927,9.50836 16.7727,8.51502 C18.086,7.04169 19.0127,5.77836 19.5527,4.72502 C19.7793,4.31169 19.9127,4.03169 19.9527,3.88502 C19.9729,3.81068 19.9692,3.75861 19.9416,3.7288 C19.9146,3.6998 19.865,3.69187 19.7927,3.70502 C19.6527,3.73169 19.3827,3.84836 18.9827,4.05502 C18.3693,4.37502 17.6627,4.82169 16.8627,5.39502 C16.0627,5.97502 15.2327,6.67169 14.3727,7.48502 C13.906,7.91836 13.256,8.57836 12.4227,9.46502 Z M20.2229,13.545 C20.2562,13.5517 20.2829,13.5883 20.3029,13.655 C20.3613,13.904 20.448,14.1381 20.5631,14.3573 C20.6976,14.6135 20.8709,14.8494 21.0829,15.065 C21.4695,15.465 21.9362,15.7217 22.4829,15.835 C22.5295,15.835 22.5629,15.8517 22.5829,15.885 C22.5852,15.8909 22.5871,15.8969 22.5887,15.903 C22.5958,15.9314 22.5938,15.9621 22.5829,15.995 C22.5629,16.035 22.5295,16.055 22.4829,16.055 C21.9362,16.1683 21.4695,16.4183 21.0829,16.805 C20.6895,17.1983 20.4295,17.6683 20.3029,18.215 C20.3029,18.2617 20.2862,18.2917 20.2529,18.305 C20.2195,18.325 20.1862,18.325 20.1529,18.305 C20.1195,18.2917 20.0962,18.2617 20.0829,18.215 C19.9695,17.6883 19.7129,17.2283 19.3129,16.835 C18.9129,16.4417 18.4429,16.1817 17.9029,16.055 C17.8914,16.055 17.8807,16.053 17.8707,16.0491 C17.8519,16.0415 17.836,16.0268 17.8229,16.005 C17.809537,15.9717 17.8062,15.9383 17.8129,15.905 C17.8195,15.8783 17.8495,15.855 17.9029,15.835 C18.2532,15.7558 18.5697,15.6243 18.8522,15.4407 C19.0212,15.3308 19.1781,15.2022 19.3229,15.055 C19.7162,14.6617 19.9695,14.195 20.0829,13.655 C20.0962,13.6217 20.1162,13.5917 20.1429,13.565 C20.1695,13.545 20.1962,13.5383 20.2229,13.545 Z M7.42267,20.105 C6.86934,20.345 6.29601,20.465 5.70267,20.465 C4.77601,20.465 3.72267,20.115 2.54267,19.415 C2.36267,19.3017 2.24601,19.1684 2.19267,19.015 C2.13267,18.8617 2.12267,18.7117 2.16267,18.565 C2.20267,18.4117 2.27934,18.285 2.39267,18.185 C3.31934,17.4517 3.88934,16.725 4.10267,16.005 C4.19601,15.6184 4.326,15.295 4.49267,15.035 C4.65934,14.7684 4.88934,14.525 5.18267,14.305 C5.66267,13.985 6.16601,13.8117 6.69267,13.785 C7.21934,13.7584 7.70934,13.8617 8.16267,14.095 C8.62267,14.3284 8.99601,14.6617 9.28267,15.095 C9.49843,15.4037 9.64478,15.7281 9.72171,16.0682 C9.79928,16.4112 9.80627,16.7701 9.74267,17.145 C9.60934,17.8917 9.30267,18.545 8.82267,19.105 C8.44267,19.5317 7.97601,19.865 7.42267,20.105 Z M4.98267,17.685 C4.776,17.9717 4.49601,18.245 4.14267,18.505 L4.12267,18.525 C4.47601,18.7184 4.82934,18.845 5.18267,18.905 C5.64267,19.005 6.10267,18.9817 6.56267,18.835 C6.84634,18.7474 7.1013,18.6207 7.32754,18.4547 C7.46286,18.3555 7.5879,18.2423 7.70267,18.115 C8.02267,17.7817 8.20601,17.415 8.25267,17.015 C8.28165,16.7667 8.26179,16.5337 8.1931,16.3162 C8.15116,16.1834 8.09102,16.0563 8.01267,15.935 C7.80601,15.615 7.50267,15.405 7.10267,15.305 C6.66934,15.2117 6.31934,15.2784 6.05267,15.505 C5.79267,15.725 5.60601,16.075 5.49267,16.555 C5.366,17.0217 5.196,17.3984 4.98267,17.685 Z M15.2929,18.105 C15.3329,18.0983 15.3629,18.125 15.3829,18.185 C15.4629,18.5717 15.6429,18.905 15.9229,19.185 C16.2029,19.465 16.5329,19.645 16.9129,19.725 C16.9595,19.7383 16.9829,19.765 16.9829,19.805 C16.9829,19.8219 16.9787,19.8353 16.9703,19.8451 C16.9589,19.8584 16.9398,19.865 16.9129,19.865 C16.5329,19.945 16.2029,20.125 15.9229,20.405 C15.6429,20.685 15.4629,21.0183 15.3829,21.405 C15.3629,21.4517 15.3329,21.4783 15.2929,21.485 C15.2809,21.489 15.2701,21.4894 15.2605,21.4862 C15.2381,21.4787 15.2222,21.4517 15.2129,21.405 C15.1462,21.0383 14.9695,20.7117 14.6829,20.425 C14.3962,20.1317 14.0595,19.945 13.6729,19.865 C13.6395,19.865 13.6195,19.845 13.6129,19.805 C13.6062,19.765 13.6262,19.7383 13.6729,19.725 C14.0729,19.645 14.4129,19.465 14.6929,19.185 C14.9729,18.905 15.1462,18.5717 15.2129,18.185 C15.2216,18.1545 15.236,18.1325 15.2561,18.1191 C15.2668,18.112 15.279,18.1073 15.2929,18.105 Z" id="åˆå¹¶" fill="#FFFFFF"></path>
    </g>
</svg>