<?xml version="1.0" encoding="UTF-8"?>
<svg width="24px" height="24px" viewBox="0 0 24 24" version="1.1" xmlns="http://www.w3.org/2000/svg" xmlns:xlink="http://www.w3.org/1999/xlink">
    <title>delect</title>
    <g id="delect" stroke="none" stroke-width="1" fill="none" fill-rule="evenodd" fill-opacity="0.898039222">
        <path d="M16.442,16.048 C16.4053,16.1329 16.3511,16.2102 16.2795,16.28 C16.1693,16.4267 15.9972,16.5 15.7634,16.5 C15.5329,16.5 15.3524,16.4267 15.2221,16.28 L12,13.065 L8.77787,16.28 C8.75107,16.3146 8.72098,16.3452 8.6877,16.3716 C8.57979,16.4572 8.43775,16.5 8.2617,16.5 C8.08467,16.5 7.93835,16.458 7.82262,16.374 C7.78542,16.347 7.75141,16.3157 7.72046,16.28 C7.64889,16.2102 7.59469,16.1329 7.55799,16.048 C7.51933,15.9587 7.5,15.861 7.5,15.755 C7.5,15.545 7.57353,15.3683 7.72046,15.225 L10.234,12.7171 L10.9427,12.01 L10.234,11.3029 L7.72046,8.79504 C7.62442,8.69043 7.5597,8.57727 7.52643,8.45551 C7.50881,8.39111 7.5,8.32422 7.5,8.255 C7.5,8.16333 7.51542,8.07758 7.54637,7.9978 C7.58283,7.90356 7.64094,7.81763 7.72046,7.73999 C7.8006,7.65076 7.89064,7.58636 7.99059,7.54694 C8.06975,7.51562 8.15514,7.5 8.24666,7.5 C8.34477,7.5 8.43555,7.5174 8.51911,7.55212 C8.61491,7.59192 8.70116,7.6546 8.77787,7.73999 L11.2913,10.2479 L12,10.955 L12.7087,10.2479 L15.2221,7.73999 C15.3659,7.58002 15.5429,7.5 15.7533,7.5 C15.8449,7.5 15.9303,7.51562 16.0094,7.54694 C16.1094,7.58636 16.1994,7.65076 16.2795,7.73999 C16.3592,7.81763 16.4172,7.90356 16.4536,7.9978 C16.4846,8.07758 16.5,8.16333 16.5,8.255 C16.5,8.32428 16.4912,8.39111 16.4736,8.45551 C16.4403,8.57727 16.3757,8.69043 16.2795,8.79504 L13.0574,12.01 L16.2795,15.225 C16.4265,15.3683 16.5,15.545 16.5,15.755 C16.5,15.861 16.4807,15.9587 16.442,16.048 Z" id="矢量-843" fill="#000000"></path>
    </g>
</svg>