<?xml version="1.0" encoding="UTF-8"?>
<svg width="24px" height="24px" viewBox="0 0 24 24" version="1.1" xmlns="http://www.w3.org/2000/svg" xmlns:xlink="http://www.w3.org/1999/xlink">
    <title>download_light</title>
    <g id="download_light" stroke="none" stroke-width="1" fill="none" fill-rule="evenodd" fill-opacity="0.9">
        <path d="M12.748,2.74164 C12.748,2.33203 12.4122,2 11.998,2 C11.5837,2 11.248,2.33203 11.248,2.74164 L11.248,15.1966 L7.27979,11.2726 L7.24768,11.2426 C6.95312,10.9833 6.50159,10.9932 6.21912,11.2726 C5.92615,11.5622 5.92615,12.0318 6.21912,12.3214 L10.762,16.8137 L10.8053,16.8551 C11.4913,17.4892 12.5676,17.4754 13.2368,16.8137 L17.7798,12.3214 L17.8101,12.2897 C18.0723,11.9984 18.0621,11.5518 17.7798,11.2726 C17.4868,10.9829 17.012,10.9829 16.7191,11.2726 L12.748,15.1994 L12.748,2.74164 Z M21.9988,16.2704 C21.976,15.8811 21.6494,15.5723 21.25,15.5723 C20.8358,15.5723 20.5,15.9044 20.5,16.314 L20.5,18.0445 L20.499,18.1137 C20.462,19.447 19.3573,20.5167 18,20.5167 L6,20.5167 L5.93005,20.5157 C4.58167,20.4791 3.5,19.3867 3.5,18.0445 L3.5,16.314 L3.49878,16.2704 C3.47595,15.8811 3.14941,15.5723 2.75,15.5723 C2.33582,15.5723 2,15.9044 2,16.314 L2,18.0445 L2.00073,18.1223 C2.04272,20.2709 3.81714,21.9999 6,21.9999 L18,21.9999 L18.0787,21.9992 C20.2515,21.9577 22,20.203 22,18.0445 L22,16.314 L21.9988,16.2704 Z" id="矢量-856" fill="#000000"></path>
    </g>
</svg>