<svg viewBox="0 0 32 32" xmlns="http://www.w3.org/2000/svg" xmlns:xlink="http://www.w3.org/1999/xlink" width="32.000000" height="32.000000" fill="none">
	<defs>
		<filter id="pixso_custom_mask_type_alpha">
			<feColorMatrix type="matrix" values="0 0 0 0 1 0 0 0 0 1 0 0 0 0 1 0 0 0 1 0 " />
		</filter>
		<clipPath id="clipPath_15">
			<rect width="40.000244" height="40.000000" x="-4.000000" y="-4.000000" fill="rgb(255,255,255)" />
		</clipPath>
	</defs>
	<mask id="mask_15" width="20.000000" height="20.000000" x="6.000000" y="6.000000" maskUnits="userSpaceOnUse">
		<g filter="url(#pixso_custom_mask_type_alpha)">
			<rect id="矩形 542562" width="20.000000" height="20.000000" x="6.000000" y="6.000000" rx="10.000000" fill="rgb(196,196,196)" />
		</g>
	</mask>
	<rect id="icon/eraser_big_light" width="32.000000" height="32.000004" x="0.000000" y="0.000000" />
	<g id="组合 29573" mask="url(#mask_15)">
		<g id="容器 29537" customFrame="url(#clipPath_15)">
			<rect id="容器 29537" width="40.000244" height="40.000000" x="-4.000000" y="-4.000000" />
			<g id="组合 29567">
				<rect id="矩形 542471" width="5.000000" height="5.000000" x="-4.000000" y="-4.000000" fill="rgb(0,0,0)" fill-opacity="0.0980392173" />
				<rect id="矩形 542475" width="5.000000" height="5.000000" x="-4.000000" y="5.999756" fill="rgb(0,0,0)" fill-opacity="0.0980392173" />
				<rect id="矩形 542473" width="5.000000" height="5.000000" x="1.000122" y="0.999756" fill="rgb(0,0,0)" fill-opacity="0.0980392173" />
				<rect id="矩形 542477" width="5.000000" height="5.000000" x="1.000000" y="11.000000" fill="rgb(0,0,0)" fill-opacity="0.0980392173" />
				<rect id="矩形 542472" width="5.000000" height="5.000000" x="6.000122" y="-4.000000" fill="rgb(0,0,0)" fill-opacity="0.0980392173" />
				<rect id="矩形 542476" width="5.000000" height="5.000000" x="6.000122" y="5.999756" fill="rgb(0,0,0)" fill-opacity="0.0980392173" />
				<rect id="矩形 542474" width="5.000000" height="5.000000" x="11.000000" y="1.000000" fill="rgb(0,0,0)" fill-opacity="0.0980392173" />
				<rect id="矩形 542478" width="4.999998" height="4.999999" x="11.000122" y="11.000000" fill="rgb(0,0,0)" fill-opacity="0.0980392173" />
			</g>
			<g id="组合 29568">
				<rect id="矩形 542471" width="5.000000" height="5.000000" x="16.000122" y="-4.000000" fill="rgb(0,0,0)" fill-opacity="0.0980392173" />
				<rect id="矩形 542475" width="5.000000" height="5.000000" x="16.000122" y="5.999756" fill="rgb(0,0,0)" fill-opacity="0.0980392173" />
				<rect id="矩形 542473" width="5.000000" height="5.000000" x="21.000244" y="0.999756" fill="rgb(0,0,0)" fill-opacity="0.0980392173" />
				<rect id="矩形 542477" width="5.000000" height="5.000000" x="21.000122" y="11.000000" fill="rgb(0,0,0)" fill-opacity="0.0980392173" />
				<rect id="矩形 542472" width="5.000000" height="5.000000" x="26.000244" y="-4.000000" fill="rgb(0,0,0)" fill-opacity="0.0980392173" />
				<rect id="矩形 542476" width="5.000000" height="5.000000" x="26.000244" y="5.999756" fill="rgb(0,0,0)" fill-opacity="0.0980392173" />
				<rect id="矩形 542474" width="5.000000" height="5.000000" x="31.000122" y="1.000000" fill="rgb(0,0,0)" fill-opacity="0.0980392173" />
				<rect id="矩形 542478" width="4.999998" height="4.999999" x="31.000244" y="11.000000" fill="rgb(0,0,0)" fill-opacity="0.0980392173" />
			</g>
			<g id="组合 29569">
				<rect id="矩形 542471" width="5.000000" height="5.000000" x="-4.000000" y="16.000000" fill="rgb(0,0,0)" fill-opacity="0.0980392173" />
				<rect id="矩形 542475" width="5.000000" height="5.000000" x="-4.000000" y="25.999756" fill="rgb(0,0,0)" fill-opacity="0.0980392173" />
				<rect id="矩形 542473" width="5.000000" height="5.000000" x="1.000122" y="20.999756" fill="rgb(0,0,0)" fill-opacity="0.0980392173" />
				<rect id="矩形 542477" width="5.000000" height="5.000000" x="1.000000" y="31.000000" fill="rgb(0,0,0)" fill-opacity="0.0980392173" />
				<rect id="矩形 542472" width="5.000000" height="5.000000" x="6.000122" y="16.000000" fill="rgb(0,0,0)" fill-opacity="0.0980392173" />
				<rect id="矩形 542476" width="5.000000" height="5.000000" x="6.000122" y="25.999756" fill="rgb(0,0,0)" fill-opacity="0.0980392173" />
				<rect id="矩形 542474" width="5.000000" height="5.000000" x="11.000000" y="21.000000" fill="rgb(0,0,0)" fill-opacity="0.0980392173" />
				<rect id="矩形 542478" width="4.999998" height="4.999999" x="11.000122" y="31.000000" fill="rgb(0,0,0)" fill-opacity="0.0980392173" />
			</g>
			<g id="组合 29570">
				<rect id="矩形 542471" width="5.000000" height="5.000000" x="16.000122" y="16.000000" fill="rgb(0,0,0)" fill-opacity="0.0980392173" />
				<rect id="矩形 542475" width="5.000000" height="5.000000" x="16.000122" y="25.999756" fill="rgb(0,0,0)" fill-opacity="0.0980392173" />
				<rect id="矩形 542473" width="5.000000" height="5.000000" x="21.000244" y="20.999756" fill="rgb(0,0,0)" fill-opacity="0.0980392173" />
				<rect id="矩形 542477" width="5.000000" height="5.000000" x="21.000122" y="31.000000" fill="rgb(0,0,0)" fill-opacity="0.0980392173" />
				<rect id="矩形 542472" width="5.000000" height="5.000000" x="26.000244" y="16.000000" fill="rgb(0,0,0)" fill-opacity="0.0980392173" />
				<rect id="矩形 542476" width="5.000000" height="5.000000" x="26.000244" y="25.999756" fill="rgb(0,0,0)" fill-opacity="0.0980392173" />
				<rect id="矩形 542474" width="5.000000" height="5.000000" x="31.000122" y="21.000000" fill="rgb(0,0,0)" fill-opacity="0.0980392173" />
				<rect id="矩形 542478" width="4.999998" height="4.999999" x="31.000244" y="31.000000" fill="rgb(0,0,0)" fill-opacity="0.0980392173" />
			</g>
		</g>
	</g>
	<path id="矢量 872" d="M16 4C22.6274 4 28 9.37256 28 16C28 22.6274 22.6274 28 16 28C9.37258 28 4 22.6274 4 16C4 9.37256 9.37258 4 16 4ZM16 6C15.234 6 14.4871 6.0835 13.7593 6.25L13.7593 6.25C13.1976 6.37891 12.6472 6.55713 12.1082 6.78516C11.5543 7.01904 11.0298 7.29834 10.5344 7.62207L10.5344 7.62207C9.95992 7.99756 9.42476 8.43311 8.92893 8.92871C8.43311 9.4248 7.99746 9.95996 7.622 10.5342L7.62199 10.5347C7.29826 11.0298 7.01927 11.5542 6.78503 12.1084C6.55704 12.647 6.37872 13.1978 6.25005 13.7593C6.08335 14.4873 6 15.2339 6 16C6 16.7661 6.08335 17.5127 6.25006 18.2407L6.25007 18.2407C6.37873 18.8022 6.55705 19.353 6.78503 19.8916C7.01927 20.4458 7.29826 20.9702 7.62198 21.4653L7.62201 21.4658C7.99747 22.04 8.43311 22.5752 8.92893 23.0713C9.42477 23.5669 9.95993 24.0024 10.5344 24.3779C11.0298 24.7017 11.5544 24.981 12.1082 25.2148C12.6472 25.4429 13.1975 25.6211 13.7593 25.75L13.7593 25.75C14.4871 25.9165 15.234 26 16 26C16.766 26 17.5129 25.9165 18.2407 25.75C18.8024 25.6211 19.3528 25.4429 19.8918 25.2148C20.4457 24.981 20.9702 24.7017 21.4656 24.3779C22.0401 24.0024 22.5752 23.5669 23.0711 23.0713C23.5669 22.5752 24.0025 22.04 24.3779 21.4658C24.7017 20.9702 24.9807 20.4458 25.215 19.8916C25.443 19.353 25.6213 18.8022 25.75 18.2407C25.9166 17.5127 26 16.7661 26 16C26 15.2339 25.9166 14.4873 25.75 13.7593C25.6213 13.1978 25.443 12.647 25.215 12.1084C24.9807 11.5542 24.7017 11.0298 24.3779 10.5342C24.0025 9.95996 23.5669 9.4248 23.0711 8.92871C22.5753 8.43311 22.0401 7.99756 21.4657 7.62207L21.4656 7.62207C20.9703 7.29834 20.4457 7.01904 19.8918 6.78516C19.3528 6.55713 18.8024 6.37891 18.2407 6.25L18.2406 6.25C17.5128 6.0835 16.766 6 16 6Z" fill="rgb(0,0,0)" fill-opacity="0.200000003" fill-rule="evenodd" />
</svg>
