<svg viewBox="0 0 32 32" xmlns="http://www.w3.org/2000/svg" xmlns:xlink="http://www.w3.org/1999/xlink" width="32.000000" height="32.000000" fill="none">
	<defs>
		<filter id="pixso_custom_mask_type_alpha">
			<feColorMatrix type="matrix" values="0 0 0 0 1 0 0 0 0 1 0 0 0 0 1 0 0 0 1 0 " />
		</filter>
		<clipPath id="clipPath_23">
			<rect width="40.000244" height="40.000000" x="-4.000000" y="-4.000000" fill="rgb(255,255,255)" />
		</clipPath>
	</defs>
	<mask id="mask_23" width="6.000000" height="6.000000" x="13.000000" y="13.000000" maskUnits="userSpaceOnUse">
		<g filter="url(#pixso_custom_mask_type_alpha)">
			<rect id="矩形 542560" width="6.000000" height="6.000000" x="13.000000" y="13.000000" rx="3.000000" fill="rgb(196,196,196)" />
		</g>
	</mask>
	<rect id="icon/eraser_small_light" width="32.000000" height="32.000004" x="0.000000" y="0.000000" />
	<g id="组合 29571" mask="url(#mask_23)">
		<g id="容器 29537" customFrame="url(#clipPath_23)">
			<rect id="容器 29537" width="40.000244" height="40.000000" x="-4.000000" y="-4.000000" />
			<g id="组合 29567">
				<rect id="矩形 542471" width="5.000000" height="5.000000" x="-4.000000" y="-4.000000" fill="rgb(0,0,0)" fill-opacity="0.0980392173" />
				<rect id="矩形 542475" width="5.000000" height="5.000000" x="-4.000000" y="5.999756" fill="rgb(0,0,0)" fill-opacity="0.0980392173" />
				<rect id="矩形 542473" width="5.000000" height="5.000000" x="1.000122" y="0.999756" fill="rgb(0,0,0)" fill-opacity="0.0980392173" />
				<rect id="矩形 542477" width="5.000000" height="5.000000" x="1.000000" y="11.000000" fill="rgb(0,0,0)" fill-opacity="0.0980392173" />
				<rect id="矩形 542472" width="5.000000" height="5.000000" x="6.000122" y="-4.000000" fill="rgb(0,0,0)" fill-opacity="0.0980392173" />
				<rect id="矩形 542476" width="5.000000" height="5.000000" x="6.000122" y="5.999756" fill="rgb(0,0,0)" fill-opacity="0.0980392173" />
				<rect id="矩形 542474" width="5.000000" height="5.000000" x="11.000000" y="1.000000" fill="rgb(0,0,0)" fill-opacity="0.0980392173" />
				<rect id="矩形 542478" width="4.999998" height="4.999999" x="11.000122" y="11.000000" fill="rgb(0,0,0)" fill-opacity="0.0980392173" />
			</g>
			<g id="组合 29568">
				<rect id="矩形 542471" width="5.000000" height="5.000000" x="16.000122" y="-4.000000" fill="rgb(0,0,0)" fill-opacity="0.0980392173" />
				<rect id="矩形 542475" width="5.000000" height="5.000000" x="16.000122" y="5.999756" fill="rgb(0,0,0)" fill-opacity="0.0980392173" />
				<rect id="矩形 542473" width="5.000000" height="5.000000" x="21.000244" y="0.999756" fill="rgb(0,0,0)" fill-opacity="0.0980392173" />
				<rect id="矩形 542477" width="5.000000" height="5.000000" x="21.000122" y="11.000000" fill="rgb(0,0,0)" fill-opacity="0.0980392173" />
				<rect id="矩形 542472" width="5.000000" height="5.000000" x="26.000244" y="-4.000000" fill="rgb(0,0,0)" fill-opacity="0.0980392173" />
				<rect id="矩形 542476" width="5.000000" height="5.000000" x="26.000244" y="5.999756" fill="rgb(0,0,0)" fill-opacity="0.0980392173" />
				<rect id="矩形 542474" width="5.000000" height="5.000000" x="31.000122" y="1.000000" fill="rgb(0,0,0)" fill-opacity="0.0980392173" />
				<rect id="矩形 542478" width="4.999998" height="4.999999" x="31.000244" y="11.000000" fill="rgb(0,0,0)" fill-opacity="0.0980392173" />
			</g>
			<g id="组合 29569">
				<rect id="矩形 542471" width="5.000000" height="5.000000" x="-4.000000" y="16.000000" fill="rgb(0,0,0)" fill-opacity="0.0980392173" />
				<rect id="矩形 542475" width="5.000000" height="5.000000" x="-4.000000" y="25.999756" fill="rgb(0,0,0)" fill-opacity="0.0980392173" />
				<rect id="矩形 542473" width="5.000000" height="5.000000" x="1.000122" y="20.999756" fill="rgb(0,0,0)" fill-opacity="0.0980392173" />
				<rect id="矩形 542477" width="5.000000" height="5.000000" x="1.000000" y="31.000000" fill="rgb(0,0,0)" fill-opacity="0.0980392173" />
				<rect id="矩形 542472" width="5.000000" height="5.000000" x="6.000122" y="16.000000" fill="rgb(0,0,0)" fill-opacity="0.0980392173" />
				<rect id="矩形 542476" width="5.000000" height="5.000000" x="6.000122" y="25.999756" fill="rgb(0,0,0)" fill-opacity="0.0980392173" />
				<rect id="矩形 542474" width="5.000000" height="5.000000" x="11.000000" y="21.000000" fill="rgb(0,0,0)" fill-opacity="0.0980392173" />
				<rect id="矩形 542478" width="4.999998" height="4.999999" x="11.000122" y="31.000000" fill="rgb(0,0,0)" fill-opacity="0.0980392173" />
			</g>
			<g id="组合 29570">
				<rect id="矩形 542471" width="5.000000" height="5.000000" x="16.000122" y="16.000000" fill="rgb(0,0,0)" fill-opacity="0.0980392173" />
				<rect id="矩形 542475" width="5.000000" height="5.000000" x="16.000122" y="25.999756" fill="rgb(0,0,0)" fill-opacity="0.0980392173" />
				<rect id="矩形 542473" width="5.000000" height="5.000000" x="21.000244" y="20.999756" fill="rgb(0,0,0)" fill-opacity="0.0980392173" />
				<rect id="矩形 542477" width="5.000000" height="5.000000" x="21.000122" y="31.000000" fill="rgb(0,0,0)" fill-opacity="0.0980392173" />
				<rect id="矩形 542472" width="5.000000" height="5.000000" x="26.000244" y="16.000000" fill="rgb(0,0,0)" fill-opacity="0.0980392173" />
				<rect id="矩形 542476" width="5.000000" height="5.000000" x="26.000244" y="25.999756" fill="rgb(0,0,0)" fill-opacity="0.0980392173" />
				<rect id="矩形 542474" width="5.000000" height="5.000000" x="31.000122" y="21.000000" fill="rgb(0,0,0)" fill-opacity="0.0980392173" />
				<rect id="矩形 542478" width="4.999998" height="4.999999" x="31.000244" y="31.000000" fill="rgb(0,0,0)" fill-opacity="0.0980392173" />
			</g>
		</g>
	</g>
	<g id="组合 29551">
		<path id="矢量 870" d="M16 11C18.7614 11 21 13.2388 21 16C21 18.7612 18.7614 21 16 21C13.2386 21 11 18.7612 11 16C11 13.2388 13.2386 11 16 11ZM16 13C15.7597 13 15.5258 13.0273 15.2985 13.0815L15.2985 13.0815C15.1401 13.1196 14.9849 13.1704 14.8329 13.2349C14.672 13.3032 14.5192 13.3838 14.3746 13.4771L14.3746 13.4771C14.197 13.5918 14.0316 13.7256 13.8787 13.8789C13.7257 14.0317 13.5918 14.1968 13.4771 14.3745L13.4771 14.3745C13.3837 14.519 13.303 14.6719 13.2349 14.833C13.1706 14.9849 13.1195 15.1401 13.0816 15.2983C13.0272 15.5259 13 15.7598 13 16C13 16.2402 13.0272 16.4741 13.0816 16.7017L13.0816 16.7017C13.1195 16.8599 13.1706 17.0151 13.2349 17.167C13.303 17.3281 13.3837 17.481 13.4771 17.6255L13.4771 17.6255C13.5919 17.8032 13.7257 17.9683 13.8787 18.1211C14.0317 18.2744 14.197 18.4082 14.3747 18.5229L14.3747 18.5229C14.5192 18.6162 14.672 18.6968 14.8329 18.7651C14.9849 18.8296 15.1401 18.8804 15.2985 18.9185C15.5258 18.9727 15.7597 19 16 19C16.2404 19 16.4742 18.9727 16.7015 18.9185L16.7015 18.9185C16.8599 18.8804 17.0151 18.8296 17.1671 18.7651C17.328 18.6968 17.4808 18.6162 17.6254 18.5229C17.803 18.4082 17.9684 18.2744 18.1213 18.1211C18.2743 17.9683 18.4082 17.8032 18.5229 17.6255L18.5229 17.6255C18.6163 17.481 18.697 17.3281 18.7651 17.167C18.8294 17.0151 18.8805 16.8599 18.9184 16.7017C18.9728 16.4741 19 16.2402 19 16C19 15.7598 18.9728 15.5259 18.9184 15.2983L18.9184 15.2983C18.8805 15.1401 18.8294 14.9849 18.7651 14.833C18.697 14.6719 18.6163 14.519 18.5229 14.3745L18.5229 14.3745C18.4082 14.1968 18.2743 14.0317 18.1213 13.8789C17.9683 13.7256 17.803 13.5918 17.6254 13.4771L17.6253 13.4771C17.4808 13.3838 17.328 13.3032 17.1671 13.2349C17.0151 13.1704 16.8599 13.1196 16.7015 13.0815L16.7015 13.0815C16.4742 13.0273 16.2403 13 16 13Z" fill="rgb(0,0,0)" fill-opacity="0.200000003" fill-rule="evenodd" />
	</g>
</svg>
