<svg viewBox="0 0 32 32" xmlns="http://www.w3.org/2000/svg" xmlns:xlink="http://www.w3.org/1999/xlink" width="32.000000" height="32.000000" fill="none">
	<defs>
		<filter id="pixso_custom_mask_type_alpha">
			<feColorMatrix type="matrix" values="0 0 0 0 1 0 0 0 0 1 0 0 0 0 1 0 0 0 1 0 " />
		</filter>
		<clipPath id="clipPath_19">
			<rect width="40.000244" height="40.000000" x="-4.000000" y="-4.000000" fill="rgb(255,255,255)" />
		</clipPath>
	</defs>
	<mask id="mask_19" width="10.000000" height="10.000000" x="11.000000" y="11.000000" maskUnits="userSpaceOnUse">
		<g filter="url(#pixso_custom_mask_type_alpha)">
			<rect id="矩形 542561" width="10.000000" height="10.000000" x="11.000000" y="11.000000" rx="5.000000" fill="rgb(196,196,196)" />
		</g>
	</mask>
	<rect id="icon/eraser_medium_light" width="32.000000" height="32.000004" x="0.000000" y="0.000000" />
	<g id="组合 29572" mask="url(#mask_19)">
		<g id="容器 29537" customFrame="url(#clipPath_19)">
			<rect id="容器 29537" width="40.000244" height="40.000000" x="-4.000000" y="-4.000000" />
			<g id="组合 29567">
				<rect id="矩形 542471" width="5.000000" height="5.000000" x="-4.000000" y="-4.000000" fill="rgb(0,0,0)" fill-opacity="0.0980392173" />
				<rect id="矩形 542475" width="5.000000" height="5.000000" x="-4.000000" y="5.999756" fill="rgb(0,0,0)" fill-opacity="0.0980392173" />
				<rect id="矩形 542473" width="5.000000" height="5.000000" x="1.000122" y="0.999756" fill="rgb(0,0,0)" fill-opacity="0.0980392173" />
				<rect id="矩形 542477" width="5.000000" height="5.000000" x="1.000000" y="11.000000" fill="rgb(0,0,0)" fill-opacity="0.0980392173" />
				<rect id="矩形 542472" width="5.000000" height="5.000000" x="6.000122" y="-4.000000" fill="rgb(0,0,0)" fill-opacity="0.0980392173" />
				<rect id="矩形 542476" width="5.000000" height="5.000000" x="6.000122" y="5.999756" fill="rgb(0,0,0)" fill-opacity="0.0980392173" />
				<rect id="矩形 542474" width="5.000000" height="5.000000" x="11.000000" y="1.000000" fill="rgb(0,0,0)" fill-opacity="0.0980392173" />
				<rect id="矩形 542478" width="4.999998" height="4.999999" x="11.000122" y="11.000000" fill="rgb(0,0,0)" fill-opacity="0.0980392173" />
			</g>
			<g id="组合 29568">
				<rect id="矩形 542471" width="5.000000" height="5.000000" x="16.000122" y="-4.000000" fill="rgb(0,0,0)" fill-opacity="0.0980392173" />
				<rect id="矩形 542475" width="5.000000" height="5.000000" x="16.000122" y="5.999756" fill="rgb(0,0,0)" fill-opacity="0.0980392173" />
				<rect id="矩形 542473" width="5.000000" height="5.000000" x="21.000244" y="0.999756" fill="rgb(0,0,0)" fill-opacity="0.0980392173" />
				<rect id="矩形 542477" width="5.000000" height="5.000000" x="21.000122" y="11.000000" fill="rgb(0,0,0)" fill-opacity="0.0980392173" />
				<rect id="矩形 542472" width="5.000000" height="5.000000" x="26.000244" y="-4.000000" fill="rgb(0,0,0)" fill-opacity="0.0980392173" />
				<rect id="矩形 542476" width="5.000000" height="5.000000" x="26.000244" y="5.999756" fill="rgb(0,0,0)" fill-opacity="0.0980392173" />
				<rect id="矩形 542474" width="5.000000" height="5.000000" x="31.000122" y="1.000000" fill="rgb(0,0,0)" fill-opacity="0.0980392173" />
				<rect id="矩形 542478" width="4.999998" height="4.999999" x="31.000244" y="11.000000" fill="rgb(0,0,0)" fill-opacity="0.0980392173" />
			</g>
			<g id="组合 29569">
				<rect id="矩形 542471" width="5.000000" height="5.000000" x="-4.000000" y="16.000000" fill="rgb(0,0,0)" fill-opacity="0.0980392173" />
				<rect id="矩形 542475" width="5.000000" height="5.000000" x="-4.000000" y="25.999756" fill="rgb(0,0,0)" fill-opacity="0.0980392173" />
				<rect id="矩形 542473" width="5.000000" height="5.000000" x="1.000122" y="20.999756" fill="rgb(0,0,0)" fill-opacity="0.0980392173" />
				<rect id="矩形 542477" width="5.000000" height="5.000000" x="1.000000" y="31.000000" fill="rgb(0,0,0)" fill-opacity="0.0980392173" />
				<rect id="矩形 542472" width="5.000000" height="5.000000" x="6.000122" y="16.000000" fill="rgb(0,0,0)" fill-opacity="0.0980392173" />
				<rect id="矩形 542476" width="5.000000" height="5.000000" x="6.000122" y="25.999756" fill="rgb(0,0,0)" fill-opacity="0.0980392173" />
				<rect id="矩形 542474" width="5.000000" height="5.000000" x="11.000000" y="21.000000" fill="rgb(0,0,0)" fill-opacity="0.0980392173" />
				<rect id="矩形 542478" width="4.999998" height="4.999999" x="11.000122" y="31.000000" fill="rgb(0,0,0)" fill-opacity="0.0980392173" />
			</g>
			<g id="组合 29570">
				<rect id="矩形 542471" width="5.000000" height="5.000000" x="16.000122" y="16.000000" fill="rgb(0,0,0)" fill-opacity="0.0980392173" />
				<rect id="矩形 542475" width="5.000000" height="5.000000" x="16.000122" y="25.999756" fill="rgb(0,0,0)" fill-opacity="0.0980392173" />
				<rect id="矩形 542473" width="5.000000" height="5.000000" x="21.000244" y="20.999756" fill="rgb(0,0,0)" fill-opacity="0.0980392173" />
				<rect id="矩形 542477" width="5.000000" height="5.000000" x="21.000122" y="31.000000" fill="rgb(0,0,0)" fill-opacity="0.0980392173" />
				<rect id="矩形 542472" width="5.000000" height="5.000000" x="26.000244" y="16.000000" fill="rgb(0,0,0)" fill-opacity="0.0980392173" />
				<rect id="矩形 542476" width="5.000000" height="5.000000" x="26.000244" y="25.999756" fill="rgb(0,0,0)" fill-opacity="0.0980392173" />
				<rect id="矩形 542474" width="5.000000" height="5.000000" x="31.000122" y="21.000000" fill="rgb(0,0,0)" fill-opacity="0.0980392173" />
				<rect id="矩形 542478" width="4.999998" height="4.999999" x="31.000244" y="31.000000" fill="rgb(0,0,0)" fill-opacity="0.0980392173" />
			</g>
		</g>
	</g>
	<path id="矢量 871" d="M16 9C19.866 9 23 12.1338 23 16C23 19.8662 19.866 23 16 23C12.134 23 9 19.8662 9 16C9 12.1338 12.134 9 16 9ZM16 11C15.6095 11 15.2291 11.0435 14.8587 11.1299C14.5851 11.1934 14.317 11.2812 14.0544 11.3921C13.7812 11.5078 13.5222 11.645 13.2775 11.8042C12.9864 11.9937 12.7154 12.2134 12.4645 12.4644C12.2135 12.7153 11.9934 12.9863 11.8042 13.2773C11.645 13.5225 11.5076 13.7812 11.3921 14.0542C11.281 14.3169 11.1936 14.585 11.1297 14.8589L11.1297 14.8589L11.1297 14.8589C11.0432 15.229 11 15.6094 11 16C11 16.3906 11.0432 16.771 11.1297 17.1411L11.1297 17.1411C11.1936 17.415 11.281 17.6831 11.3921 17.9458C11.5077 18.2188 11.645 18.478 11.8042 18.7227L11.8042 18.7227C11.9935 19.0137 12.2135 19.2847 12.4645 19.5356C12.7154 19.7866 12.9864 20.0063 13.2775 20.1958C13.5223 20.355 13.7812 20.4922 14.0544 20.6079C14.317 20.7188 14.585 20.8066 14.8586 20.8701L14.8587 20.8701C15.229 20.9565 15.6095 21 16 21C16.3905 21 16.771 20.9565 17.1413 20.8701L17.1414 20.8701C17.415 20.8066 17.683 20.7188 17.9456 20.6079C18.2188 20.4922 18.4777 20.355 18.7225 20.1958L18.7226 20.1958C19.0136 20.0063 19.2846 19.7866 19.5355 19.5356C19.7865 19.2847 20.0066 19.0137 20.1958 18.7227C20.355 18.4775 20.4924 18.2188 20.6079 17.9458C20.719 17.6831 20.8064 17.415 20.8703 17.1416L20.8703 17.1411C20.9568 16.771 21 16.3906 21 16C21 15.6094 20.9568 15.229 20.8703 14.8589L20.8703 14.8584C20.8064 14.585 20.719 14.3169 20.6079 14.0542C20.4924 13.7812 20.355 13.5225 20.1958 13.2773L20.1958 13.2773C20.0066 12.9863 19.7865 12.7153 19.5355 12.4644C19.2846 12.2134 19.0136 11.9937 18.7226 11.8042L18.7226 11.8042C18.4778 11.645 18.2188 11.5078 17.9456 11.3921C17.683 11.2812 17.4149 11.1934 17.1413 11.1299C16.771 11.0435 16.3905 11 16 11Z" fill="rgb(0,0,0)" fill-opacity="0.200000003" fill-rule="evenodd" />
</svg>
