<svg viewBox="0 0 24 24" xmlns="http://www.w3.org/2000/svg" xmlns:xlink="http://www.w3.org/1999/xlink" width="24.000000" height="24.000000" fill="none">
	<rect id="icon/ballpointpen_tip_crop_circle" width="24.000000" height="24.000000" x="0.000000" y="0.000000" />
	<rect id="矩形 542483" width="24.000000" height="24.000000" x="0.000000" y="0.000000" opacity="0" />
	<g id="组合 29494">
		<path id="矢量 44" d="M8.81018 1.459C9.82347 1.153 10.8828 1 11.9883 1C13.1835 1 14.3215 1.17608 15.4023 1.52823C16.1294 1.76514 16.8306 2.08173 17.5059 2.47801C18.3139 2.95032 19.0424 3.50414 19.6913 4.13947C20.3908 4.82428 20.9977 5.6038 21.5122 6.47801C21.9196 7.16847 22.2432 7.88598 22.4833 8.63052C22.8278 9.69898 23 10.8231 23 12.0029C23 13.0896 22.851 14.1317 22.5529 15.1291C22.3073 15.9512 21.9604 16.743 21.5122 17.5044C21.0259 18.3288 20.456 19.0701 19.8025 19.7281C19.1234 20.412 18.3539 21.0061 17.4941 21.5103C16.7338 21.9579 15.9433 22.3047 15.1226 22.5506C14.1226 22.8502 13.0778 23 11.9883 23C11.0511 23 10.1431 22.8865 9.26438 22.6594C8.32721 22.4172 7.42332 22.0459 6.55272 21.5455C5.75994 21.0916 5.0422 20.5587 4.39948 19.9468C3.67461 19.2566 3.04517 18.466 2.51118 17.5748C2.13521 16.9473 1.82939 16.2954 1.59373 15.6189C1.19791 14.4827 1 13.2774 1 12.0029C1 10.896 1.1528 9.83523 1.45839 8.82059C1.70117 8.01452 2.04039 7.23757 2.47604 6.48974C2.97832 5.62553 3.57217 4.85404 4.25759 4.17525C4.91498 3.52422 5.65659 2.95847 6.48243 2.47801C7.22926 2.04177 8.00518 1.7021 8.81018 1.459ZM2.89115 9.23873C2.62222 10.1189 2.48775 11.0403 2.48775 12.0029C2.48775 13.0342 2.64 14.0155 2.9445 14.9469C3.15493 15.5906 3.43808 16.2104 3.79393 16.8065C4.23696 17.5465 4.7568 18.2076 5.35347 18.7897C5.92956 19.3518 6.57727 19.8403 7.29659 20.2551C7.30799 20.2617 7.3193 20.2681 7.33054 20.2745L8.09904 15.9619L11.0277 6.28446C11.0568 6.19188 11.0972 6.10682 11.1488 6.02927C11.2149 5.92996 11.2995 5.84298 11.4026 5.76833C11.5398 5.66599 11.6836 5.60191 11.8339 5.5761C11.8846 5.5674 11.9361 5.56305 11.9883 5.56305C12.0995 5.56305 12.2049 5.58013 12.3044 5.61429C12.404 5.64851 12.4978 5.69985 12.5857 5.76833C12.6431 5.81173 12.6946 5.86013 12.7403 5.91354C12.8347 6.02371 12.9042 6.15517 12.9489 6.30792L15.7077 16.0381L16.5281 20.3411C16.5378 20.3359 16.5474 20.3307 16.557 20.3255C17.1466 20.0059 17.6913 19.6334 18.191 19.2079C18.9323 18.5767 19.5747 17.829 20.1182 16.9648C20.3436 16.607 20.5411 16.2369 20.7109 15.8544C21.2295 14.686 21.4888 13.4022 21.4888 12.0029C21.4888 11.0403 21.3544 10.1189 21.0854 9.23873C20.8748 8.54933 20.5817 7.8852 20.2061 7.24633C19.7785 6.51711 19.2757 5.86315 18.6978 5.28446C18.1199 4.70577 17.4668 4.20235 16.7386 3.77419C16.0766 3.38504 15.3885 3.08432 14.6742 2.87202C13.8167 2.61716 12.9214 2.48974 11.9883 2.48974C11.0552 2.48974 10.1599 2.61716 9.30239 2.87202C8.58806 3.08432 7.89993 3.38504 7.23802 3.77419C6.50976 4.20235 5.85667 4.70577 5.27875 5.28446C4.70083 5.86315 4.19808 6.51711 3.7705 7.24633C3.3949 7.8852 3.10178 8.54933 2.89115 9.23873ZM15.1116 20.9733C15.1003 20.9314 15.09 20.8875 15.0809 20.8416L14.2199 16.349L14.1262 16.0147C13.3101 15.7722 12.5525 15.6667 11.8536 15.6979C11.1585 15.7292 10.4205 15.825 9.63951 15.9853L9.53994 16.349L8.7492 20.9355L8.74859 20.9389C9.10268 21.0706 9.4621 21.1798 9.82686 21.2665C10.5276 21.4329 11.2481 21.5161 11.9883 21.5161C12.4446 21.5161 12.896 21.4831 13.3426 21.417C13.941 21.3284 14.5307 21.1806 15.1116 20.9733ZM12.9723 11.9032L11.9649 8.34897L10.8871 11.9267C11.2073 11.8798 11.547 11.8563 11.9063 11.8563C12.2655 11.8563 12.6209 11.8719 12.9723 11.9032ZM11.4377 13.3812C11.0863 13.4047 10.7426 13.4399 10.4068 13.4868L10.1667 14.3548C10.7094 14.2727 11.2756 14.2278 11.8653 14.2199C12.4588 14.2121 13.0602 14.2571 13.6693 14.3548L13.4292 13.5161C13.1246 13.434 12.8044 13.3851 12.4686 13.3695C12.1328 13.3539 11.7891 13.3578 11.4377 13.3812Z" fill="rgb(0,0,0)" fill-rule="evenodd" />
	</g>
</svg>
