<svg viewBox="0 0 32 32" xmlns="http://www.w3.org/2000/svg" xmlns:xlink="http://www.w3.org/1999/xlink" width="32.000000" height="32.000000" fill="none" customFrame="#000000">
	<g id="组合 29375">
		<path id="矢量 178" d="M16 21.0955C16.5144 21.0955 16.9463 21.2702 17.2957 21.6196C17.6451 21.969 17.8198 22.4009 17.8198 22.9153C17.8198 23.4297 17.6451 23.8616 17.2957 24.211C16.9463 24.5604 16.5144 24.7351 16 24.7351C15.4856 24.7351 15.0537 24.5604 14.7043 24.211C14.3549 23.8616 14.1802 23.4297 14.1802 22.9153C14.1802 22.4009 14.3549 21.969 14.7043 21.6196C15.0537 21.2702 15.4856 21.0955 16 21.0955ZM16 19.6687C15.7476 19.6687 15.5196 19.5765 15.3157 19.3921C15.1216 19.2077 15.0003 18.9845 14.9518 18.7224L14.1802 9.18646C14.1316 8.67205 14.2918 8.21588 14.6606 7.81794C15.0197 7.42971 15.4662 7.2356 16 7.2356C16.5338 7.2356 16.9803 7.42971 17.3394 7.81794C17.7082 8.21588 17.8684 8.67205 17.8198 9.18646L17.0482 18.7224C16.9997 18.9845 16.8784 19.2077 16.6842 19.3921C16.4804 19.5765 16.2523 19.6687 16 19.6687Z" fill="rgb(0,0,0)" fill-opacity="0.898039222" fill-rule="nonzero" />
		<path id="矢量 179" d="M16 32C18.8923 32 21.5663 31.2866 24.0218 29.8599C26.4774 28.4234 28.4234 26.4774 29.8599 24.0218C31.2866 21.5663 32 18.8923 32 16C32 13.1077 31.2866 10.4337 29.8599 7.97816C28.4234 5.5226 26.4774 3.57658 24.0218 2.14013C21.5663 0.713376 18.8923 0 16 0C13.1077 0 10.4337 0.723082 7.97816 2.16924C5.5226 3.6057 3.57658 5.54686 2.14013 7.99272C0.713376 10.4386 0 13.1077 0 16C0 18.8923 0.713376 21.5614 2.14013 24.0073C3.57658 26.4531 5.5226 28.3943 7.97816 29.8308C10.4337 31.2769 13.1077 32 16 32ZM16 2.16924C18.4944 2.16924 20.7995 2.79042 22.9154 4.03276C25.0409 5.2751 26.7249 6.95905 27.9672 9.08462C29.2096 11.2005 29.8308 13.5056 29.8308 16C29.8308 18.4944 29.2096 20.7995 27.9672 22.9154C26.7249 25.0409 25.0409 26.7249 22.9154 27.9672C20.7995 29.2096 18.4944 29.8308 16 29.8308C13.5056 29.8308 11.2005 29.2096 9.08462 27.9672C6.95905 26.7249 5.2751 25.0409 4.03276 22.9154C2.79042 20.7995 2.16924 18.4944 2.16924 16C2.16924 13.5056 2.79042 11.2005 4.03276 9.08462C5.2751 6.95905 6.95905 5.2751 9.08462 4.03276C11.2005 2.79042 13.5056 2.16924 16 2.16924Z" fill="rgb(0,0,0)" fill-opacity="0.898039222" fill-rule="nonzero" />
	</g>
</svg>