<svg viewBox="0 0 24 24" xmlns="http://www.w3.org/2000/svg" xmlns:xlink="http://www.w3.org/1999/xlink" width="24.000000" height="24.000000" fill="none">
	<defs>
		<filter id="pixso_custom_mask_type_alpha">
			<feColorMatrix type="matrix" values="0 0 0 0 1 0 0 0 0 1 0 0 0 0 1 0 0 0 1 0 " />
		</filter>
	</defs>
	<mask id="mask_0" width="20.000000" height="20.000002" x="0.000000" y="0.000000" maskUnits="objectBoundingBox">
		<g filter="url(#pixso_custom_mask_type_alpha)">
			<path id="椭圆 16431" d="M0 10C0 4.47715 4.47715 0 10 0C15.5228 0 20 4.47715 20 10C20 15.5228 15.5228 20 10 20C4.47715 20 0 15.5228 0 10Z" fill="rgb(0,0,0)" fill-rule="evenodd" transform="matrix(0.999993,-0.00378541,0.00378541,0.999993,1.91632,1.99268)" />
		</g>
	</mask>
	<rect id="icon/eraser_grid" width="24.000000" height="24.000004" x="0.000000" y="0.000000" />
	<rect id="矩形 542465" width="24.000000" height="24.000004" x="2.007446" y="1.992401" opacity="0" fill="rgb(0,0,0)" fill-opacity="0.898039222" />
	<g id="蒙版" mask="url(#mask_0)">
		<path id="矩形 542471" d="M0 0L5 0L5 5L0 5L0 0Z" fill="rgb(0,0,0)" fill-opacity="0.100000001" fill-rule="evenodd" transform="matrix(0.999993,-0.00378541,0.00378541,0.999993,1.91632,1.99268)" />
		<path id="矩形 542475" d="M0 0L5 0L5 5L0 5L0 0Z" fill="rgb(0,0,0)" fill-opacity="0.100000001" fill-rule="evenodd" transform="matrix(0.999993,-0.00378541,0.00378541,0.999993,1.95416,11.9926)" />
		<path id="矩形 542473" d="M0 0L5 0L5 5L0 5L0 0Z" fill="rgb(0,0,0)" fill-opacity="0.100000001" fill-rule="evenodd" transform="matrix(0.999993,-0.00378541,0.00378541,0.999993,6.93521,6.97372)" />
		<path id="矩形 542477" d="M0 0L5 0L5 5L0 5L0 0Z" fill="rgb(0,0,0)" fill-opacity="0.100000001" fill-rule="evenodd" transform="matrix(0.999993,-0.00378541,0.00378541,0.999993,6.97308,16.9736)" />
		<path id="矩形 542472" d="M0 0L5 0L5 5L0 5L0 0Z" fill="rgb(0,0,0)" fill-opacity="0.100000001" fill-rule="evenodd" transform="matrix(0.999993,-0.00378541,0.00378541,0.999993,11.9163,1.9548)" />
		<path id="矩形 542476" d="M0 0L5 0L5 5L0 5L0 0Z" fill="rgb(0,0,0)" fill-opacity="0.100000001" fill-rule="evenodd" transform="matrix(0.999993,-0.00378541,0.00378541,0.999993,11.9541,11.9547)" />
		<path id="矩形 542474" d="M0 0L5 0L5 5L0 5L0 0Z" fill="rgb(0,0,0)" fill-opacity="0.100000001" fill-rule="evenodd" transform="matrix(0.999993,-0.00378541,0.00378541,0.999993,16.9351,6.93585)" />
		<path id="矩形 542478" d="M0 0L5 0L5 5L0 5L0 0Z" fill="rgb(0,0,0)" fill-opacity="0.100000001" fill-rule="evenodd" transform="matrix(0.999993,-0.00378541,0.00378541,0.999993,16.973,16.9358)" />
	</g>
	<path id="矢量 856" d="M11.9085 -0.045166C18.5359 -0.070282 23.9288 5.28195 23.9539 11.9093C23.979 18.5367 18.6268 23.9296 11.9994 23.9547C5.37196 23.9797 -0.020874 18.6275 -0.0460205 12.0002C-0.071045 5.37281 5.28114 -0.0200806 11.9085 -0.045166ZM11.916 1.9548C11.1501 1.9577 10.4036 2.04388 9.67642 2.21332L9.6763 2.21335C9.11514 2.34415 8.56533 2.52454 8.02724 2.75455C7.47426 2.99091 6.95083 3.27188 6.45668 3.59747C5.88356 3.97513 5.35011 4.41278 4.85609 4.91049C4.3622 5.40817 3.9286 5.94498 3.55531 6.52091L3.55531 6.52091L3.55531 6.52094C3.23341 7.01749 2.95643 7.54312 2.72425 8.09781C2.4983 8.63767 2.32215 9.18872 2.19556 9.75098C2.03162 10.4794 1.95106 11.2266 1.95399 11.9926C1.95691 12.7586 2.0431 13.5052 2.21253 14.2324L2.21253 14.2324C2.34327 14.7936 2.52369 15.3433 2.75379 15.8814C2.99 16.4343 3.27101 16.9578 3.59657 17.4518L3.59669 17.452L3.59669 17.452C3.97425 18.0251 4.412 18.5586 4.90968 19.0525C5.40736 19.5465 5.94423 19.9801 6.52016 20.3534C7.01662 20.6752 7.54226 20.9522 8.09695 21.1844C8.63687 21.4103 9.18789 21.5866 9.75015 21.7131C10.4787 21.8771 11.2259 21.9576 11.9919 21.9547C12.7577 21.9518 13.5043 21.8656 14.2315 21.6961C14.7928 21.5653 15.3425 21.3849 15.8807 21.1549C16.4336 20.9186 16.9571 20.6376 17.4512 20.312C18.0243 19.9344 18.5578 19.4967 19.0517 18.999C19.5457 18.5013 19.9793 17.9646 20.3525 17.3887C20.6744 16.8921 20.9515 16.3664 21.1837 15.8117C21.4096 15.2718 21.5858 14.7207 21.7123 14.1585C21.8763 13.4301 21.9569 12.6829 21.9539 11.9169C21.951 11.1509 21.8648 10.4043 21.6954 9.67716C21.5645 9.11591 21.3842 8.5662 21.1541 8.02805C20.9178 7.47507 20.6368 6.95151 20.3112 6.45737C19.9335 5.88434 19.4959 5.35086 18.9982 4.85697C18.5005 4.36301 17.9638 3.92941 17.3879 3.55612C16.8913 3.23425 16.3656 2.95725 15.8108 2.7251C15.271 2.49915 14.7199 2.32291 14.1578 2.19638L14.1576 2.19635C13.4292 2.03241 12.682 1.95191 11.916 1.9548Z" opacity="0" fill="rgb(0,0,0)" fill-opacity="0.200000003" fill-rule="evenodd" />
</svg>
