<svg viewBox="0 0 32 32" xmlns="http://www.w3.org/2000/svg" xmlns:xlink="http://www.w3.org/1999/xlink" width="32.000000" height="32.000000" fill="none">
	<defs>
		<filter id="pixso_custom_mask_type_alpha">
			<feColorMatrix type="matrix" values="0 0 0 0 1 0 0 0 0 1 0 0 0 0 1 0 0 0 1 0 " />
		</filter>
		<clipPath id="clipPath_6">
			<rect width="40.000244" height="40.000000" x="-4.000000" y="-4.000000" fill="rgb(255,255,255)" />
		</clipPath>
	</defs>
	<mask id="mask_6" width="10.000000" height="10.000000" x="11.000000" y="11.000000" maskUnits="userSpaceOnUse">
		<g filter="url(#pixso_custom_mask_type_alpha)">
			<g id="mask_19">
				<rect id="矩形 542561" width="10.000000" height="10.000000" x="11.000000" y="11.000000" rx="5.000000" fill="rgb(196,196,196)" />
			</g>
		</g>
	</mask>
	<rect id="eraser_medium_light 1" width="32.000000" height="32.000000" x="0.000000" y="0.000000" />
	<rect id="icon/eraser_medium_light" width="32.000000" height="32.000004" x="0.000000" y="0.000000" />
	<g id="mask" mask="url(#mask_6)">
		<g id="组合 29572">
			<g id="矩形 542571" customFrame="url(#clipPath_6)">
				<rect id="矩形 542571" width="40.000244" height="40.000000" x="-4.000000" y="-4.000000" />
				<rect id="容器 29537" width="40.000244" height="40.000000" x="-4.000000" y="-4.000000" />
				<g id="组合 29567">
					<rect id="矩形 542471" width="5.000000" height="5.000000" x="-4.000000" y="-4.000000" fill="rgb(0,0,0)" fill-opacity="0.0980392173" />
					<rect id="矩形 542475" width="5.000000" height="5.000000" x="-4.000000" y="5.999756" fill="rgb(0,0,0)" fill-opacity="0.0980392173" />
					<rect id="矩形 542473" width="5.000000" height="5.000000" x="1.000122" y="0.999756" fill="rgb(0,0,0)" fill-opacity="0.0980392173" />
					<rect id="矩形 542477" width="5.000000" height="5.000000" x="1.000000" y="11.000000" fill="rgb(0,0,0)" fill-opacity="0.0980392173" />
					<rect id="矩形 542472" width="5.000000" height="5.000000" x="6.000122" y="-4.000000" fill="rgb(0,0,0)" fill-opacity="0.0980392173" />
					<rect id="矩形 542476" width="5.000000" height="5.000000" x="6.000122" y="5.999756" fill="rgb(0,0,0)" fill-opacity="0.0980392173" />
					<rect id="矩形 542474" width="5.000000" height="5.000000" x="11.000000" y="1.000000" fill="rgb(0,0,0)" fill-opacity="0.0980392173" />
					<rect id="矩形 542478" width="4.999998" height="4.999999" x="11.000122" y="11.000000" fill="rgb(0,0,0)" fill-opacity="0.0980392173" />
				</g>
				<g id="组合 29568">
					<rect id="矩形 542471" width="5.000000" height="5.000000" x="16.000122" y="-4.000000" fill="rgb(0,0,0)" fill-opacity="0.0980392173" />
					<rect id="矩形 542475" width="5.000000" height="5.000000" x="16.000122" y="5.999756" fill="rgb(0,0,0)" fill-opacity="0.0980392173" />
					<rect id="矩形 542473" width="5.000000" height="5.000000" x="21.000244" y="0.999756" fill="rgb(0,0,0)" fill-opacity="0.0980392173" />
					<rect id="矩形 542477" width="5.000000" height="5.000000" x="21.000122" y="11.000000" fill="rgb(0,0,0)" fill-opacity="0.0980392173" />
					<rect id="矩形 542472" width="5.000000" height="5.000000" x="26.000244" y="-4.000000" fill="rgb(0,0,0)" fill-opacity="0.0980392173" />
					<rect id="矩形 542476" width="5.000000" height="5.000000" x="26.000244" y="5.999756" fill="rgb(0,0,0)" fill-opacity="0.0980392173" />
					<rect id="矩形 542474" width="5.000000" height="5.000000" x="31.000122" y="1.000000" fill="rgb(0,0,0)" fill-opacity="0.0980392173" />
					<rect id="矩形 542478" width="5.000000" height="4.999999" x="31.000244" y="11.000000" fill="rgb(0,0,0)" fill-opacity="0.0980392173" />
				</g>
				<g id="组合 29569">
					<rect id="矩形 542471" width="5.000000" height="5.000000" x="-4.000000" y="16.000000" fill="rgb(0,0,0)" fill-opacity="0.0980392173" />
					<rect id="矩形 542475" width="5.000000" height="5.000000" x="-4.000000" y="25.999756" fill="rgb(0,0,0)" fill-opacity="0.0980392173" />
					<rect id="矩形 542473" width="5.000000" height="5.000000" x="1.000122" y="20.999756" fill="rgb(0,0,0)" fill-opacity="0.0980392173" />
					<rect id="矩形 542477" width="5.000000" height="5.000000" x="1.000000" y="31.000000" fill="rgb(0,0,0)" fill-opacity="0.0980392173" />
					<rect id="矩形 542472" width="5.000000" height="5.000000" x="6.000122" y="16.000000" fill="rgb(0,0,0)" fill-opacity="0.0980392173" />
					<rect id="矩形 542476" width="5.000000" height="5.000000" x="6.000122" y="25.999756" fill="rgb(0,0,0)" fill-opacity="0.0980392173" />
					<rect id="矩形 542474" width="5.000000" height="5.000000" x="11.000000" y="21.000000" fill="rgb(0,0,0)" fill-opacity="0.0980392173" />
					<rect id="矩形 542478" width="4.999998" height="5.000000" x="11.000122" y="31.000000" fill="rgb(0,0,0)" fill-opacity="0.0980392173" />
				</g>
				<g id="组合 29570">
					<rect id="矩形 542471" width="5.000000" height="5.000000" x="16.000122" y="16.000000" fill="rgb(0,0,0)" fill-opacity="0.0980392173" />
					<rect id="矩形 542475" width="5.000000" height="5.000000" x="16.000122" y="25.999756" fill="rgb(0,0,0)" fill-opacity="0.0980392173" />
					<rect id="矩形 542473" width="5.000000" height="5.000000" x="21.000244" y="20.999756" fill="rgb(0,0,0)" fill-opacity="0.0980392173" />
					<rect id="矩形 542477" width="5.000000" height="5.000000" x="21.000122" y="31.000000" fill="rgb(0,0,0)" fill-opacity="0.0980392173" />
					<rect id="矩形 542472" width="5.000000" height="5.000000" x="26.000244" y="16.000000" fill="rgb(0,0,0)" fill-opacity="0.0980392173" />
					<rect id="矩形 542476" width="5.000000" height="5.000000" x="26.000244" y="25.999756" fill="rgb(0,0,0)" fill-opacity="0.0980392173" />
					<rect id="矩形 542474" width="5.000000" height="5.000000" x="31.000122" y="21.000000" fill="rgb(0,0,0)" fill-opacity="0.0980392173" />
					<rect id="矩形 542478" width="5.000000" height="5.000000" x="31.000244" y="31.000000" fill="rgb(0,0,0)" fill-opacity="0.0980392173" />
				</g>
			</g>
		</g>
	</g>
</svg>
