<svg viewBox="0 0 41 41" xmlns="http://www.w3.org/2000/svg" xmlns:xlink="http://www.w3.org/1999/xlink" width="41" height="41" fill="none" customFrame="#000000">
	<rect id="link_light" width="40" height="40" x="0.5" y="0.5" />
	<g id="g">
		<circle id="circle" cx="20.5" cy="20.5" r="20" fill="rgb(0,0,0)" fill-opacity="0.0980392173" />
		<circle id="circle" cx="20.5" cy="20.5" r="20" stroke="rgb(0,0,0)" stroke-opacity="0" stroke-width="1" />
		<path id="path" d="M20.2244 24.6363C21.3466 24.6363 22.441 24.6995 23.4803 24.8193C23.2503 26.2637 22.908 27.5702 22.4728 28.6583C21.7721 30.4104 20.9763 31.2519 20.5001 31.2519C20.0445 31.223 19.2901 30.458 18.628 28.9024L18.5273 28.6583C18.0864 27.556 17.741 26.2293 17.512 24.7649C18.3868 24.6796 19.2962 24.6363 20.2244 24.6363ZM15.8706 24.9718C16.2668 27.5347 16.9936 29.6862 17.9203 31.0993C17.786 31.0888 17.6949 31.1426 17.5621 31.1302C14.8857 30.3921 12.6168 28.6698 11.1696 26.3769C11.4363 26.2399 11.7354 26.1038 12.0671 25.9712C13.1186 25.5506 14.3741 25.2169 15.7586 24.9883L15.8706 24.9718ZM25.1153 25.0625C26.3321 25.2868 27.439 25.5941 28.3818 25.9712C28.8931 26.1757 29.3269 26.3883 29.6848 26.5987C28.2937 28.6896 26.2088 30.2781 23.7589 31.0354C23.5332 31.0634 23.3045 31.0892 23.0733 31.1123C23.9776 29.7361 24.6934 27.656 25.0973 25.1755L25.1153 25.0625ZM30.4939 15.8413C31.1545 17.2564 31.5234 18.835 31.5234 20.4999C31.5234 22.1651 31.1543 23.7441 30.4934 25.1595C29.212 24.405 27.4233 23.7988 25.3234 23.4196C25.4137 22.484 25.4616 21.5064 25.4616 20.501C25.4616 19.4955 25.4137 18.518 25.3234 17.5818C27.4073 17.206 29.2141 16.5882 30.4939 15.8413ZM10.3945 16.0848C11.7511 16.7885 13.5696 17.3425 15.6685 17.6742C15.5834 18.5813 15.5386 19.5281 15.5386 20.501C15.5386 21.4739 15.5834 22.4206 15.6681 23.329C13.5702 23.6593 11.752 24.2131 10.3955 24.9166C9.80306 23.565 9.47455 22.0708 9.47455 20.4999C9.47455 18.9534 9.81973 17.4205 10.3945 16.0848ZM23.685 17.8236C23.7656 18.6876 23.8078 19.5851 23.8078 20.501C23.8078 21.4169 23.7656 22.3143 23.685 23.1783C22.5866 23.0507 21.4255 22.9824 20.2244 22.9824C19.2208 22.9824 18.2449 23.0301 17.3103 23.1201C17.2327 22.2748 17.1924 21.3967 17.1924 20.501C17.1924 19.6052 17.2327 18.7272 17.3099 17.8807C18.2449 17.9718 19.2208 18.0195 20.2244 18.0195C21.4057 18.0195 22.6027 17.9469 23.685 17.8236ZM20.5337 9.75193C21.0153 9.82841 21.8055 10.675 22.4728 12.3436C22.908 13.4317 23.2503 14.7382 23.4792 16.1802C22.441 16.3024 21.3466 16.3657 20.2244 16.3657C19.2962 16.3657 18.3868 16.3224 17.512 16.2396C17.741 14.7726 18.0864 13.446 18.5273 12.3436C19.2281 10.5916 20.0574 9.75193 20.5337 9.75193ZM17.9637 9.83729C17.0163 11.249 16.273 13.4274 15.8706 16.0301C14.4413 15.8028 13.1466 15.4625 12.0671 15.0308C11.735 14.8979 11.4356 14.7617 11.1684 14.6248C12.6139 12.3338 14.879 10.6125 17.5518 9.87272L17.6746 9.86149L17.9637 9.83729ZM23.0733 9.88964C23.3086 9.9131 23.5413 9.93943 23.7712 9.96855C26.2163 10.727 28.2973 12.3145 29.6856 14.4024C29.3277 14.6132 28.8936 14.826 28.3818 15.0308C27.439 15.4078 26.3321 15.7151 25.1153 15.9394C24.7161 13.4163 23.989 11.286 23.0733 9.88964Z" fill="rgb(255,255,255)" fill-rule="evenodd" />
		<path id="path" d="M23.4803 24.8193C23.2503 26.2637 22.908 27.5702 22.4728 28.6583C21.7721 30.4104 20.9763 31.2519 20.5001 31.2519C20.0445 31.223 19.2901 30.458 18.628 28.9024L18.5273 28.6583C18.0864 27.556 17.741 26.2293 17.512 24.7649C18.3868 24.6796 19.2962 24.6363 20.2244 24.6363C21.3466 24.6363 22.441 24.6995 23.4803 24.8193ZM17.9203 31.0993C17.786 31.0888 17.6949 31.1426 17.5621 31.1302C14.8857 30.3921 12.6168 28.6698 11.1696 26.3769C11.4363 26.2399 11.7354 26.1038 12.0671 25.9712C13.1186 25.5506 14.3741 25.2169 15.7586 24.9883L15.8706 24.9718C16.2668 27.5347 16.9936 29.6862 17.9203 31.0993ZM28.3818 25.9712C28.8931 26.1757 29.3269 26.3883 29.6848 26.5987C28.2937 28.6896 26.2088 30.2781 23.7589 31.0354C23.5332 31.0634 23.3045 31.0892 23.0733 31.1123C23.9776 29.7361 24.6934 27.656 25.0973 25.1755L25.1153 25.0625C26.3321 25.2868 27.439 25.5941 28.3818 25.9712ZM31.5234 20.4999C31.5234 22.1651 31.1543 23.7441 30.4934 25.1595C29.212 24.405 27.4233 23.7988 25.3234 23.4196C25.4137 22.484 25.4616 21.5064 25.4616 20.501C25.4616 19.4955 25.4137 18.518 25.3234 17.5818C27.4073 17.206 29.2141 16.5882 30.4939 15.8413C31.1545 17.2564 31.5234 18.835 31.5234 20.4999ZM15.6685 17.6742C15.5834 18.5813 15.5386 19.5281 15.5386 20.501C15.5386 21.4739 15.5834 22.4206 15.6681 23.329C13.5702 23.6593 11.752 24.2131 10.3955 24.9166C9.80306 23.565 9.47455 22.0708 9.47455 20.4999C9.47455 18.9534 9.81973 17.4205 10.3945 16.0848C11.7511 16.7885 13.5696 17.3425 15.6685 17.6742ZM23.8078 20.501C23.8078 21.4169 23.7656 22.3143 23.685 23.1783C22.5866 23.0507 21.4255 22.9824 20.2244 22.9824C19.2208 22.9824 18.2449 23.0301 17.3103 23.1201C17.2327 22.2748 17.1924 21.3967 17.1924 20.501C17.1924 19.6052 17.2327 18.7272 17.3099 17.8807C18.2449 17.9718 19.2208 18.0195 20.2244 18.0195C21.4057 18.0195 22.6027 17.9469 23.685 17.8236C23.7656 18.6876 23.8078 19.5851 23.8078 20.501ZM22.4728 12.3436C22.908 13.4317 23.2503 14.7382 23.4792 16.1802C22.441 16.3024 21.3466 16.3657 20.2244 16.3657C19.2962 16.3657 18.3868 16.3224 17.512 16.2396C17.741 14.7726 18.0864 13.446 18.5273 12.3436C19.2281 10.5916 20.0574 9.75193 20.5337 9.75193C21.0153 9.82841 21.8055 10.675 22.4728 12.3436ZM15.8706 16.0301C14.4413 15.8028 13.1466 15.4625 12.0671 15.0308C11.735 14.8979 11.4356 14.7617 11.1684 14.6248C12.6139 12.3338 14.879 10.6125 17.5518 9.87272L17.6746 9.86149L17.9637 9.83729C17.0163 11.249 16.273 13.4274 15.8706 16.0301ZM23.7712 9.96855C26.2163 10.727 28.2973 12.3145 29.6856 14.4024C29.3277 14.6132 28.8936 14.826 28.3818 15.0308C27.439 15.4078 26.3321 15.7151 25.1153 15.9394C24.7161 13.4163 23.989 11.286 23.0733 9.88964C23.3086 9.9131 23.5413 9.93943 23.7712 9.96855Z" fill-rule="evenodd" stroke="rgb(0,0,0)" stroke-opacity="0" stroke-width="1" />
	</g>
</svg>
