<?xml version="1.0" encoding="UTF-8"?>
<svg width="24px" height="24px" viewBox="0 0 24 24" version="1.1" xmlns="http://www.w3.org/2000/svg" xmlns:xlink="http://www.w3.org/1999/xlink">
    <title>Public/ic_public_ai_write</title>
    <g id="小艺帮写-light" stroke="none" stroke-width="1" fill="none" fill-rule="evenodd" fill-opacity="0.901960784">
        <path d="M19.4550987,4.07981522 L19.5758993,4.19761165 L21.4513948,6.20883433 C22.0717715,6.87410691 22.0740099,7.89415794 21.4828194,8.56139982 L21.365023,8.68220044 L9.20998472,20.016957 C9.11313239,20.1072732 9.00655819,20.1861032 8.89241073,20.2520991 L20.75,20.25 C21.1642136,20.25 21.5,20.5857864 21.5,21 C21.5,21.4142136 21.1642136,21.75 20.75,21.75 L5.072,21.75 L5.05441243,21.75604 C4.19154081,22.0085878 3.26422257,21.5623207 2.93312927,20.7086489 C2.78159367,20.3179383 2.77596617,19.8878234 2.91353067,19.4960835 L2.98124582,19.3307712 L4.55752642,15.9807905 C4.62861742,15.8297048 4.72084061,15.6898337 4.83120048,15.5652852 L4.94749497,15.4459963 L17.1025332,4.1112398 C17.7678058,3.49086308 18.7878568,3.48862472 19.4550987,4.07981522 Z M5.647,17.186 L4.33850211,19.9694068 C4.30937214,20.0313151 4.30688781,20.1024569 4.33162832,20.1662464 C4.34579194,20.2027651 4.36759315,20.2340649 4.39449766,20.2590282 C4.42942956,20.2524768 4.46442554,20.25 4.5,20.25 L4.805,20.25 L7.523,19.196 L5.647,17.186 Z M15.564,7.596 L6.575,15.979 L8.75351118,18.3168855 L8.787,18.358 L17.781,9.973 L15.564,7.596 Z M5.99500624,2 C6.04827299,2 6.0948814,2.01668753 6.13483146,2.05006258 C6.17478152,2.08343763 6.19475655,2.11347518 6.19475655,2.14017522 C6.38119018,3.05465165 6.80732418,3.84897789 7.47315855,4.52315394 C8.13899293,5.19733 8.92467749,5.63120567 9.83021223,5.82478098 C9.88347898,5.82478098 9.92342905,5.84480601 9.95006242,5.88485607 C9.98335414,5.92490613 10,5.9682937 10,6.01501877 C10,6.06174385 9.98335414,6.10179391 9.95006242,6.13516896 C9.92342905,6.16854401 9.88347898,6.19190655 9.83021223,6.20525657 C8.92467749,6.39883187 8.13899293,6.82269504 7.47315855,7.47684606 C6.80732418,8.13767209 6.38119018,8.93199833 6.19475655,9.85982478 C6.17478152,9.89319983 6.14814815,9.92323738 6.11485643,9.94993742 C6.08822305,9.98331247 6.04827299,10 5.99500624,10 C5.93508115,10 5.88847274,9.98331247 5.85518102,9.94993742 C5.82188931,9.92323738 5.80524345,9.89319983 5.80524345,9.85982478 C5.61215148,8.94534835 5.18601748,8.15435962 4.52684145,7.48685857 C3.86100707,6.82603254 3.07199334,6.39883187 2.15980025,6.20525657 C2.11319184,6.19190655 2.07324178,6.16854401 2.03995006,6.13516896 C2.01331669,6.10179391 2,6.06174385 2,6.01501877 C2,5.9682937 2.01331669,5.92490613 2.03995006,5.88485607 C2.07324178,5.84480601 2.11319184,5.82478098 2.15980025,5.82478098 C3.05867665,5.63120567 3.84436122,5.19733 4.51685393,4.52315394 C5.18268831,3.84897789 5.61215148,3.05465165 5.80524345,2.14017522 C5.82521848,2.11347518 5.84852268,2.08343763 5.87515605,2.05006258 C5.90844777,2.01668753 5.94839784,2 5.99500624,2 Z M18.1802269,5.16947597 L18.1255308,5.20827035 L16.662,6.573 L18.878,8.95 L20.3420254,7.58516988 C20.4261745,7.50669961 20.4440356,7.38376372 20.3931586,7.28652798 L20.3543643,7.23183187 L18.4788688,5.22060919 C18.4003985,5.13646013 18.2774626,5.11859898 18.1802269,5.16947597 Z" id="形状结合" fill="#000000"></path>
    </g>
</svg>