<?xml version="1.0" encoding="UTF-8"?>
<svg width="512px" height="512px" viewBox="0 0 512 512" version="1.1" xmlns="http://www.w3.org/2000/svg" xmlns:xlink="http://www.w3.org/1999/xlink">
    <title>视频美颜调节</title>
    <g id="页面-1" stroke="none" stroke-width="1" fill="none" fill-rule="evenodd">
        <g id="画板备份-6" fill-rule="nonzero">
            <g id="视频美颜调节" transform="translate(0.000000, 0.000355)">
                <g id="编组" fill="#FFFFFF">
                    <path d="M0.06221259,255.791356 C0.06221259,215.797548 -0.0777657376,175.80374 0.06221259,135.809932 C-0.0182502166,116.456965 2.36042967,97.1721873 7.14111659,78.418818 C17.6194943,38.7249637 43.475491,15.1686109 83.1293516,6.03002575 C103.012311,1.73413648 123.320587,-0.278576684 143.65998,0.0309545693 C220.354772,0.0309545693 297.05623,0.0309545693 373.764353,0.0309545693 C393.136889,-0.0893022162 412.453279,2.12634211 431.295446,6.62993287 C472.149121,16.6283848 496.665325,42.5043785 506.003879,83.218075 C510.202297,102.460056 512.208102,122.115607 511.982954,141.809004 C511.982954,219.330334 511.982954,296.858331 511.982954,374.392993 C512.08769,393.578784 509.878755,412.707221 505.403972,431.364173 C495.40552,472.237844 469.409545,496.634067 428.695849,505.972621 C408.810339,510.252251 388.503923,512.26478 368.16522,511.971692 C291.790379,511.971692 215.422202,511.971692 139.060692,511.971692 C119.540073,512.131019 100.070766,509.949114 81.0696705,505.472699 C40.0360236,495.474247 15.3998379,469.478272 6.08128068,428.564606 C1.32201754,407.767826 0.06221259,386.911055 0.06221259,365.874312 C0.06221259,329.186659 0.06221259,292.49234 0.06221259,255.791356 Z" id="路径备份"></path>
                </g>
                <g id="video_fill备份" transform="translate(86.000000, 85.999823)" fill="#0A59F7">
                    <g id="group" opacity="0">
                        <rect id="矩形" x="0" y="0" width="340" height="340"></rect>
                    </g>
                    <g id="group0" transform="translate(14.308333, 69.416667)" fill-opacity="0.90196079">
                        <g id="layers">
                            <path d="M35.275,0 C29.6083333,0 24.0361111,1.60555556 18.5583333,4.81666667 C12.9861111,8.12222222 8.5,12.5138889 5.1,17.9916667 C1.7,23.375 0,28.9 0,34.5666667 L0,166.6 C0,172.266667 1.7,177.744444 5.1,183.033333 C8.5,188.322222 12.9861111,192.666667 18.5583333,196.066667 C24.0361111,199.466667 29.6083333,201.166667 35.275,201.166667 L194.791667,201.166667 C200.458333,201.166667 205.794444,199.561111 210.8,196.35 C215.805556,193.044444 219.772222,188.652778 222.7,183.175 C225.627778,177.791667 227.091667,172.266667 227.091667,166.6 L227.091667,34.5666667 C227.091667,28.7111111 225.627778,23.1388889 222.7,17.85 C219.772222,12.4666667 215.805556,8.12222222 210.8,4.81666667 C205.794444,1.60555556 200.458333,0 194.791667,0 L35.275,0 Z M244.091667,52.7 L244.091667,148.466667 L282.908333,168.583333 C287.158333,170.661111 291.502778,171.227778 295.941667,170.283333 C300.380556,169.338889 304.063889,167.119444 306.991667,163.625 C309.919444,160.130556 311.383333,156.116667 311.383333,151.583333 L311.383333,49.5833333 C311.383333,45.05 309.919444,41.0361111 306.991667,37.5416667 C304.063889,34.0472222 300.333333,31.7805556 295.8,30.7416667 C291.266667,29.7027778 286.969444,30.3166667 282.908333,32.5833333 L244.091667,52.7 Z" id="形状"></path>
                        </g>
                    </g>
                </g>
            </g>
        </g>
    </g>
</svg>