<svg width="40.000000" height="40.000000" viewBox="0 0 40 40" fill="none" xmlns="http://www.w3.org/2000/svg" xmlns:xlink="http://www.w3.org/1999/xlink">
	<desc>
			Created with Pixso.
	</desc>
	<defs/>
	<circle id="椭圆形" cx="20.000000" cy="20.000000" r="20.000000" fill="#000000" fill-opacity="0.200000"/>
	<path id="形状结合" d="M7.10742 33.3613C7.12402 33.3242 7.14062 33.2891 7.15723 33.2539C8.08887 31.3633 10.5078 25.7148 19.9326 25.7148C29.3584 25.7148 31.8184 31.3633 32.708 33.2539C32.7383 33.3184 32.7676 33.3848 32.7949 33.4531C29.4629 36.625 24.957 38.5723 20 38.5723C14.9951 38.5723 10.4492 36.5859 7.10742 33.3613ZM19.9336 9.28516C16.1865 9.28516 13.1484 12.3223 13.1484 16.0703C13.1484 19.8184 16.1865 22.8574 19.9336 22.8574C23.6816 22.8574 26.7197 19.8184 26.7197 16.0703C26.7197 12.3223 23.6816 9.28516 19.9336 9.28516Z" clip-rule="evenodd" fill="#FFFFFF" fill-opacity="1.000000" fill-rule="evenodd"/>
	<path id="形状结合" d="M7.10742 33.3613C7.12402 33.3242 7.14062 33.2891 7.15723 33.2539C8.08887 31.3633 10.5078 25.7148 19.9326 25.7148C29.3584 25.7148 31.8184 31.3633 32.708 33.2539C32.7383 33.3184 32.7676 33.3848 32.7949 33.4531C29.4629 36.625 24.957 38.5723 20 38.5723C14.9951 38.5723 10.4492 36.5859 7.10742 33.3613ZM19.9336 9.28516C16.1865 9.28516 13.1484 12.3223 13.1484 16.0703C13.1484 19.8184 16.1865 22.8574 19.9336 22.8574C23.6816 22.8574 26.7197 19.8184 26.7197 16.0703C26.7197 12.3223 23.6816 9.28516 19.9336 9.28516Z" clip-rule="evenodd" fill="#FFFFFF" fill-opacity="1.000000" fill-rule="evenodd"/>
</svg>
