<svg viewBox="0 0 24 24" xmlns="http://www.w3.org/2000/svg" xmlns:xlink="http://www.w3.org/1999/xlink" width="24.000000" height="24.000000" fill="none">
	<rect id="icon/regional generation" width="24.000000" height="24.000000" x="0.000000" y="0.000000" />
	<rect id="矩形 3583" width="24.000000" height="24.000000" x="0.000000" y="0.000000" opacity="0" />
	<g id="组合 3569">
		<path id="矢量 826" d="M7.76579 1.4267C7.19499 1.61761 6.64176 1.86053 6.10526 2.15527C6.00224 2.2121 5.91691 2.28296 5.84831 2.36798C5.78068 2.45288 5.72965 2.552 5.6973 2.66522C5.66386 2.77832 5.65409 2.88904 5.66581 2.99725C5.67765 3.10547 5.71195 3.21118 5.76884 3.31445C5.82572 3.41772 5.8964 3.50336 5.98173 3.57141C6.06706 3.63946 6.16605 3.68994 6.27885 3.72278C6.39164 3.75568 6.50248 3.76611 6.61137 3.75415C6.71928 3.74219 6.82524 3.70776 6.92826 3.65106C7.37345 3.40613 7.83354 3.20434 8.30827 3.04571C8.78203 2.88708 9.27043 2.77161 9.7736 2.69928C9.8903 2.68249 9.99626 2.6463 10.0894 2.59076C10.1836 2.53516 10.2651 2.4602 10.3356 2.36584C10.4063 2.27154 10.4554 2.17157 10.4817 2.0661C10.5092 1.96063 10.5142 1.84955 10.4975 1.73291C10.4808 1.61627 10.4445 1.51111 10.3886 1.41754C10.3337 1.32391 10.2581 1.24176 10.164 1.17114C10.0699 1.10059 9.96977 1.05176 9.86382 1.02484C9.75896 0.997986 9.64714 0.992859 9.53129 1.00964C8.92521 1.09674 8.33671 1.23578 7.76579 1.4267ZM14.1795 1.44025C14.0246 1.38745 13.8676 1.33838 13.7098 1.29315C13.596 1.26074 13.4861 1.25073 13.3772 1.263C13.2693 1.27539 13.1634 1.31018 13.0605 1.36725C12.9574 1.42444 12.8721 1.49567 12.8044 1.58087C12.7367 1.66608 12.6867 1.76532 12.6543 1.87866C12.621 1.99188 12.6111 2.10266 12.624 2.21081C12.6357 2.31897 12.6711 2.42456 12.728 2.52765C12.7848 2.63068 12.8564 2.71612 12.9417 2.78381C13.027 2.85162 13.1261 2.90167 13.2399 2.9342C13.3469 2.96509 13.4548 2.99805 13.5606 3.0332C13.9402 3.15881 14.311 3.31177 14.6729 3.49206C15.0348 3.67236 15.3801 3.87634 15.7087 4.104L15.7087 4.10406C15.8008 4.16785 15.8921 4.23352 15.9814 4.30102C16.0755 4.37201 16.1756 4.42108 16.2806 4.44842C16.3864 4.47571 16.4972 4.48114 16.6139 4.46478C16.7308 4.44842 16.8356 4.41266 16.9299 4.35742C17.024 4.30218 17.1064 4.22754 17.1771 4.13342C17.2476 4.03937 17.2977 3.93964 17.3242 3.83423C17.3516 3.72882 17.3575 3.61774 17.3408 3.5011C17.3242 3.3844 17.2889 3.27911 17.2339 3.18524C17.178 3.09143 17.1035 3.00909 17.0093 2.93811C16.8779 2.83917 16.7444 2.74359 16.6091 2.65131L16.6091 2.65124C16.2344 2.39703 15.8431 2.16809 15.435 1.96442C15.0261 1.7608 14.6082 1.58606 14.1795 1.44025ZM1.44046 7.72509L1.44046 7.72546C1.38748 7.88055 1.33841 8.03692 1.29324 8.19464C1.2609 8.30786 1.25113 8.41864 1.26285 8.52679C1.27567 8.63494 1.30997 8.74054 1.36783 8.84362C1.42471 8.94665 1.49539 9.0321 1.58072 9.09979C1.66605 9.1676 1.76602 9.21765 1.87882 9.25012C1.99259 9.28259 2.10245 9.2926 2.21134 9.28027C2.31925 9.26794 2.4252 9.23315 2.52811 9.17602C2.63114 9.11889 2.71646 9.04773 2.78421 8.96246C2.85184 8.87719 2.90189 8.77801 2.93424 8.66467C2.96561 8.55706 2.99894 8.45013 3.03324 8.34387L3.03324 8.34369C3.04093 8.32086 3.04862 8.29809 3.05631 8.27539C3.17826 7.91943 3.32364 7.57147 3.49234 7.2315C3.67276 6.86993 3.87687 6.52478 4.10441 6.19604L4.10538 6.19562C4.1691 6.10357 4.23478 6.01288 4.30155 5.9234C4.37308 5.82934 4.42216 5.72961 4.44962 5.6242C4.47709 5.5188 4.48197 5.40777 4.46537 5.29107C4.44962 5.17438 4.41337 5.06909 4.35843 4.97528C4.3035 4.88141 4.22794 4.79907 4.1348 4.72809C4.04056 4.65716 3.94059 4.60803 3.83463 4.58075C3.72965 4.55347 3.61881 4.54797 3.50211 4.56433C3.38541 4.58069 3.27945 4.61645 3.18631 4.67175C3.0922 4.72699 3.0098 4.80163 2.93912 4.89569C2.84012 5.02685 2.74393 5.16028 2.65177 5.29596L2.65177 5.29614C2.39774 5.67016 2.16825 6.06134 1.96512 6.46979C1.76114 6.87829 1.58658 7.29675 1.44046 7.72503L1.44046 7.72509ZM13.5901 16.8473C13.5901 16.8473 13.5267 16.8904 13.4123 16.9303C13.22 16.5069 12.9485 16.1288 12.6161 15.8118C12.4952 15.6962 12.362 15.5925 12.2247 15.5001C12.2729 15.3964 12.3082 15.3321 12.3082 15.3321C12.5662 14.863 12.8771 14.3759 13.24 13.8707C13.8344 13.0428 14.525 12.231 15.3116 11.4355C16.4385 10.3015 17.6352 9.29809 18.8995 8.42517C19.5527 7.97461 20.1863 7.58594 20.8023 7.25921C20.8101 7.25476 20.816 7.25165 20.8189 7.25006C20.8317 7.24328 20.8524 7.23639 20.8808 7.22943C20.9013 7.22424 20.9229 7.2204 20.9445 7.21802L20.9445 7.21795C20.9671 7.21545 20.9896 7.21448 21.0121 7.21509C21.1318 7.21814 21.2554 7.26953 21.3819 7.36908L21.3829 7.3695L21.3839 7.3703C21.4251 7.40399 21.4555 7.45715 21.4742 7.52978C21.4987 7.62274 21.5007 7.73938 21.482 7.87976C21.4496 8.11889 21.3594 8.39489 21.2103 8.70788C21.1809 8.76953 21.0809 8.92828 20.9112 9.18414C20.6728 9.5426 20.3923 9.93615 20.0696 10.3647C19.1642 11.5661 18.155 12.743 17.0407 13.8955C16.4935 14.4615 16.0334 14.9218 15.6607 15.2764C15.287 15.6324 14.9565 15.9236 14.6711 16.1497C14.4101 16.3562 14.158 16.5304 13.9148 16.6723C13.8128 16.7315 13.7049 16.7898 13.5901 16.8473ZM1.42667 14.1367C1.61795 14.7074 1.86124 15.2607 2.15543 15.7967C2.21231 15.9 2.28299 15.9856 2.36832 16.0537C2.45365 16.1217 2.55265 16.1722 2.66544 16.2051C2.77921 16.2379 2.88907 16.2483 2.99796 16.2364C3.10587 16.2244 3.21183 16.1901 3.31473 16.1332C3.41874 16.0765 3.50406 16.0056 3.57181 15.9206C3.64042 15.8357 3.69046 15.7366 3.72379 15.6234C3.75614 15.5102 3.767 15.3995 3.75516 15.2914C3.74344 15.1831 3.70816 15.0774 3.65226 14.9741C3.40702 14.5288 3.20499 14.0691 3.04605 13.595C2.88712 13.1208 2.77237 12.6322 2.69986 12.1292C2.68314 12.0126 2.64688 11.9074 2.59098 11.8138C2.53604 11.7202 2.46048 11.6381 2.36637 11.5675C2.27213 11.4968 2.17215 11.4481 2.06619 11.4212C1.96121 11.3942 1.8494 11.3892 1.7327 11.4059C1.616 11.4227 1.51102 11.4589 1.41788 11.5145C1.32364 11.5701 1.24222 11.645 1.17166 11.7393C1.10098 11.8336 1.05203 11.9336 1.02457 12.0391C0.998077 12.1446 0.993195 12.2557 1.0098 12.3723C1.09708 12.9777 1.23538 13.5659 1.42667 14.1366L1.42667 14.1367ZM7.22636 21.1197C6.70646 20.8526 6.21024 20.4495 5.73942 19.9106C5.73747 19.9083 5.73649 19.9059 5.73551 19.9036C5.79923 19.8536 5.90617 19.8052 6.05717 19.7584C6.34464 19.6681 6.59171 19.5663 6.79679 19.4528C7.06742 19.3026 7.29801 19.1175 7.48625 18.8978C7.64909 18.7073 7.78544 18.4842 7.89433 18.2286C7.94242 18.1165 8.00224 17.9505 8.07377 17.7306L8.07377 17.7284L8.09831 17.6557C8.17973 17.4838 8.28666 17.3117 8.42106 17.1394C8.5927 16.9178 8.78105 16.7347 8.98503 16.5903C9.19584 16.4409 9.41264 16.3428 9.63432 16.296C9.86381 16.2478 10.1091 16.2534 10.3689 16.313L10.472 16.3392C10.4877 16.343 10.5171 16.3521 10.5622 16.3666C10.6691 16.4008 10.777 16.4406 10.884 16.486C11.191 16.6155 11.4214 16.754 11.5754 16.9012C11.702 17.0219 11.8108 17.1539 11.902 17.2971C11.9589 17.3874 12.0099 17.482 12.053 17.5812C12.0845 17.6533 12.112 17.7267 12.1344 17.8014C12.1963 18.0037 12.2277 18.2156 12.2277 18.4369C12.2287 18.5644 12.2208 18.6907 12.2051 18.8159C12.1796 19.0142 12.1335 19.2096 12.0658 19.4023C11.9697 19.6731 11.85 19.8978 11.7068 20.076C11.5989 20.205 11.4606 20.3406 11.2919 20.4829C11.2557 20.5138 11.2184 20.544 11.1801 20.5737L11.1801 20.5743C10.9977 20.7181 10.8045 20.8482 10.6005 20.9646C10.0198 21.2961 9.43327 21.4721 8.84184 21.4924L8.84086 21.4924C8.81828 21.4932 8.79472 21.4937 8.77214 21.494L8.72612 21.4939C8.61027 21.4939 8.49455 21.4875 8.3798 21.4748C7.98747 21.4311 7.60307 21.3128 7.22636 21.1197ZM12.8721 21.0306C13.3517 20.4401 13.7431 19.4786 13.7342 18.4369L13.7343 18.4369C15.0673 17.8747 15.9285 17.2139 18.1236 14.9422C20.7954 12.1785 22.3668 9.77893 22.5717 9.3529C23.4927 7.41021 22.7003 6.49084 22.3157 6.18719C21.4448 5.50116 20.5483 5.68817 20.1118 5.9201C19.6752 6.15204 17.0917 7.5072 14.2404 10.3763C12.3533 12.2839 11.3273 13.944 10.8418 14.8789L10.8418 14.879L10.8417 14.879L10.8417 14.8789C8.62211 14.2819 7.17045 16.0192 6.69279 17.1071L6.64176 17.2617C6.45341 17.8395 6.37602 18.0799 5.60892 18.3203C4.89103 18.5438 4.44669 18.9247 4.2858 19.4688C4.07377 20.1697 4.45902 20.718 4.53971 20.8329L4.53983 20.833L4.54081 20.8343L4.54178 20.8352L4.57609 20.8689C5.78849 22.2691 7.21366 23 8.72612 23L8.79277 23C10.7564 22.9733 12.2826 21.7433 12.8721 21.0306Z" fill="rgb(0,0,0)" fill-rule="evenodd" />
	</g>
</svg>
