<svg viewBox="0 0 24 24" xmlns="http://www.w3.org/2000/svg" xmlns:xlink="http://www.w3.org/1999/xlink" width="24.000000" height="24.000000" fill="none">
	<rect id="icon/stroke_thin" width="24.000000" height="24.000004" x="0.000000" y="0.000000" />
	<rect id="矩形 542465" width="24.000000" height="24.000004" x="0.000000" y="0.000000" opacity="0" />
	<path id="矢量 850" d="M9.95376 8.70099L2.75842 12.8764C2.5647 12.9889 2.50085 13.2294 2.61328 13.4232C2.72571 13.6169 2.96619 13.6808 3.16004 13.5684L10.3333 9.40576L11.2239 8.96237C11.3654 8.89196 11.515 8.85647 11.673 8.85589C11.8644 8.85516 12.0419 8.90457 12.2054 9.00415C12.3689 9.10373 12.4943 9.2387 12.5815 9.40911L12.6203 9.48504C12.7041 9.64889 12.7465 9.82284 12.7471 10.0069L12.7478 10.1799C12.7484 10.3554 12.7264 10.5246 12.6813 10.6875C12.6363 10.8504 12.5685 11.007 12.4778 11.1573L11.0109 13.5889L10.7913 14.0262C10.7145 14.1791 10.6588 14.3369 10.6243 14.4996C10.5869 14.6752 10.5769 14.8444 10.5941 15.0072C10.6125 15.1794 10.6602 15.3352 10.7375 15.4746C10.7445 15.4875 10.7519 15.5002 10.7596 15.5128C10.8612 15.6807 11.0004 15.8127 11.177 15.9088C11.2063 15.9246 11.2367 15.9392 11.2685 15.9526C11.3567 15.9897 11.4468 16.0176 11.5389 16.0366C11.8866 16.1081 12.2611 16.0497 12.6624 15.8614C12.8388 15.7787 13.0296 15.6661 13.2347 15.5237C13.3577 15.4383 13.5231 15.3146 13.7308 15.1525L21.1896 9.32772C21.3662 9.18988 21.3966 8.94284 21.2587 8.76629C21.1209 8.58975 20.8738 8.55935 20.6973 8.6972L13.2383 14.522C13.0425 14.6748 12.8893 14.7897 12.7786 14.8665C12.6103 14.9833 12.4583 15.0735 12.3225 15.1372C12.0298 15.2746 11.7818 15.3005 11.5784 15.215C11.5713 15.2121 11.565 15.2091 11.5592 15.2059C11.4605 15.1523 11.4041 15.0579 11.3897 14.9229C11.3719 14.7546 11.4107 14.5754 11.5063 14.3852L11.7119 13.9757L13.1628 11.5706C13.292 11.3563 13.3888 11.133 13.4529 10.9007C13.5171 10.6684 13.5487 10.4271 13.5478 10.1768L13.5472 10.0039C13.5465 9.84811 13.5284 9.69662 13.4926 9.54943C13.4568 9.40219 13.4035 9.25924 13.3324 9.12057L13.2936 9.04464C13.1377 8.74008 12.9137 8.49884 12.6215 8.32086C12.3293 8.14291 12.0121 8.0546 11.67 8.05588C11.5288 8.05643 11.3914 8.07254 11.2576 8.10425C11.1238 8.13599 10.9938 8.18329 10.8675 8.24618L9.95376 8.70099Z" fill="rgb(0,0,0)" fill-rule="evenodd" />
</svg>
