<svg width="24px" height="24px" viewBox="0 0 24 24" version="1.1" xmlns="http://www.w3.org/2000/svg" xmlns:xlink="http://www.w3.org/1999/xlink">
    <title>stroke_medium</title>
    <g id="stroke_medium" stroke="none" stroke-width="1" fill="none" fill-rule="evenodd">
        <path d="M9.73326,8.29129 L2.52515,12.4742 C2.1062,12.7174 1.96802,13.2376 2.21106,13.6566 C2.45422,14.0755 2.97449,14.2137 3.39343,13.9706 L10.5537,9.81537 L11.4311,9.3786 C11.5078,9.34042 11.5891,9.32117 11.6747,9.32086 C11.7785,9.32047 11.8749,9.34726 11.9635,9.40128 C12.0522,9.45529 12.1202,9.5285 12.1676,9.62094 L12.2064,9.69687 C12.2565,9.79474 12.2817,9.89868 12.2822,10.0086 L12.2828,10.1816 C12.2833,10.3137 12.2666,10.441 12.2328,10.5636 C12.1988,10.6862 12.1478,10.804 12.0796,10.9171 L10.6035,13.3641 L10.3758,13.8174 C10.2959,13.9766 10.2344,14.1405 10.1914,14.3091 C10.1833,14.3402 10.1761,14.3716 10.1694,14.403 C10.1218,14.6267 10.1094,14.8445 10.1318,15.0562 C10.1537,15.2631 10.2077,15.4543 10.2939,15.6296 C10.3147,15.6719 10.3373,15.7133 10.3618,15.7538 C10.5069,15.9934 10.7047,16.1812 10.9549,16.3173 C10.9978,16.3406 11.0422,16.3619 11.0882,16.3812 C11.6373,16.6119 12.2278,16.579 12.86,16.2824 C13.0599,16.1885 13.2732,16.063 13.4999,15.9058 C13.63,15.8154 13.8023,15.6865 14.0168,15.519 L21.4758,9.69421 C21.8576,9.39606 21.9233,8.86185 21.6252,8.48007 C21.327,8.0983 20.7928,8.03256 20.411,8.33069 L12.9521,14.1555 C12.7633,14.3029 12.617,14.4126 12.5135,14.4844 C12.3667,14.5864 12.2372,14.6636 12.125,14.7162 C12.0146,14.768 11.9241,14.7959 11.8531,14.7998 C11.8606,14.7388 11.8834,14.6702 11.9217,14.5939 L12.1194,14.2004 L13.5609,11.8108 C13.8644,11.3077 14.015,10.7625 14.0128,10.175 L14.0122,10.0021 C14.0115,9.8093 13.9889,9.62177 13.9446,9.43955 C13.9004,9.25729 13.8342,9.08035 13.7464,8.90869 L13.7075,8.83279 C13.5118,8.45023 13.2303,8.14722 12.8634,7.92371 C12.6798,7.81195 12.4885,7.72833 12.2893,7.67285 C12.0901,7.61737 11.883,7.59006 11.6682,7.59083334 C11.3136,7.59219 10.9776,7.67188 10.6603,7.8299 L9.73326,8.29129 Z" id="矢量-849" fill="#000000"></path>
    </g>
</svg>