<svg width="24px" height="24px" viewBox="0 0 24 24" version="1.1" xmlns="http://www.w3.org/2000/svg" xmlns:xlink="http://www.w3.org/1999/xlink">
    <title>stroke_thin</title>
    <g id="stroke_thin" stroke="none" stroke-width="1" fill="none" fill-rule="evenodd">
        <path d="M9.95376,8.70102 L2.75842,12.8764 C2.5647,12.9889 2.50085,13.2294 2.61328,13.4232 C2.72571,13.6169 2.96619,13.6808 3.16004,13.5684 L10.3333,9.40579 L11.2239,8.9624 C11.3654,8.892 11.515,8.8565 11.673,8.85592 C11.8644,8.85519 12.0419,8.9046 12.2054,9.00418 C12.3689,9.10376 12.4943,9.23874 12.5815,9.40914 L12.6203,9.48507 C12.7041,9.64892 12.7465,9.82287 12.7471,10.0069 L12.7478,10.1799 C12.7484,10.3554 12.7264,10.5246 12.6813,10.6876 C12.6363,10.8505 12.5685,11.0071 12.4778,11.1574 L11.0109,13.5889 L10.7913,14.0262 C10.7145,14.1791 10.6588,14.3369 10.6243,14.4997 C10.5869,14.6752 10.5769,14.8444 10.5941,15.0072 C10.6125,15.1794 10.6602,15.3352 10.7375,15.4747 C10.7445,15.4875 10.7519,15.5003 10.7596,15.5128 C10.8612,15.6808 11.0004,15.8127 11.177,15.9088 C11.2063,15.9247 11.2367,15.9393 11.2685,15.9526 C11.3567,15.9897 11.4468,16.0177 11.5389,16.0366 C11.8866,16.1081 12.2611,16.0497 12.6624,15.8615 C12.8388,15.7787 13.0296,15.6661 13.2347,15.5237 C13.3577,15.4384 13.5231,15.3146 13.7308,15.1525 L21.1896,9.32775 C21.3662,9.18991 21.3966,8.94287 21.2587,8.76632 C21.1209,8.58978 20.8738,8.55939 20.6973,8.69723 L13.2383,14.522 C13.0425,14.6748 12.8893,14.7897 12.7786,14.8665 C12.6103,14.9833 12.4583,15.0735 12.3225,15.1372 C12.0298,15.2746 11.7818,15.3005 11.5784,15.2151 C11.5713,15.2121 11.565,15.2091 11.5592,15.2059 C11.4605,15.1523 11.4041,15.0579 11.3897,14.9229 C11.3719,14.7546 11.4107,14.5754 11.5063,14.3853 L11.7119,13.9757 L13.1628,11.5706 C13.292,11.3563 13.3888,11.133 13.4529,10.9007 C13.5171,10.6684 13.5487,10.4271 13.5478,10.1768 L13.5472,10.0039 C13.5465,9.84814 13.5284,9.69665 13.4926,9.54946 C13.4568,9.40222 13.4035,9.25927 13.3324,9.1206 L13.2936,9.04467 C13.1377,8.74011 12.9137,8.49887 12.6215,8.32089 C12.3293,8.14294 12.0121,8.05463 11.67,8.05589628 C11.5288,8.05646 11.3914,8.07257 11.2576,8.10428 C11.1238,8.13602 10.9938,8.18332 10.8675,8.24621 L9.95376,8.70102 Z" id="矢量-850" fill="#000000"></path>
    </g>
</svg>