<svg width="24px" height="24px" viewBox="0 0 24 24" version="1.1" xmlns="http://www.w3.org/2000/svg" xmlns:xlink="http://www.w3.org/1999/xlink">
    <title>stroke_heavy</title>
    <g id="stroke_heavy" stroke="none" stroke-width="1" fill="none" fill-rule="evenodd">
        <path d="M9.51035,7.87726 L2.28918,12.0677 C1.64258,12.443 1.42932,13.2459 1.80456,13.8925 C2.17981,14.5391 2.98266,14.7523 3.62927,14.3771 L10.7766,10.2294 L11.6406,9.79938 C11.6518,9.79373 11.6638,9.79089 11.6765,9.79086 C11.6931,9.7908 11.7075,9.79446 11.7196,9.80182 C11.7317,9.8092 11.7415,9.82028 11.7491,9.83508 L11.7879,9.91101 C11.8039,9.94223 11.812,9.97537 11.8121,10.0104 L11.8127,10.1834 C11.8131,10.2715 11.802,10.3566 11.7794,10.4384 C11.7567,10.5202 11.7226,10.5989 11.6771,10.6744 L10.1916,13.1369 L9.95579,13.6065 C9.84287,13.8311 9.76084,14.0641 9.70957,14.3053 C9.65171,14.5777 9.6367,14.8445 9.66428,15.1057 C9.69895,15.4321 9.79746,15.7293 9.95982,15.9973 C10.1489,16.3094 10.4057,16.5536 10.7303,16.7302 C10.7871,16.761 10.8457,16.7891 10.9061,16.8145 C11.2851,16.9738 11.6833,17.0311 12.1007,16.9866 C12.4156,16.953 12.7352,16.8601 13.0595,16.7079 C13.2834,16.6028 13.5194,16.4642 13.7677,16.2919 C13.9052,16.1965 14.0847,16.0623 14.3061,15.8894 L21.765,10.0647 C22.3542,9.60452 22.4556,8.78003 21.9956,8.1908 C21.5355,7.60159 20.7109,7.50015 20.1217,7.96027 L13.1468,13.407 L13.9633,12.0536 C14.1345,11.7699 14.2641,11.4684 14.3523,11.1491 C14.4405,10.8298 14.484,10.5045 14.4828,10.1733 L14.482,10.0003 C14.4812,9.77008 14.4543,9.54614 14.4015,9.32852 C14.3486,9.1109 14.2696,8.89957 14.1648,8.69458 L14.1259,8.61868 C13.8897,8.15732 13.5504,7.79184 13.1078,7.52228 C12.8864,7.38751 12.6556,7.28665 12.4154,7.21976 C12.1751,7.15286 11.9255,7.1199 11.6664,7.12085878 C11.4525,7.12167 11.2444,7.14612 11.0417,7.19415 C10.8391,7.24219 10.6421,7.31387 10.4508,7.40915 L9.51035,7.87726 Z" id="矢量-848" fill="#000000"></path>
    </g>
</svg>