<svg viewBox="0 0 24 24" xmlns="http://www.w3.org/2000/svg" xmlns:xlink="http://www.w3.org/1999/xlink" width="24.000000" height="24.000000" fill="none">
	<rect id="icon/stroke_medium" width="24.000000" height="24.000004" x="0.000000" y="0.000000" />
	<rect id="矩形 542465" width="24.000000" height="24.000004" x="0.000000" y="0.000000" opacity="0" />
	<path id="矢量 849" d="M9.73326 8.29132L2.52515 12.4743C2.1062 12.7174 1.96802 13.2376 2.21106 13.6566C2.45422 14.0755 2.97449 14.2137 3.39343 13.9706L10.5537 9.8154L11.4311 9.37863C11.5078 9.34046 11.5891 9.3212 11.6747 9.32089C11.7785 9.3205 11.8749 9.34729 11.9635 9.40131C12.0522 9.45532 12.1202 9.52853 12.1676 9.62097L12.2064 9.6969C12.2565 9.79477 12.2817 9.89871 12.2822 10.0087L12.2828 10.1816C12.2833 10.3137 12.2666 10.441 12.2328 10.5636C12.1988 10.6862 12.1478 10.8041 12.0796 10.9172L10.6035 13.3642L10.3758 13.8175C10.2959 13.9767 10.2344 14.1406 10.1914 14.3091C10.1833 14.3403 10.1761 14.3716 10.1694 14.403C10.1218 14.6267 10.1094 14.8445 10.1318 15.0562C10.1537 15.2632 10.2077 15.4543 10.2939 15.6296C10.3147 15.6719 10.3373 15.7133 10.3618 15.7538C10.5069 15.9934 10.7047 16.1812 10.9549 16.3173C10.9978 16.3406 11.0422 16.3619 11.0882 16.3813C11.6373 16.612 12.2278 16.579 12.86 16.2824C13.0599 16.1886 13.2732 16.063 13.4999 15.9058C13.63 15.8154 13.8023 15.6865 14.0168 15.519L21.4758 9.69425C21.8576 9.39609 21.9233 8.86188 21.6252 8.4801C21.327 8.09833 20.7928 8.03259 20.411 8.33072L12.9521 14.1555C12.7633 14.303 12.617 14.4126 12.5135 14.4845C12.3667 14.5864 12.2372 14.6637 12.125 14.7163C12.0146 14.7681 11.9241 14.7959 11.8531 14.7998C11.8606 14.7388 11.8834 14.6702 11.9217 14.594L12.1194 14.2005L13.5609 11.8108C13.8644 11.3078 14.015 10.7625 14.0128 10.1751L14.0122 10.0021C14.0115 9.80933 13.9889 9.6218 13.9446 9.43958C13.9004 9.25733 13.8342 9.08038 13.7464 8.90872L13.7075 8.83282C13.5118 8.45026 13.2303 8.14725 12.8634 7.92374C12.6798 7.81198 12.4885 7.72836 12.2893 7.67288C12.0901 7.6174 11.883 7.59009 11.6682 7.59088C11.3136 7.59222 10.9776 7.67191 10.6603 7.82993L9.73326 8.29132Z" fill="rgb(0,0,0)" fill-rule="evenodd" />
</svg>
