<svg width="32.000000" height="32.000000" viewBox="0 0 32 32" fill="none" xmlns="http://www.w3.org/2000/svg" xmlns:xlink="http://www.w3.org/1999/xlink">
	<desc>
			Created with Pixso.
	</desc>
	<defs/>
	<g style="mix-blend-mode:normal">
		<rect id="rect" width="32.000000" height="32.000000" fill="#000000" fill-opacity="0"/>
		<g style="mix-blend-mode:normal">
			<path id="合并" d="M19.9724 1.15576Q17.9946 1 16.0938 1Q14.1782 1 12.1262 1.15625Q10.1992 1.30322 8.81177 1.53467Q8.54858 1.57861 8.30859 1.67822L8.30859 1.67822Q8.15186 1.74365 8.00513 1.83252Q7.81982 1.94482 7.66235 2.08789L7.66235 2.08789L7.66235 2.08789L7.66235 2.08789Q7.5105 2.22607 7.38452 2.39209Q7.26294 2.55273 7.1731 2.72949L7.1731 2.72949Q7.07397 2.92432 7.01367 3.13916Q6.96729 3.30518 6.94629 3.47363Q6.91479 3.72949 6.94165 3.99219Q6.99609 4.5249 7.08081 5.05273Q7.21021 5.85889 7.41016 6.6543Q7.87036 8.48291 8.65259 10.021Q9.76294 12.2031 11.9548 14.687Q12.5281 15.3364 13.1211 15.9443Q12.6946 16.3311 12.2676 16.7651Q10.3135 18.7515 9.05078 20.9961Q8.18408 22.5366 7.53711 24.4575Q7.0686 25.8477 6.75342 27.3159Q6.69434 27.5908 6.69995 27.8643L6.69995 27.8647L6.69995 27.8647Q6.70435 28.0688 6.74463 28.2725Q6.78833 28.4927 6.87134 28.6973L6.87158 28.6973Q6.96216 28.9204 7.09937 29.124Q7.22192 29.3057 7.3728 29.4595L7.3728 29.4595L7.3728 29.4595L7.37329 29.46Q7.54346 29.6333 7.75 29.771Q7.91724 29.8828 8.09814 29.9644L8.09814 29.9644L8.09888 29.9644Q8.34814 30.0767 8.62305 30.1313Q10.3628 30.4766 12.0298 30.6929Q14.3945 31 16.2808 31Q18.1406 31 20.3223 30.7017Q21.8772 30.4888 23.4495 30.1465Q23.7239 30.0869 23.9709 29.9692Q24.1418 29.8882 24.2998 29.7798Q24.4971 29.644 24.6602 29.4751L24.6609 29.4746L24.6619 29.4736Q24.8098 29.3198 24.9297 29.1387Q25.0598 28.9419 25.1465 28.728Q25.2292 28.5239 25.2727 28.3042Q25.3113 28.1089 25.3167 27.9126L25.3169 27.9116L25.3169 27.9106Q25.324 27.6416 25.2683 27.3706Q24.9563 25.8501 24.4866 24.4429Q23.8284 22.4707 22.9375 20.9746Q21.6953 18.8892 19.9641 16.8838Q19.5483 16.4023 19.1409 15.9683Q19.7104 15.3115 20.2671 14.6128Q22.2493 12.1255 23.3433 10.0303Q24.1277 8.52734 24.5891 6.69141Q24.9199 5.37549 25.0583 4.00732Q25.0847 3.74561 25.0535 3.49072L25.0535 3.49072Q25.0322 3.31738 24.9841 3.14795Q24.9238 2.93506 24.8259 2.7417L24.8259 2.7417L24.8259 2.7417Q24.7341 2.56055 24.6094 2.39648Q24.4829 2.22998 24.3311 2.0918Q24.1721 1.94775 23.9851 1.83398Q23.8333 1.7417 23.6709 1.6748L23.6709 1.6748Q23.4343 1.57715 23.1753 1.5332Q21.802 1.30029 19.9724 1.15576ZM12.2783 3.15088Q14.2544 3 16.0938 3Q17.916 3 19.8152 3.1499Q21.5557 3.28662 22.8411 3.50488Q22.9199 3.51855 22.9741 3.56201L22.9741 3.56201Q22.998 3.58154 23.0171 3.60645Q23.0356 3.63086 23.0476 3.6582L23.0479 3.6582Q23.0769 3.72412 23.0686 3.80615Q22.9446 5.0293 22.6494 6.20361Q22.2454 7.81104 21.5703 9.10449Q20.5654 11.0298 18.7031 13.3667Q18.1167 14.1025 17.5161 14.7886Q17.2188 15.1279 17.042 15.3174Q16.9014 15.4678 16.8342 15.646Q16.7668 15.8237 16.7732 16.0298Q16.7793 16.2354 16.8569 16.4092Q16.9346 16.583 17.084 16.7251Q17.2175 16.8521 17.4565 17.0996Q17.9451 17.606 18.45 18.1904Q20.0667 20.0635 21.219 21.998Q21.9995 23.3086 22.5894 25.0762Q23.0212 26.3696 23.3091 27.7729Q23.3269 27.8589 23.3069 27.9355L23.3066 27.936Q23.293 27.9878 23.2615 28.0356Q23.2322 28.0796 23.1931 28.1123L23.1931 28.1128L23.1931 28.1128Q23.124 28.1704 23.0244 28.1924Q21.5286 28.5176 20.051 28.7197Q18.0044 29 16.2808 29Q14.5239 29 12.2874 28.7095Q10.6865 28.5015 9.01294 28.1694Q8.9043 28.1479 8.8291 28.0854L8.8291 28.0854L8.8291 28.0854Q8.78882 28.0518 8.75806 28.0068Q8.72388 27.9556 8.70972 27.8999Q8.69019 27.8228 8.70874 27.7358Q9.00024 26.3789 9.43237 25.0957Q10.0195 23.353 10.7939 21.9766Q11.926 19.9644 13.6934 18.1675Q14.2456 17.606 14.7917 17.1367Q15.0564 16.9097 15.2036 16.7988Q15.2209 16.7856 15.2378 16.772L15.2388 16.771Q15.2559 16.7568 15.2725 16.7422Q15.2891 16.7271 15.3047 16.7114L15.3049 16.7114L15.3052 16.7109Q15.321 16.6953 15.3359 16.6792Q15.4766 16.5273 15.543 16.3477Q15.6094 16.168 15.6013 15.9614Q15.5933 15.7544 15.5132 15.5806Q15.4331 15.4067 15.2812 15.2661Q15.0854 15.085 14.7576 14.7554Q14.0933 14.0879 13.4543 13.3638Q11.4304 11.0703 10.4351 9.11377Q9.75488 7.77686 9.34985 6.1665Q9.17432 5.46924 9.05981 4.76221L9.05981 4.76172L9.05981 4.76172Q8.9812 4.27734 8.93115 3.78809Q8.92285 3.70557 8.95337 3.64111Q8.96387 3.61963 8.97852 3.6001Q8.99463 3.57861 9.01465 3.56201Q9.06519 3.52002 9.14038 3.50732Q10.4402 3.29102 12.2783 3.15088ZM19.5764 7.08447C20.2751 8.62207 18.0161 10.4927 16.5242 11.416C16.3064 11.5503 16.0332 11.5552 15.8105 11.4287C14.1921 10.5103 11.7339 8.62939 12.5764 7.08447C13.2808 5.79297 14.6912 6.16357 15.5708 6.39502C15.8252 6.46191 16.0352 6.51709 16.1709 6.51709C16.3088 6.51709 16.521 6.45996 16.7756 6.39209C17.6396 6.16064 18.9919 5.79834 19.5764 7.08447ZM16.1106 22.7056L10.9773 25.2397C10.3313 25.5591 10.4617 26.478 11.175 26.5781C12.5583 26.7729 14.4314 26.9731 16.2803 26.9731C18.1226 26.9731 19.9407 26.7744 21.2759 26.5806C21.9812 26.478 22.1104 25.5742 21.4744 25.252L16.449 22.707C16.3428 22.6533 16.2175 22.6528 16.1106 22.7056Z" clip-rule="evenodd" fill="#000000" fill-opacity="1.000000" fill-rule="evenodd"/>
		</g>
	</g>
</svg>
