<?xml version="1.0" encoding="UTF-8"?>
<svg width="24px" height="24px" viewBox="0 0 24 24" version="1.1" xmlns="http://www.w3.org/2000/svg" xmlns:xlink="http://www.w3.org/1999/xlink">
    <title>style</title>
    <g id="style" stroke="none" stroke-width="1" fill="none" fill-rule="evenodd" fill-opacity="0.898039222">
        <path d="M16.5104,1.62842 L4.03344,4.97127 C2.35425,5.42147 1.35816,7.14709 1.80786,8.82584 L3.62133,15.5936 C4.07152,17.2723 5.7971,18.2694 7.47581,17.8192 L19.9533,14.4764 C21.632,14.0262 22.6286,12.3005 22.1789,10.6208 L20.3654,3.85308 C19.9152,2.17433 18.1896,1.17822 16.5104,1.62842 Z M4.42162,6.42052 C4.29125,6.4547 4.16869,6.5045 4.05346,6.567 C3.97777,6.609 3.90502,6.65685 3.83617,6.71056 C3.76195,6.76818 3.69311,6.83166 3.63061,6.901 C3.55151,6.98791 3.48168,7.08362 3.42162,7.18811 C3.36108,7.29163 3.31323,7.40003 3.27758,7.51234 C3.24926,7.60121 3.22826,7.69203 3.21557,7.78578 C3.20336,7.8727 3.19848,7.95864 3.19994,8.04555 C3.20287,8.17641 3.22192,8.30728 3.25707,8.43814 L5.07005,15.2059 C5.10521,15.3357 5.15404,15.4588 5.21751,15.5731 L5.21751,15.574 C5.25902,15.6492 5.30687,15.7215 5.36058,15.7908 C5.41868,15.8651 5.48167,15.9344 5.55052,15.9969 C5.63792,16.076 5.73363,16.1453 5.83763,16.2059 C5.94212333,16.2664333 6.05052,16.3142667 6.16282,16.3494 C6.2512,16.3778 6.34202,16.3983 6.43577,16.4119 C6.5222,16.4237 6.60911,16.4285 6.69554,16.4266 C6.82639,16.4246 6.95725,16.4051 7.08762,16.37 L19.5651,13.0271 C19.6955,12.9919 19.818,12.9431 19.9328,12.8796 L19.9333,12.8796 C20.009,12.8386 20.0812,12.7908 20.1506,12.7371 C20.2248,12.6785 20.2936,12.616 20.3561,12.5466 C20.4352,12.4597 20.505,12.364 20.5651,12.2595 C20.6257,12.155 20.6735,12.0466 20.7091,11.9343 C20.7375,11.8464 20.758,11.7556 20.7712,11.6618 C20.7834,11.5749 20.7882,11.488 20.7863,11.4021 C20.7839,11.2712 20.7648,11.1403 20.7297,11.0095 L18.9162,4.24176 C18.8815,4.1109 18.8322,3.98882 18.7692,3.87359 C18.7277,3.79741 18.6799,3.72515 18.6261,3.65581 C18.568,3.58159 18.5046,3.51323 18.4362,3.45073 C18.3488,3.37162 18.2531,3.30228 18.1486,3.24174 C18.0446,3.18119 17.9362,3.13334 17.8239,3.0972 C17.7355,3.06888 17.6447,3.04837 17.551,3.03568 C17.4645,3.02396 17.3776,3.0181 17.2912,3.02005 C17.1598,3.02298 17.0295,3.04154 16.8991,3.07669 L4.42162,6.42052 Z M18.6379,18.6337 L9.82638,18.6337 L15.4255,17.1336 L18.6379,17.1336 C18.7726,17.1336 18.904,17.118 19.0314,17.0868 C19.1154,17.0663 19.1979,17.0389 19.2785,17.0047 C19.3649,16.9686 19.4474,16.9256 19.5251,16.8748 L19.526,16.8748 C19.6252,16.8114 19.7175,16.7362 19.8024,16.6512 C19.8879,16.5662 19.9621,16.4744 20.026,16.3748 C20.0758,16.2967 20.1193,16.2137 20.1564,16.1278 C20.1901,16.0467 20.2174,15.9647 20.2384,15.8807 L20.2384,15.8797 C20.2414,15.868 20.2443,15.8553 20.2472,15.8426 L21.3488,15.5467 C21.4997,15.5067 21.6452,15.4559 21.7848,15.3953 L21.7848,15.4861 C21.7848,17.2245 20.3761,18.6337 18.6379,18.6337 Z M16.9919,22.372 L8.4802,20.0917 L14.2761,20.0917 L17.3801,20.9238 C17.5104,20.9579 17.6413,20.9775 17.7726,20.9804 C17.8591,20.9824 17.9455,20.9765 18.0324,20.9648 C18.1257,20.9521 18.2165,20.9316 18.3053,20.9033 C18.4172,20.8671 18.5256,20.8193 18.6301,20.7587 C18.7345,20.6982 18.8302,20.6288 18.9172,20.5497 L18.9177,20.5497 C18.986,20.4872 19.0495,20.4189 19.1071,20.3437 C19.1613,20.2753 19.2092,20.2021 19.2507,20.1269 C19.257,20.1152 19.2629,20.1034 19.2692,20.0917 L20.861,20.0917 L20.8464,20.1464 C20.3966,21.8261 18.6711,22.8222 16.9919,22.372 Z" id="矢量-424" fill="#000000"></path>
    </g>
</svg>