<?xml version="1.0" encoding="UTF-8"?>
<svg width="24px" height="24px" viewBox="0 0 24 24" version="1.1" xmlns="http://www.w3.org/2000/svg" xmlns:xlink="http://www.w3.org/1999/xlink">
    <title>画板</title>
    <g id="画板" stroke="none" stroke-width="1" fill="none" fill-rule="evenodd">
        <g id="椭圆形-2">
            <circle id="椭圆形" fill="#5F58C7" cx="12" cy="12" r="12"></circle>
            <path d="M17.74 5.9Q17.91 5.92 18.06 6.07Q18.69 6.7 19.17 7.42Q19.61 8.1 19.92 8.85Q20.19 9.49 20.35 10.15Q20.58 11.13 20.58 12.16Q20.58 12.96 20.44 13.73Q20.27 14.61 19.92 15.45Q19.55 16.36 19 17.14Q18.58 17.73 18.08 18.24Q17.92 18.39 17.75 18.42Q17.64 18.43 17.53 18.39Q17.38 18.34 17.28 18.24Q17.18 18.14 17.13 18Q17.09 17.88 17.11 17.77Q17.13 17.6 17.29 17.45Q17.87 16.86 18.3 16.17Q18.65 15.63 18.9 15.02Q19.17 14.37 19.31 13.69Q19.47 12.94 19.47 12.16Q19.47 11.16 19.22 10.22Q19.09 9.74 18.9 9.27Q18.64 8.66 18.29 8.11Q17.85 7.44 17.27 6.86Q17.11 6.71 17.09 6.53Q17.08 6.43 17.11 6.32Q17.17 6.16 17.27 6.06Q17.37 5.97 17.51 5.92Q17.63 5.88 17.74 5.9ZM11.17 7.78Q11.27 8 11.27 8.27L11.27 16.08Q11.27 16.3 11.2 16.5Q11.12 16.69 10.97 16.86Q10.81 17.03 10.62 17.13Q10.44 17.22 10.22 17.24Q10.07 17.26 9.93 17.23Q9.65 17.18 9.4 16.98L6.81 14.87L4.87 14.87Q4.54 14.87 4.27 14.75Q4.03 14.65 3.83 14.45Q3.64 14.26 3.54 14.03Q3.41 13.75 3.41 13.41L3.41 10.95Q3.41 10.63 3.52 10.36Q3.63 10.11 3.83 9.91Q4.04 9.69 4.3 9.58Q4.56 9.47 4.87 9.47L6.81 9.47L9.4 7.37Q9.61 7.2 9.85 7.14Q10.02 7.1 10.2 7.12Q10.41 7.13 10.59 7.22Q10.79 7.31 10.96 7.48Q11.09 7.61 11.17 7.78ZM15.38 7.79Q15.55 7.81 15.7 7.96Q16.15 8.4 16.49 8.91Q16.79 9.37 17 9.88Q17.19 10.34 17.3 10.81Q17.45 11.46 17.45 12.16Q17.45 12.84 17.3 13.5Q17.19 13.97 17 14.42Q16.79 14.93 16.49 15.38Q16.16 15.89 15.72 16.33Q15.57 16.48 15.41 16.51Q15.29 16.53 15.16 16.49Q14.99 16.43 14.89 16.32Q14.8 16.22 14.75 16.09Q14.72 15.98 14.73 15.87Q14.76 15.7 14.91 15.54Q15.37 15.08 15.68 14.54Q15.84 14.27 15.95 13.99Q16.12 13.6 16.2 13.19Q16.31 12.69 16.31 12.16Q16.31 11.7 16.23 11.26Q16.14 10.78 15.95 10.31Q15.7 9.72 15.32 9.22Q15.13 8.97 14.91 8.75Q14.75 8.59 14.73 8.42Q14.72 8.32 14.75 8.21Q14.81 8.05 14.91 7.95Q15.01 7.86 15.15 7.81Q15.27 7.77 15.38 7.79ZM13.22 9.82Q13.41 9.83 13.58 10Q13.72 10.15 13.85 10.31Q14.08 10.62 14.23 10.99Q14.34 11.26 14.4 11.54Q14.46 11.85 14.46 12.17Q14.46 12.45 14.41 12.71Q14.35 13.04 14.22 13.35Q14.09 13.66 13.9 13.93Q13.74 14.15 13.54 14.35Q13.39 14.51 13.22 14.53Q13.11 14.55 12.99 14.51Q12.85 14.46 12.75 14.36Q12.65 14.26 12.6 14.11Q12.56 13.99 12.57 13.88Q12.6 13.71 12.75 13.56Q12.93 13.4 13.05 13.2Q13.13 13.07 13.18 12.93Q13.19 12.9 13.21 12.87Q13.33 12.54 13.33 12.16Q13.33 11.67 13.13 11.28Q13 11 12.77 10.77Q12.61 10.61 12.59 10.43Q12.58 10.33 12.61 10.23Q12.66 10.09 12.76 10Q12.86 9.9 13.01 9.85Q13.12 9.81 13.22 9.82Z" id="形状结合" fill="#FFFFFF"></path>
        </g>
    </g>
</svg>