<?xml version="1.0" encoding="UTF-8"?>
<svg width="24px" height="24px" viewBox="0 0 24 24" version="1.1" xmlns="http://www.w3.org/2000/svg" xmlns:xlink="http://www.w3.org/1999/xlink">
    <title>maintain  layout</title>
    <g id="maintain--layout" stroke="none" stroke-width="1" fill="none" fill-rule="evenodd" fill-opacity="0.898039222">
        <path d="M7.08661,4.69785 L13.9388,4.69785 C14.353,4.69785 14.6783,4.37258 14.6783,3.95881 C14.6783,3.54498 14.353,3.21983 13.9388,3.21983 L6.97,3.21983 C6.894,3.00825 6.79653,2.81075 6.67735,2.62741 C6.48096,2.32489 6.2254,2.06061 5.91117,1.83464 C5.65354,1.64788 5.3809,1.50875 5.09302,1.41708 C4.81612,1.32895 4.52506,1.28491 4.21998,1.28491 C3.89708,1.28491 3.58993,1.33279 3.29863,1.42861 C3.11346,1.48948 2.93463,1.56968 2.76214,1.66922 C2.55794,1.78712 2.37264,1.9249 2.20614,2.08257 C2.01072,2.26762 1.8414,2.48018 1.69795,2.72006 C1.5895,2.90365 1.5035,3.09443 1.43983,3.29241 L1.43983,3.29247 C1.34944,3.57365 1.3043,3.86934 1.3043,4.17954 C1.3043,4.49902 1.3509,4.80185 1.4441,5.08808 C1.45203,5.11266 1.46032,5.13718 1.46898,5.16146 C1.56157,5.42049 1.69282,5.66562 1.86312,5.89684 C2.07964,6.19088 2.33056,6.43345 2.616,6.62442 C2.82179,6.7622 3.04539,6.8732 3.28692,6.95743 L3.28692,17.023 C2.6942,17.2111 2.21138,17.5581 1.83896,18.0641 C1.4663,18.57 1.28003,19.1408 1.28003,19.7765 C1.28003,20.1025 1.32992,20.4114 1.4297,20.7033 C1.49265,20.8877 1.57572,21.0653 1.67843,21.236 C1.94094,21.6803 2.29726,22.0355 2.74762,22.3014 C2.96171,22.4255 3.18433,22.5203 3.41512,22.5858 C3.67312,22.6589 3.94136,22.6955 4.21998,22.6955 C4.56117,22.6955 4.88357,22.6418 5.1867,22.5344 C5.43616,22.4461 5.67281,22.3214 5.89653,22.1604 C6.39545,21.8036 6.74518,21.3366 6.94609,20.7592 L17.0488,20.7592 C17.2497,21.3366 17.6029,21.8068 18.1083,22.1701 C18.6137,22.5366 19.1772,22.7198 19.7992,22.7198 C20.3273,22.7198 20.8133,22.5885 21.2572,22.3258 C21.4585,22.2051 21.6416,22.0654 21.8062,21.9066 C22.0046,21.7155 22.1763,21.4969 22.3214,21.2506 C22.5838,20.7998 22.7149,20.3084 22.7149,19.7765 C22.7149,19.1538 22.5368,18.5976 22.1805,18.1079 C21.8208,17.6181 21.3543,17.2727 20.781,17.0716 L20.781,11.0281 L20.7771,11.0281 L20.7771,10.0561 C20.7771,9.64231 20.4516,9.31716 20.0375,9.31716 C19.6233,9.31716 19.2979,9.64231 19.2979,10.0561 L19.2979,16.9324 C18.6805,17.0406 18.156,17.3076 17.7243,17.7332 C17.2902,18.1614 17.0181,18.6803 16.9079,19.29 L7.08698,19.29 C6.98012,18.6803 6.71285,18.1581 6.2853,17.7235 C5.85762,17.2889 5.33931,17.0165 4.73024,16.9062 L4.73024,7.07417 C5.0391,7.01989 5.32467,6.92224 5.58694,6.78117 C5.84164,6.64418 6.07451,6.46614 6.2853,6.24718 C6.53427,5.98851 6.72883,5.70508 6.86899,5.39689 C6.96939,5.17652 7.04184,4.94353 7.08661,4.69785 Z M2.82386,3.71612 C2.773,3.86177 2.74762,4.01621 2.74762,4.17954 C2.74762,4.37789 2.78202,4.56221 2.85107,4.73262 C2.92316,4.91053 3.03282,5.0732 3.18006,5.22062 C3.3251,5.36426 3.48502,5.47172 3.65958,5.54308 C3.83207,5.61353 4.0187,5.64872 4.21998,5.64872 C4.42515,5.64872 4.61484,5.61213 4.78916,5.53894 C4.95908,5.46758 5.11437,5.36145 5.25502,5.22062 C5.40237,5.0732 5.51191,4.91053 5.58401,4.73262 C5.65305,4.56221 5.68757,4.37789 5.68757,4.17954 C5.68757,3.96979 5.64902,3.77699 5.57181,3.60115 C5.49984,3.43702 5.3942,3.28765 5.25502,3.15304 C5.11717,3.0166 4.9653,2.91316 4.7994,2.84271 C4.62228,2.76745 4.42906,2.72982 4.21998,2.72982 C4.02273,2.72982 3.83914,2.76403 3.66958,2.83259 C3.491,2.90474 3.3279,3.01477 3.18006,3.1628 C3.01282,3.33029 2.89401,3.51479 2.82386,3.71612 Z M3.18006,20.8079 C3.31937,20.9427 3.47233,21.0449 3.63896,21.1146 C3.81706,21.1891 4.01077,21.2263 4.21998,21.2263 C4.42125,21.2263 4.60764,21.1907 4.77915,21.1194 C4.95298,21.0473 5.11168,20.9385 5.25502,20.7933 C5.54339,20.5047 5.68757,20.1658 5.68757,19.7765 C5.68757,19.3744 5.54339,19.029 5.25502,18.7403 C5.11168,18.5951 4.95298,18.4864 4.77915,18.4142 C4.60764,18.343 4.42125,18.3074 4.21998,18.3074 C4.02273,18.3074 3.83914,18.3416 3.66958,18.4102 C3.491,18.4823 3.3279,18.5923 3.18006,18.7403 C2.89169,19.029 2.74762,19.3744 2.74762,19.7765 C2.74762,19.9825 2.78483,20.1727 2.85924,20.3469 C2.93133,20.5154 3.03819,20.6692 3.18006,20.8079 Z M18.7399,20.8176 C19.0282,21.1063 19.3733,21.2506 19.7749,21.2506 C20.1799,21.2506 20.5265,21.1063 20.815,20.8176 C21.1032,20.529 21.2474,20.1819 21.2474,19.7765 C21.2474,19.3744 21.1032,19.0322 20.815,18.75 C20.5265,18.4711 20.1799,18.3317 19.7749,18.3317 C19.3733,18.3317 19.0282,18.476 18.7399,18.7646 C18.4517,19.05 18.3075,19.3873 18.3075,19.7765 C18.3075,20.1819 18.4517,20.529 18.7399,20.8176 Z" id="矢量-803" fill="#000000"></path>
        <path d="M18.7756,1.32319 C18.8139,1.29442 18.857,1.28003 18.905,1.28003 C18.9657,1.28003 19.0264,1.32479 19.0871,1.41432 C19.2724,2.30637 19.683,3.07052 20.3188,3.70679 C20.9547,4.34305 21.7104,4.75391 22.5858,4.93935 C22.6306,4.93935 22.6641,4.95854 22.6865,4.9969 C22.7089,5.03527 22.72,5.07684 22.72,5.1216 C22.72,5.16956 22.7089,5.20792 22.6865,5.2367 C22.6641,5.26867 22.6306,5.29265 22.5858,5.30864 C21.6944,5.49089 20.9339,5.90014 20.3045,6.53641 C19.6782,7.17587 19.2724,7.93203 19.0871,8.8049 C19.0711,8.85286 19.0488,8.88803 19.02,8.91041 C18.9881,8.93279 18.9497,8.94398 18.905,8.94398 C18.857,8.94398 18.8139,8.93279 18.7756,8.91041 C18.7372,8.88803 18.7101,8.85286 18.6941,8.8049 C18.5279,7.93203 18.1222,7.17587 17.4767,6.53641 C16.8313,5.90014 16.0724,5.49089 15.2001,5.30864 C15.1682,5.29265 15.1378,5.26867 15.1091,5.2367 C15.0771,5.20792 15.0612,5.16956 15.0612,5.1216 C15.0612,5.07684 15.0771,5.03527 15.1091,4.9969 C15.1378,4.95854 15.1682,4.93935 15.2001,4.93935 C16.0884,4.75391 16.8505,4.34305 17.4863,3.70679 C18.1253,3.07052 18.5279,2.30637 18.6941,1.41432 C18.7101,1.38554 18.7372,1.35517 18.7756,1.32319 Z" id="矢量-16" fill="#000000"></path>
    </g>
</svg>