<?xml version="1.0" encoding="UTF-8"?>
<svg width="24px" height="24px" viewBox="0 0 24 24" version="1.1" xmlns="http://www.w3.org/2000/svg" xmlns:xlink="http://www.w3.org/1999/xlink">
    <title>common</title>
    <g id="common" stroke="none" stroke-width="1" fill="none" fill-rule="evenodd" fill-opacity="0.898039222">
        <path d="M18.25,2 C18.5269,2 18.7973,2.02917 19.0613,2.08751 C19.282,2.13628 19.4982,2.20542 19.7099,2.29495 C20.1586,2.48474 20.5558,2.75254 20.9017,3.09835 C21.2475,3.44416 21.5153,3.84142 21.7051,4.29014 C21.7946,4.50176 21.8637,4.71789 21.9125,4.93852 C21.9708,5.20257 22,5.47306 22,5.75 L22,18.25 C22,18.5269 21.9708,18.7973 21.9125,19.0614 C21.8637,19.282 21.7946,19.4982 21.705,19.7099 C21.5153,20.1586 21.2475,20.5558 20.9017,20.9017 C20.5558,21.2475 20.1586,21.5153 19.7099,21.7051 C19.4982,21.7946 19.2821,21.8637 19.0615,21.9125 C18.7975,21.9708 18.527,22 18.25,22 L5.75,22 C5.47311,22 5.20266,21.9708 4.93865,21.9125 C4.71798,21.8637 4.50181,21.7946 4.29014,21.705 C4.07728,21.615 3.876,21.5074 3.6863,21.3823 C3.4761,21.2436 3.28012,21.0834 3.09835,20.9017 C2.91655,20.7199 2.75631,20.5238 2.61763,20.3136 C2.49253,20.1239 2.38496,19.9227 2.29495,19.7099 C2.20543,19.4982 2.13628,19.282 2.08752,19.0614 C2.02917,18.7974 2,18.5269 2,18.25 L2,5.75 C2,5.47311 2.02917,5.20266 2.08751,4.93867 L2.08751,4.93865 L2.08751,4.93864 C2.13628,4.71797 2.20542,4.5018 2.29495,4.29014 C2.38497,4.07732 2.49253,3.87608 2.61764,3.68641 L2.61764,3.6864 C2.75632,3.47616 2.91655,3.28015 3.09835,3.09835 C3.28015,2.91655 3.47617,2.75631 3.68641,2.61763 C3.87608,2.49253 4.07732,2.38496 4.29014,2.29495 C4.5018,2.20542 4.71797,2.13628 4.93864,2.08751 L4.93865,2.08751 C5.20265,2.02917 5.4731,2 5.75,2 L18.25,2 Z M18.25,3.25 L5.75,3.25 C5.55756,3.25 5.36996,3.27103 5.1872,3.31309 C5.04767,3.34521 4.91097,3.38958 4.77708,3.44621 C4.6391,3.50457 4.50837,3.57404 4.3849,3.65464 L4.38489,3.65464 C4.24079,3.7487 4.10657,3.8579 3.98223,3.98223 C3.8579,4.10657 3.7487,4.24078 3.65465,4.38488 C3.57405,4.50836 3.50457,4.63909 3.44621,4.77708 C3.38957,4.91097 3.3452,5.04768 3.31309,5.18722 C3.27103,5.36997 3.25,5.55757 3.25,5.75 L3.25,18.25 C3.25,18.5894 3.3154,18.9137 3.44621,19.2229 C3.50456,19.3609 3.57403,19.4916 3.6546,19.6151 C3.74867,19.7592 3.85788,19.8934 3.98223,20.0178 C4.10657,20.1421 4.24079,20.2513 4.38489,20.3454 C4.50836,20.426 4.63909,20.4954 4.77708,20.5538 C5.08633,20.6846 5.41064,20.75 5.75,20.75 L18.25,20.75 C18.5894,20.75 18.9137,20.6846 19.2229,20.5538 C19.5219,20.4273 19.7869,20.2486 20.0178,20.0178 C20.2486,19.7869 20.4273,19.5219 20.5538,19.2229 C20.6104,19.089 20.6548,18.9523 20.6869,18.8128 C20.729,18.63 20.75,18.4424 20.75,18.25 L20.75,5.75 C20.75,5.41064 20.6846,5.08634 20.5538,4.77708 C20.4273,4.47806 20.2486,4.21311 20.0178,3.98223 C19.8934,3.85789 19.7592,3.74868 19.6151,3.65462 C19.4916,3.57404 19.3609,3.50456 19.2229,3.44621 C19.089,3.38957 18.9523,3.3452 18.8128,3.31309 C18.63,3.27103 18.4424,3.25 18.25,3.25 Z M6.16679,8.52785 L6.16679,9.91694 C6.16679,10.2669 6.44179,10.5419 6.79179,10.5419 C7.1418,10.5419 7.41679,10.2669 7.41679,9.91694 L7.41679,8.52785 C7.41679,8.43969 7.42669,8.35388 7.44648,8.27041 L7.44648,8.2704 L7.44649,8.27038 C7.46059,8.21092 7.4797,8.15265 7.50385,8.09558 C7.52924,8.03554 7.55938,7.97858 7.59428,7.9247 C7.6366,7.85935 7.6859,7.79854 7.74219,7.74225 C7.79848,7.68596 7.8593,7.63665 7.92464,7.59433 C7.97853,7.55944 8.03549,7.52929 8.09553,7.5039 C8.1526,7.47976 8.21087,7.46064 8.27033,7.44654 C8.35381,7.42674 8.43963,7.41685 8.5278,7.41685 L9.91679,7.41665 L9.91684,7.41665 C10.2668,7.4166 10.5418,7.1416 10.5417,6.79161 C10.5417,6.44161 10.2667,6.16665 9.91671,6.16665 L9.91666,6.1667 L9.91666,6.16665 L8.5278,6.16685 C8.35517,6.16685 8.18649,6.18488 8.02175,6.22093 C7.88116,6.2517 7.74344,6.29561 7.60859,6.35264 C7.47372,6.40969 7.34624,6.47791 7.22615,6.55732 C7.09468,6.64427 6.97206,6.74461 6.85831,6.85836 C6.74456,6.97211 6.64421,7.09473 6.55727,7.2262 C6.47786,7.34629 6.40963,7.47377 6.35259,7.60865 C6.29555,7.74349 6.25165,7.88121 6.22088,8.0218 C6.18482,8.18654 6.16679,8.35522 6.16679,8.52785 Z M12.166,15.0064 C12.1554,15.0433 12.137,15.0723 12.1107,15.0934 C12.0844,15.1145 12.0476,15.125 12.0002,15.125 C11.9739,15.125 11.945,15.1145 11.9134,15.0934 C11.8819,15.0723 11.8608,15.0433 11.8503,15.0064 C11.7835,14.697 11.6814,14.4053 11.5441,14.1313 C11.3677,13.7794 11.133,13.4566 10.8402,13.163 C10.3246,12.6461 9.71435,12.3112 9.00938,12.1583 C8.9673,12.1477 8.93573,12.1293 8.91469,12.1029 C8.90114,12.0893 8.89108,12.0743 8.88451,12.0579 C8.87832,12.0425 8.87523,12.0259 8.87523,12.008 C8.87523,11.971 8.88838,11.9394 8.91469,11.913 C8.93573,11.8866 8.9673,11.8682 9.00938,11.8576 C9.36558,11.7867 9.69701,11.6694 10.0037,11.5057 C10.313,11.3406 10.5971,11.1283 10.856,10.8687 C11.3663,10.3518 11.6977,9.73211 11.8503,9.00953 C11.8608,8.97261 11.8792,8.94097 11.9055,8.9146 C11.9192,8.9009 11.9343,8.89076 11.9508,8.88418 C11.966,8.87809 11.9825,8.87504 12.0002,8.87504 C12.0371,8.87504 12.0713,8.88823 12.1028,8.9146 C12.1344,8.94097 12.1554,8.97261 12.166,9.00953 C12.2452,9.38495 12.3742,9.7326 12.5529,10.0525 C12.7181,10.3483 12.9258,10.6204 13.1761,10.8687 C13.4569,11.1502 13.7657,11.3762 14.1027,11.5466 L14.1027,11.5466 C14.3845,11.6891 14.6859,11.7928 15.0069,11.8576 C15.0489,11.8682 15.0779,11.8866 15.0937,11.913 C15.1147,11.9394 15.1252,11.971 15.1252,12.008 C15.1252,12.0339 15.12,12.0572 15.1096,12.078 C15.1052,12.0868 15.0999,12.0951 15.0937,12.1029 C15.0779,12.1293 15.0489,12.1477 15.0069,12.1583 C14.2914,12.3112 13.6758,12.6461 13.1603,13.163 C12.65,13.6852 12.3185,14.2996 12.166,15.0064 Z M17.8333,14.0832 L17.8335,15.4721 C17.8335,15.7921 17.7715,16.0985 17.6477,16.3914 C17.5281,16.674 17.3596,16.9241 17.1419,17.1417 C16.9242,17.3594 16.6741,17.528 16.3916,17.6475 C16.0987,17.7714 15.7923,17.8333 15.4723,17.8333 L14.0833,17.8333 C13.7333,17.8333 13.4583,17.5583 13.4583,17.2083 C13.4583,16.8583 13.7333,16.5833 14.0833,16.5833 L15.4723,16.5833 C15.6233,16.5833 15.7674,16.5543 15.9046,16.4963 C15.9646,16.4709 16.0216,16.4407 16.0754,16.4059 C16.1408,16.3635 16.2017,16.3142 16.258,16.2579 C16.3143,16.2015 16.3637,16.1407 16.406,16.0753 C16.4409,16.0214 16.471,15.9645 16.4964,15.9045 C16.5544,15.7672 16.5835,15.6231 16.5835,15.4722 L16.5833,14.0832 L16.5834,14.0832 L16.5833,14.0832 C16.5833,13.7332 16.8583,13.4582 17.2083,13.4582 C17.5583,13.4582 17.8333,13.7332 17.8333,14.0831 L17.8333,14.0832 Z" id="合并" fill="#000000"></path>
    </g>
</svg>