<svg width="16.000000" height="16.000000" viewBox="0 0 16 16" fill="none" xmlns="http://www.w3.org/2000/svg" xmlns:xlink="http://www.w3.org/1999/xlink">
	<desc>
			Created with Pixso.
	</desc>
	<defs>
		<clipPath id="clip15_14507">
			<rect id="返回-浅色" width="16.000000" height="16.000000" fill="white" fill-opacity="0"/>
		</clipPath>
	</defs>
	<g clip-path="url(#clip15_14507)">
		<path id="矢量 1" d="M9.98 3.03C9.84 2.88 9.61 2.8 9.41 2.8C9.24 2.8 9.07 2.87 8.93 3L5.23 6.89C4.66 7.49 4.65 8.45 5.2 9.06L8.9 12.96C9.03 13.1 9.28 13.18 9.46 13.2C9.66 13.19 9.84 13.11 9.98 12.96C10.26 12.67 10.24 12.17 9.98 11.86L6.57 8.27C6.43 8.13 6.42 7.89 6.55 7.74L9.98 4.13C10.27 3.83 10.27 3.33 9.98 3.03ZM9.83 3.17C9.94 3.28 10 3.43 10 3.58C10 3.43 9.94 3.28 9.83 3.17ZM6.4 7.61C6.31 7.72 6.26 7.86 6.26 8C6.26 7.86 6.31 7.72 6.4 7.61Z" fill="#FFFFFF" fill-opacity="0.858824" fill-rule="evenodd"/>
	</g>
</svg>