<?xml version="1.0" encoding="UTF-8"?>
<svg width="14px" height="14px" viewBox="0 0 14 14" version="1.1" xmlns="http://www.w3.org/2000/svg" xmlns:xlink="http://www.w3.org/1999/xlink">
    <title>画板</title>
    <g id="画板" stroke="none" stroke-width="1" fill="none" fill-rule="evenodd">
        <rect id="矩形" x="0" y="0" width="14" height="14"></rect>
        <path d="M4.31749942,12.1428827 L4.19380318,12.0366353 L4.08152174,11.9227251 C4.06811579,11.9078725 4.05497091,11.8928623 4.04208716,11.8777006 L0.687710938,8.78468906 C-0.0900783414,8.06801543 -0.172773729,6.88411008 0.467694553,6.0676313 L0.566803178,5.95163527 L0.673725921,5.84674424 C1.44547364,5.14944301 2.64120646,5.14563337 3.41570438,5.85927425 L5.46780318,7.74963527 L10.4003268,2.4779794 C11.1188075,1.70999422 12.3041958,1.63534432 13.1135387,2.26983709 L13.2358032,2.37463527 L13.3495164,2.48999465 C14.0419625,3.25716567 14.0379203,4.4447239 13.3257416,5.20597284 L7.05880318,11.9036353 L7.04680318,11.9176353 L6.93618832,12.0281909 C6.93328701,12.0308124 6.93037971,12.033424 6.92746647,12.0360258 L7.03071135,11.9347404 C6.3122306,12.7027255 5.12684228,12.7773754 4.31749942,12.1428827 Z M12.4630056,3.01161434 C12.0585313,2.71867095 11.4954828,2.76791335 11.1483685,3.14014787 L5.5198924,9.1739908 L2.5974928,6.4490179 C2.18424287,6.0636561 1.55865565,6.09245995 1.18199836,6.49637544 C0.802715081,6.90310696 0.82839738,7.53396465 1.23349608,7.9117253 L4.88812221,11.3197193 L4.98572042,11.4000951 C5.06436819,11.4570563 5.14901144,11.50108 5.23697403,11.5327667 C5.6029193,11.6638184 6.02114162,11.5709839 6.3008924,11.2689908 L12.6110759,4.5041446 C12.9816844,4.10671562 12.9645193,3.46864745 12.5606038,3.09199016 Z" id="形状结合" fill-opacity="0.05" fill="#000000"></path>
        <path d="M4.39890806,11.1258588 C3.84500549,11.1258588 3.39597873,10.681994 3.39597873,10.1258588 C3.39597873,9.57357408 3.83386008,9.12585883 4.39890806,9.12585883 L8.39497873,9.12485883 L8.39597873,0.874221284 C8.39597873,0.362225238 8.77869891,-0.059753939 9.27864617,-0.117424454 L9.39597873,-0.124141168 C9.94826348,-0.124141168 10.3959787,0.330805737 10.3959787,0.874221284 L10.3949787,10.1078588 L10.3959787,10.1258588 C10.3959787,10.5597968 10.125654,10.9291792 9.73571935,11.0675602 L9.62648194,11.0994914 C9.5895326,11.1081141 9.55176877,11.1147059 9.51331129,11.1191421 L9.39597873,11.1258588 L4.39890806,11.1258588 Z" id="Rectangle-62" fill="#FFFFFF" transform="translate(6.895979, 5.500859) rotate(43.000000) translate(-6.895979, -5.500859) "></path>
    </g>
</svg>