<?xml version="1.0" encoding="UTF-8"?>
<svg width="20px" height="20px" viewBox="0 0 20 20" version="1.1" xmlns="http://www.w3.org/2000/svg" xmlns:xlink="http://www.w3.org/1999/xlink">
    <title>画板</title>
    <g id="画板" stroke="none" stroke-width="1" fill="none" fill-rule="evenodd">
        <g id="返回-2" transform="translate(7, 5)" fill="#000000" fill-rule="nonzero">
            <path d="M5.1851339,0.23 C5.0451339,0.08 4.8151339,0 4.6151339,0 C4.4451339,0 4.2751339,0.07 4.1351339,0.2 L0.435133929,4.09 C-0.134866071,4.69 -0.144866071,5.65 0.405133929,6.26 L4.1051339,10.16 C4.2351339,10.3 4.4851339,10.38 4.6651339,10.4 C4.8651339,10.39 5.0451339,10.31 5.1851339,10.16 C5.4651339,9.87 5.4451339,9.37 5.1851339,9.06 L1.77513393,5.47 C1.63513393,5.33 1.62513393,5.09 1.75513393,4.94 L5.1851339,1.33 C5.4751339,1.03 5.4751339,0.53 5.1851339,0.23 Z" id="矢量-1-path"></path>
        </g>
    </g>
</svg>