<?xml version="1.0" encoding="UTF-8"?>
<svg width="24px" height="24px" viewBox="0 0 24 24" version="1.1" xmlns="http://www.w3.org/2000/svg" xmlns:xlink="http://www.w3.org/1999/xlink">
    <title>ic_ai</title>
    <g id="ic_ai" stroke="none" stroke-width="1" fill="none" fill-rule="evenodd">
        <g id="ic_public_scan" transform="translate(2.000000, 2.000000)" fill="#000000" fill-rule="nonzero">
            <path d="M19.25,12 C19.6296958,12 19.943491,12.2821539 19.9931534,12.6482294 L20,12.75 L20,16 C20,18.1421954 18.3160315,19.8910789 16.1996403,19.9951047 L16,20 L12.75,20 C12.3357864,20 12,19.6642136 12,19.25 C12,18.8703042 12.2821539,18.556509 12.6482294,18.5068466 L12.75,18.5 L16,18.5 C17.3254834,18.5 18.4100387,17.4684641 18.4946823,16.1643757 L18.5,16 L18.5,12.75 C18.5,12.3357864 18.8357864,12 19.25,12 Z M0.75,12 C1.12969577,12 1.44349096,12.2821539 1.49315338,12.6482294 L1.5,12.75 L1.5,16 C1.5,17.3254834 2.53153594,18.4100387 3.83562431,18.4946823 L4,18.5 L7.25,18.5 C7.66421356,18.5 8,18.8357864 8,19.25 C8,19.6296958 7.71784612,19.943491 7.35177056,19.9931534 L7.25,20 L4,20 C1.85780461,20 0.10892112,18.3160315 0.00489531,16.1996403 L0,16 L0,12.75 C0,12.3357864 0.33578644,12 0.75,12 Z M16,0 C18.1421954,0 19.8910789,1.68396847 19.9951047,3.80035966 L20,4 L20,7.25 C20,7.66421356 19.6642136,8 19.25,8 C18.8703042,8 18.556509,7.71784612 18.5068466,7.35177056 L18.5,7.25 L18.5,4 C18.5,2.6745166 17.4684641,1.58996133 16.1643757,1.50531768 L16,1.5 L12.75,1.5 C12.3357864,1.5 12,1.16421356 12,0.75 C12,0.37030423 12.2821539,0.05650904 12.6482294,0.00684662 L12.75,0 L16,0 Z M7.25,0 C7.66421356,0 8,0.33578644 8,0.75 C8,1.12969577 7.71784612,1.44349096 7.35177056,1.49315338 L7.25,1.5 L4,1.5 C2.6745166,1.5 1.58996133,2.53153594 1.50531768,3.83562431 L1.5,4 L1.5,7.25 C1.5,7.66421356 1.16421356,8 0.75,8 C0.37030423,8 0.05650904,7.71784612 0.00684662,7.35177056 L0,7.25 L0,4 C0,1.85780461 1.68396847,0.10892112 3.80035966,0.00489531 L4,0 L7.25,0 Z" id="path-1"></path>
        </g>
        <text id="A" font-family="HarmonyHeiTi-SemiBold, HarmonyHeiTi" font-size="12" font-weight="500" fill="#000000">
            <tspan x="8" y="16">A</tspan>
        </text>
    </g>
</svg>