<svg width="24.000000" height="24.000000" viewBox="0 0 24 24" fill="none" xmlns="http://www.w3.org/2000/svg" xmlns:xlink="http://www.w3.org/1999/xlink">
	<defs>
		<clipPath id="clip464_24850">
			<rect id="属性 1=.down" width="24.000000" height="24.000000" fill="white" fill-opacity="0"/>
		</clipPath>
	</defs>
	<rect id="属性 1=.down" width="24.000000" height="24.000000" fill="#FFFFFF" fill-opacity="0"/>
	<g clip-path="url(#clip464_24850)">
		<path id="矩形 1915 (边框)" d="M16.5 23C18.7 23 20.5 21.2 20.5 19L20.5 5C20.5 2.79 18.7 1 16.5 1L7.5 1C5.29 1 3.5 2.79 3.5 5L3.5 19C3.5 21.2 5.29 23 7.5 23L16.5 23ZM16.5 21.5C17.88 21.5 19 20.38 19 19L19 5C19 3.61 17.88 2.5 16.5 2.5L7.5 2.5C6.11 2.5 5 3.61 5 5L5 19C5 20.38 6.11 21.5 7.5 21.5L16.5 21.5Z" fill="#000000" fill-opacity="1.000000" fill-rule="evenodd"/>
		<rect id="矩形 1968" x="17.500000" y="12.000000" rx="1.000000" width="8.000000" height="11.000000" transform="rotate(90 17.500000 12.000000)" fill="#000000" fill-opacity="1.000000"/>
	</g>
</svg>