<?xml version="1.0" encoding="UTF-8"?>
<svg width="20px" height="20px" viewBox="0 0 20 20" version="1.1" xmlns="http://www.w3.org/2000/svg" xmlns:xlink="http://www.w3.org/1999/xlink">
    <title>返回</title>
    <defs>
        <rect id="path-1" x="0" y="0" width="20" height="20"></rect>
    </defs>
    <g id="Page-1" stroke="none" stroke-width="1" fill="none" fill-rule="evenodd">
        <g id="返回">
            <mask id="mask-2" fill="white">
                <use xlink:href="#path-1"></use>
            </mask>
            <g id="path-1"></g>
            <path d="M12.1851339,5.23 C12.0451339,5.08 11.8151339,5 11.6151339,5 C11.4451339,5 11.2751339,5.07 11.1351339,5.2 L7.43513393,9.09 C6.86513393,9.69 6.85513393,10.65 7.40513393,11.26 L11.1051339,15.16 C11.2351339,15.3 11.4851339,15.38 11.6651339,15.4 C11.8651339,15.39 12.0451339,15.31 12.1851339,15.16 C12.4651339,14.87 12.4451339,14.37 12.1851339,14.06 L8.77513393,10.47 C8.63513393,10.33 8.62513393,10.09 8.75513393,9.94 L12.1851339,6.33 C12.4751339,6.03 12.4751339,5.53 12.1851339,5.23 Z M12.0351339,5.37 C12.1451339,5.48 12.2051339,5.63 12.2051339,5.78 C12.2051339,5.63 12.1451339,5.48 12.0351339,5.37 Z M8.60513393,9.81 C8.51513393,9.92 8.46513393,10.06 8.46513393,10.2 C8.46513393,10.06 8.51513393,9.92 8.60513393,9.81 Z" id="矢量-1" fill="#000000" fill-rule="nonzero" mask="url(#mask-2)"></path>
        </g>
    </g>
</svg>