<?xml version="1.0" encoding="UTF-8"?>
<svg width="16px" height="16px" viewBox="0 0 16 16" version="1.1" xmlns="http://www.w3.org/2000/svg" xmlns:xlink="http://www.w3.org/1999/xlink">
    <title>返回</title>
    <g id="页面-1" stroke="none" stroke-width="1" fill="none" fill-rule="evenodd">
        <g id="普通笔记本---优先4:3-pad-横屏启动" transform="translate(-297.000000, -210.000000)">
            <g id="Templates/Design-size/PC/Window/Immersive/focus" transform="translate(285.000000, 190.000000)">
                <g id="编组-6" transform="translate(12.000000, 16.000000)">
                    <g id="返回" transform="translate(0.000000, 4.000000)">
                        <rect id="最大化" x="0" y="0" width="16" height="16"></rect>
                        <path d="M5.92565284,3.14760629 L5.94942779,3.17122329 L9.6199092,7.03426691 C10.1161389,7.55652995 10.126477,8.39652538 9.65092356,8.93202727 L9.6199092,8.96578872 L5.94942779,12.8288323 C5.8538621,12.9294116 5.73217058,12.985736 5.60734395,12.9978055 L5.57323987,13 L5.53908397,13 C5.40249491,12.9956111 5.26714953,12.9385552 5.16289606,12.8288323 C4.95345827,12.6084069 4.94597835,12.255918 5.14045629,12.0260595 L5.16289606,12.0010373 L8.57120023,8.41392535 C8.78063801,8.19349996 8.78811793,7.84101103 8.59363999,7.61115253 L8.57120023,7.58613029 L5.16289606,3.99901836 C4.94570131,3.77042906 4.94570131,3.39981259 5.16289606,3.17122329 C5.26761495,3.0610106 5.40370397,3.00393617 5.54091336,3 L5.57522154,3.00012301 C5.70097542,3.0046332 5.82555252,3.05379429 5.92565284,3.14760629 Z" id="路径" fill-opacity="0.9" fill="#182431" fill-rule="nonzero" transform="translate(7.500000, 8.000000) scale(-1, 1) translate(-7.500000, -8.000000) "></path>
                        <path d="M5.58268643,2.80025151 L5.54192686,2.80000129 C5.3415543,2.8056453 5.15664505,2.88775742 5.01820367,3.03346176 C4.7276607,3.33924731 4.7276607,3.83099434 5.01820367,4.13677989 L8.44504038,7.74468142 C8.57077456,7.89341854 8.56462674,8.13079888 8.42650785,8.27616381 L5.01820367,11.8632757 L4.99185668,11.8925306 C4.7270349,12.2054017 4.73914226,12.6728922 5.01820367,12.9665939 C5.15602863,13.1116495 5.33992109,13.1936941 5.53295728,13.2 L5.57353632,13.2 L5.62048302,13.1973928 C5.80312804,13.1798365 5.96837286,13.0995622 6.09471306,12.9665939 L9.79850655,9.06732942 C10.3463586,8.45045757 10.3318958,7.49293715 9.76519448,6.89650538 L6.06689854,3.0057144 C5.92955463,2.87688253 5.75979038,2.80660339 5.58268643,2.80025151 Z M5.57551799,3.00012301 C5.70127186,3.0046332 5.82584897,3.05379429 5.92594928,3.14760629 L9.62020565,7.03426691 C10.1164353,7.55652995 10.1267734,8.39652538 9.65122,8.93202727 L5.94972423,12.8288323 C5.85415855,12.9294116 5.73246702,12.985736 5.6076404,12.9978055 L5.57353632,13 L5.53938042,13 C5.40279136,12.9956111 5.26744598,12.9385552 5.1631925,12.8288323 C4.95375472,12.6084069 4.9462748,12.255918 5.14075274,12.0260595 L8.57149667,8.41392535 C8.78093446,8.19349996 8.78841438,7.84101103 8.59393644,7.61115253 L5.1631925,3.99901836 C4.94599776,3.77042906 4.94599776,3.39981259 5.1631925,3.17122329 C5.26791139,3.0610106 5.40400042,3.00393617 5.54120981,3 L5.57551799,3.00012301 Z" id="路径" fill-opacity="0.9" fill="#000000" fill-rule="nonzero" transform="translate(7.500148, 8.000001) scale(-1, 1) translate(-7.500148, -8.000001) "></path>
                    </g>
                </g>
            </g>
        </g>
    </g>
</svg>