<svg width="24.000000" height="24.000000" viewBox="0 0 24 24" fill="none" xmlns="http://www.w3.org/2000/svg" xmlns:xlink="http://www.w3.org/1999/xlink">
	<defs>
		<clipPath id="clip469_25925">
			<rect id="属性 1=up" width="24.000000" height="24.000000" fill="white" fill-opacity="0"/>
		</clipPath>
	</defs>
	<rect id="属性 1=up" width="24.000000" height="24.000000" fill="#FFFFFF" fill-opacity="0"/>
	<g clip-path="url(#clip469_25925)">
		<path id="矩形 1915 (边框)" d="M16.5 23C18.7 23 20.5 21.2 20.5 19L20.5 5C20.5 2.79 18.7 1 16.5 1L7.5 1C5.29 1 3.5 2.79 3.5 5L3.5 19C3.5 21.2 5.29 23 7.5 23L16.5 23ZM16.5 21.5C17.88 21.5 19 20.38 19 19L19 5C19 3.61 17.88 2.5 16.5 2.5L7.5 2.5C6.11 2.5 5 3.61 5 5L5 19C5 20.38 6.11 21.5 7.5 21.5L16.5 21.5Z" fill="#000000" fill-opacity="1.000000" fill-rule="evenodd"/>
		<path id="矩形 1971" d="M8.96 5.96L11.46 3.46Q11.52 3.41 11.58 3.37Q11.64 3.33 11.71 3.3Q11.78 3.27 11.85 3.26Q11.92 3.25 12 3.25Q12.07 3.25 12.14 3.26Q12.21 3.27 12.28 3.3Q12.35 3.33 12.41 3.37Q12.47 3.41 12.53 3.46L15.03 5.96L13.96 7.03L11.46 4.53L12 4L12.53 4.53L10.03 7.03L8.96 5.96ZM15 5.96L15.03 5.96C15.32 6.26 15.32 6.73 15.03 7.03C14.73 7.32 14.26 7.32 13.96 7.03L13.96 7L15 5.96ZM10.03 7L10.03 7.03C9.73 7.32 9.26 7.32 8.96 7.03C8.67 6.73 8.67 6.26 8.96 5.96L8.99 5.96L10.03 7Z" fill="#000000" fill-opacity="1.000000" fill-rule="evenodd"/>
		<path id="矢量 7" d="M12 5L12 10.5" stroke="#000000" stroke-opacity="1.000000" stroke-width="1.500000" stroke-linecap="round"/>
		<path id="减去顶层" d="M17.5 13L17.5 19C17.5 19.5522 17.0527 20 16.5 20L7.5 20C6.94727 20 6.5 19.5522 6.5 19L6.5 13C6.5 12.4478 6.94727 12 7.5 12L16.5 12C17.0527 12 17.5 12.4478 17.5 13Z" clip-rule="evenodd" fill="#000000" fill-opacity="1.000000" fill-rule="evenodd"/>
	</g>
</svg>