<svg viewBox="0 0 8 8" xmlns="http://www.w3.org/2000/svg" xmlns:xlink="http://www.w3.org/1999/xlink" width="8.000000" height="8.000000" fill="none" customFrame="#000000">
	<g id="pin_dot_dark">
		<path id="椭圆 815" d="M0 4C0 1.79086 1.79086 0 4 0C6.20914 0 8 1.79086 8 4C8 6.20914 6.20914 8 4 8C1.79086 8 0 6.20914 0 4Z" fill="rgb(255,255,255)" fill-rule="evenodd" />
		<path id="椭圆 815" d="M4 0C1.79086 0 0 1.79086 0 4C0 6.20914 1.79086 8 4 8C6.20914 8 8 6.20914 8 4C8 1.79086 6.20914 0 4 0ZM3.3592 1.273Q3.67106 1.2 4 1.2Q4.32895 1.2 4.6408 1.273Q4.86977 1.3266 5.08952 1.41955Q5.31854 1.51641 5.52382 1.6498Q5.76875 1.80896 5.9799 2.0201Q6.19104 2.23124 6.35019 2.47617Q6.48359 2.68146 6.58045 2.91048Q6.6734 3.13024 6.727 3.35921Q6.8 3.67106 6.8 4Q6.8 4.32894 6.727 4.64079Q6.6734 4.86976 6.58045 5.08952Q6.48358 5.31855 6.35018 5.52385Q6.19103 5.76877 5.9799 5.9799Q5.76877 6.19102 5.52387 6.35017Q5.31856 6.48358 5.08952 6.58045Q4.86976 6.67341 4.64078 6.727Q4.32894 6.8 4 6.8Q3.67106 6.8 3.35921 6.727Q3.13024 6.6734 2.91048 6.58045Q2.68145 6.48358 2.47616 6.35018Q2.23124 6.19104 2.0201 5.9799Q1.80896 5.76876 1.64981 5.52384Q1.51642 5.31855 1.41954 5.08952Q1.3266 4.86976 1.273 4.64079Q1.2 4.32894 1.2 4Q1.2 3.67106 1.273 3.3592Q1.3266 3.13024 1.41955 2.91048Q1.51641 2.68147 1.6498 2.47618Q1.80895 2.23125 2.0201 2.0201Q2.23125 1.80895 2.47619 1.64979Q2.68147 1.51641 2.91048 1.41954Q3.13023 1.3266 3.3592 1.273Z" fill="rgb(10,89,247)" fill-rule="evenodd" />
		<path id="pin_dot_light" d="M4 0C6.20914 0 8 1.79086 8 4C8 6.20914 6.20914 8 4 8C1.79086 8 0 6.20914 0 4C0 1.79086 1.79086 0 4 0ZM4 1.2C3.7807 1.2 3.5671 1.22433 3.3592 1.273L3.35919 1.273C3.20655 1.30873 3.05698 1.35758 2.91048 1.41954C2.75781 1.48412 2.61305 1.56087 2.4762 1.64979L2.47619 1.64979C2.3129 1.7559 2.16087 1.87933 2.0201 2.0201C1.87934 2.16087 1.7559 2.31289 1.6498 2.47618L1.64979 2.47619C1.56087 2.61305 1.48412 2.75781 1.41955 2.91048C1.35758 3.05698 1.30873 3.20655 1.273 3.35919L1.273 3.3592C1.22433 3.5671 1.2 3.7807 1.2 4C1.2 4.21929 1.22433 4.43289 1.273 4.64079C1.30873 4.79344 1.35758 4.94301 1.41954 5.08952C1.48412 5.2422 1.56088 5.38697 1.64981 5.52384C1.75591 5.68712 1.87934 5.83914 2.0201 5.9799C2.16086 6.12066 2.31288 6.24409 2.47616 6.35018L2.47618 6.3502C2.61304 6.43913 2.7578 6.51588 2.91048 6.58045C3.05698 6.64242 3.20655 6.69127 3.35919 6.727L3.35921 6.727C3.56711 6.77567 3.78071 6.8 4 6.8C4.21929 6.8 4.43288 6.77567 4.64078 6.727L4.64079 6.727C4.79344 6.69127 4.94301 6.64242 5.08952 6.58045C5.24221 6.51587 5.38699 6.43911 5.52385 6.35018L5.52387 6.35017L5.52388 6.35016C5.68714 6.24407 5.83915 6.12065 5.9799 5.9799C6.12065 5.83915 6.24407 5.68714 6.35017 5.52386L6.35018 5.52385C6.43911 5.38698 6.51587 5.24221 6.58045 5.08952C6.64242 4.94302 6.69127 4.79345 6.727 4.64081L6.727 4.64079L6.72701 4.64078C6.77567 4.43288 6.8 4.21929 6.8 4C6.8 3.78071 6.77567 3.56711 6.727 3.35921L6.727 3.35919C6.69127 3.20655 6.64242 3.05698 6.58045 2.91048C6.51588 2.7578 6.43912 2.61303 6.35019 2.47617C6.24409 2.31289 6.12066 2.16086 5.9799 2.0201C5.83914 1.87934 5.68711 1.7559 5.52382 1.6498C5.38697 1.56088 5.2422 1.48412 5.08952 1.41955C4.94302 1.35758 4.79345 1.30873 4.64081 1.273L4.6408 1.273C4.4329 1.22433 4.2193 1.2 4 1.2Z" fill="rgb(10,89,247)" fill-rule="evenodd" />
	</g>
</svg>
