<?xml version="1.0" encoding="UTF-8"?>
<svg width="24px" height="24px" viewBox="0 0 24 24" version="1.1" xmlns="http://www.w3.org/2000/svg" xmlns:xlink="http://www.w3.org/1999/xlink">
    <title>proportion_3:2</title>
    <g id="proportion_3:2" stroke="none" stroke-width="1" fill="none" fill-rule="evenodd">
        <path d="M22.0001,5 C22.0001,3.34314 20.6573,2 19.0001,2 L5.00012,2 C3.3429,2 2.00012,3.34314 2.00012,5 L2.00012,19 C2.00012,20.6569 3.3429,22 5.00012,22 L19.0001,22 C20.6573,22 22.0001,20.6569 22.0001,19 L22.0001,5 Z M5.00012,3.5 L19.0001,3.5 C19.1241,3.5 19.2443,3.5144 19.3615,3.54321 L19.3615,3.54327 C19.4366,3.56189 19.5109,3.58655 19.5831,3.61725 C19.6622,3.65051 19.7365,3.68982 19.8077,3.73517 C19.8986,3.79327 19.9825,3.86133 20.0607,3.93933 C20.1388,4.01733 20.2072,4.10175 20.2648,4.1925 C20.3107,4.26331 20.3497,4.33801 20.3829,4.41656 C20.4132,4.48914 20.4386,4.56317 20.4572,4.63873 C20.4855,4.75562 20.5001,4.87604 20.5001,5 L20.5001,19 C20.5001,19.124 20.4855,19.2444 20.4572,19.3613 C20.4386,19.4368 20.4132,19.5109 20.3829,19.5834 C20.3497,19.662 20.3107,19.7367 20.2648,19.8075 L20.2648,19.8076 C20.2072,19.8983 20.1388,19.9827 20.0607,20.0607 C19.9825,20.1386 19.8986,20.2067 19.8077,20.2648 L19.8077,20.2648 C19.7365,20.3102 19.6622,20.3495 19.5831,20.3828 C19.5109,20.4135 19.4366,20.4381 19.3615,20.4567 C19.2443,20.4856 19.1241,20.5 19.0001,20.5 L5.00012,20.5 C4.8761,20.5 4.75598,20.4856 4.63879,20.4567 C4.5636,20.4381 4.48938,20.4135 4.41711,20.3828 C4.33801,20.3495 4.26379,20.3102 4.1925,20.2648 C4.10168,20.2067 4.0177,20.1387 3.93958,20.0607 C3.86145,19.9827 3.79309,19.8983 3.73547,19.8076 C3.68958,19.7367 3.65051,19.662 3.61731,19.5834 C3.58704,19.5109 3.56165,19.4368 3.54309,19.3613 L3.54309,19.3612 C3.51477,19.2444 3.50012,19.124 3.50012,19 L3.50012,5 C3.50012,4.87604 3.51477,4.75568 3.54309,4.63879 C3.56165,4.56323 3.58704,4.4892 3.61731,4.41656 C3.65051,4.33801 3.68958,4.26331 3.73547,4.19244 C3.79309,4.10168 3.86145,4.01733 3.93958,3.93933 C4.0177,3.86133 4.10168,3.79327 4.1925,3.73517 C4.26379,3.68982 4.33801,3.65051 4.41711,3.61725 C4.48938,3.58655 4.5636,3.56189 4.63879,3.54327 C4.75598,3.5144 4.8761,3.5 5.00012,3.5 Z M8.92981,14.57 C9.43958,14.57 9.85168,14.425 10.1652,14.135 C10.4747,13.8483 10.63,13.4733 10.63,13.01 C10.63,12.7367 10.5695,12.4967 10.4503,12.29 C10.3302,12.08 10.1495,11.92 9.91028,11.81 C10.087,11.6967 10.2228,11.5517 10.3195,11.375 C10.4161,11.1984 10.465,10.9984 10.465,10.775 C10.465,10.3583 10.3253,10.0233 10.045,9.77002 C9.76477,9.51337 9.39954,9.38501 8.95032,9.38501 C8.63,9.38501 8.3429,9.45667 8.08997,9.60004 C7.83313,9.74335 7.63293,9.94336 7.49036,10.2 C7.42297,10.3134 7.40344,10.425 7.42981,10.535 C7.45325,10.6483 7.52844,10.745 7.65442,10.825 C7.78528,10.905 7.88977,10.92 7.96985,10.87 C8.04993,10.8234 8.13684,10.7283 8.22961,10.585 C8.30969,10.455 8.40637,10.3633333 8.51965,10.31 C8.57502333,10.2823333 8.63202667,10.2614 8.69066,10.2472 C8.75198667,10.2324 8.8151,10.225 8.88,10.225 C9.07336,10.225 9.22473,10.2767 9.33508,10.38 C9.44836,10.4833 9.505,10.6234 9.505,10.8 C9.505,11.0233 9.43958,11.1917 9.30969,11.305 C9.18372,11.415 9.00012,11.47 8.75989,11.47 C8.64661,11.47 8.54993,11.51 8.46985,11.59 C8.38977,11.67 8.34973,11.7667 8.34973,11.88 C8.34973,12.0067 8.38684,12.11 8.46008,12.19 C8.53333,12.27 8.61633,12.31 8.71008,12.31 C9.0968,12.31 9.35364,12.37 9.47961,12.49 C9.49491667,12.5044667 9.5093,12.5197 9.52276,12.5357 C9.62094667,12.6525667 9.67004,12.8106667 9.67004,13.01 C9.67004,13.2333 9.60364,13.4083 9.46985,13.535 C9.33313,13.665 9.15344,13.73 8.92981,13.73 C8.71965667,13.73 8.54390333,13.6807 8.40255,13.5821 C8.33765,13.5367667 8.28000333,13.4810667 8.22961,13.415 L8.18469,13.37 C8.07141,13.2233333 7.97473,13.13 7.89465,13.09 C7.81458,13.05 7.71204,13.07 7.58508,13.15 C7.4552,13.23 7.37512,13.3267 7.34485,13.44 C7.33909667,13.4596 7.33504333,13.4794333 7.33269,13.4995 C7.32146333,13.5951 7.34895333,13.6952667 7.41516,13.8 C7.55872,14.04 7.76672,14.2283 8.04016,14.365 C8.3136,14.5016 8.6095,14.57 8.92981,14.57 Z M16.1749,14.52 C16.3351,14.52 16.4601,14.4833 16.5499,14.41 C16.6368,14.34 16.6798,14.24 16.6798,14.11 C16.6798,13.9833 16.6368,13.8834 16.5499,13.81 C16.4601,13.74 16.3351,13.705 16.1749,13.705 L14.6896,13.705 L15.5499,12.745 C15.9034,12.3617 16.1515,12.0367 16.295,11.77 C16.4386,11.5067 16.5099,11.2317 16.5099,10.945 C16.5099,10.4817 16.3751,10.1133 16.1046,9.84003 C15.8312,9.56665 15.463,9.42999 15.0001,9.42999 C14.6798,9.42999 14.3829,9.50665 14.1095,9.66003 C13.84,9.81335 13.6329,10.025 13.4904,10.295 C13.4318667,10.424 13.4160667,10.5423333 13.443,10.65 C13.4529333,10.6898 13.4687333,10.7281333 13.4904,10.765 C13.5695,10.9017 13.6896,10.97 13.8497,10.97 C14.0099,10.97 14.1447,10.8734 14.255,10.68 C14.3351,10.5533 14.4347,10.4534 14.5548,10.38 C14.6749,10.3067 14.8068,10.27 14.9503,10.27 C15.0787,10.27 15.1894667,10.2986667 15.2826,10.356 C15.3296667,10.385 15.3722333,10.4213333 15.4103,10.465 C15.5197,10.5917 15.5753,10.76 15.5753,10.97 C15.5753,11.1434 15.5402,11.2983 15.4698,11.435 C15.3966,11.5717 15.2482,11.7767 15.0245,12.05 L14.88,12.19 L13.5353,13.68 C13.3751,13.8734 13.3029,14.05 13.3195,14.21 C13.3536,14.3033 13.4132,14.3784 13.5001,14.435 C13.587,14.4917 13.6945,14.52 13.8253,14.52 L16.1749,14.52 Z M12.0695,11.23 C12.2296,11.23 12.3585,11.1833 12.4552,11.09 C12.5519,10.9933 12.5997,10.8567 12.5997,10.68 C12.5997,10.52 12.5519,10.3884 12.4552,10.285 C12.3585,10.1817 12.2296,10.13 12.0695,10.13 C11.8966,10.13 11.7618,10.1817 11.6652,10.285 C11.5685,10.3884 11.5197,10.52 11.5197,10.68 C11.5197,10.84 11.5685,10.9717 11.6652,11.075 C11.7618,11.1783 11.8966,11.23 12.0695,11.23 Z M12.0695,13.825 C12.2296,13.825 12.3585,13.7767 12.4552,13.68 C12.5519,13.5833 12.5997,13.4467 12.5997,13.27 C12.5997,13.11 12.5519,12.9783 12.4552,12.875 C12.3585,12.7717 12.2296,12.72 12.0695,12.72 C11.9103,12.72 11.7784,12.7717 11.6749,12.875 C11.5714,12.9783 11.5197,13.11 11.5197,13.27 C11.5197,13.43 11.5685,13.5634 11.6652,13.67 C11.7618,13.7733 11.8966,13.825 12.0695,13.825 Z" id="矢量-818" fill="#000000"></path>
    </g>
</svg>