<svg viewBox="0 0 24 24" xmlns="http://www.w3.org/2000/svg" xmlns:xlink="http://www.w3.org/1999/xlink" width="24.000000" height="24.000000" fill="none" customFrame="#000000">
	<defs>
		<clipPath id="clipPath_0">
			<rect width="24.000000" height="24.000000" x="0.000000" y="0.000000" fill="rgb(255,255,255)" />
		</clipPath>
	</defs>
	<rect id="icon/21:9" width="24.000000" height="24.000000" x="0.000000" y="0.000000" fill="rgb(255,255,255)" fill-opacity="0" />
	<g id="Add_pic_56/layout" customFrame="url(#clipPath_0)">
		<rect id="Add_pic_56/layout" width="24.000000" height="24.000000" x="0.000000" y="0.000000" />
		<rect id="矩形 542322" width="24.000000" height="24.000000" x="0.000000" y="0.000000" opacity="0.199999988" />
		<rect id="矩形 542328" width="20.000000" height="20.000000" x="2.000000" y="2.000000" opacity="0.199999988" />
		<rect id="矩形 542329" width="22.000000" height="22.000000" x="1.000000" y="1.000000" opacity="0.199999988" />
	</g>
	<path id="矩形 542338" d="M3 0L6.42857 0C8.08543 0 9.42857 1.34315 9.42857 3L9.42857 19C9.42857 20.6569 8.08543 22 6.42857 22L3 22C1.34315 22 0 20.6569 0 19L0 3C0 1.34315 1.34315 0 3 0Z" fill="rgb(0,0,0)" fill-opacity="0.200000003" fill-rule="evenodd" transform="matrix(0,-1,1,0,1,16.7142)" />
	<path id="矩形 542338(边框)" d="M6.42857 0C8.08543 0 9.42857 1.34315 9.42857 3L9.42857 19C9.42857 20.6569 8.08543 22 6.42857 22L3 22C1.34315 22 0 20.6569 0 19L0 3C0 1.34315 1.34315 0 3 0L6.42857 0ZM6.42857 1.5L3 1.5C2.87605 1.5 2.75565 1.51441 2.63881 1.54324C2.56325 1.56189 2.48918 1.58656 2.41659 1.61726C2.338 1.6505 2.26329 1.6898 2.19247 1.73516L2.19246 1.73517C2.10172 1.79328 2.01734 1.86134 1.93934 1.93934C1.86134 2.01734 1.79328 2.10171 1.73517 2.19245C1.68981 2.26328 1.65051 2.338 1.61726 2.41659C1.58656 2.48918 1.56189 2.56326 1.54324 2.63882C1.51441 2.75566 1.5 2.87605 1.5 3L1.5 19C1.5 19.124 1.51442 19.2444 1.54326 19.3612C1.5619 19.4368 1.58657 19.5108 1.61726 19.5834C1.65051 19.662 1.68981 19.7367 1.73518 19.8076C1.79329 19.8983 1.86134 19.9827 1.93934 20.0607C2.01735 20.1387 2.10174 20.2067 2.19249 20.2649C2.26332 20.3102 2.33802 20.3495 2.41659 20.3827C2.48915 20.4134 2.5632 20.4381 2.63874 20.4567C2.7556 20.4856 2.87602 20.5 3 20.5L6.42857 20.5C6.55255 20.5 6.67298 20.4856 6.78985 20.4567C6.86538 20.4381 6.93943 20.4134 7.01198 20.3827C7.09057 20.3495 7.16528 20.3102 7.23611 20.2648C7.32685 20.2067 7.41123 20.1387 7.48923 20.0607C7.56722 19.9827 7.63526 19.8983 7.69337 19.8076C7.73874 19.7368 7.77806 19.662 7.81131 19.5834C7.84202 19.5108 7.86669 19.4367 7.88534 19.3612L7.88535 19.3611C7.91417 19.2443 7.92857 19.1239 7.92857 19L7.92857 3C7.92857 2.87605 7.91416 2.75565 7.88533 2.63881C7.86669 2.56325 7.84201 2.48918 7.81131 2.41659C7.77806 2.33799 7.73876 2.26326 7.69338 2.19242C7.63528 2.10169 7.56723 2.01733 7.48923 1.93934C7.41125 1.86135 7.3269 1.79331 7.23618 1.73521L7.23616 1.73519C7.16532 1.68982 7.09059 1.65051 7.01198 1.61726C6.93939 1.58656 6.86531 1.56188 6.78975 1.54324C6.67291 1.51441 6.55252 1.5 6.42857 1.5Z" fill="rgb(0,0,0)" fill-rule="evenodd" transform="matrix(0,-1,1,0,1,16.7142)" />
</svg>
