<?xml version="1.0" encoding="UTF-8"?>
<svg width="24px" height="24px" viewBox="0 0 24 24" version="1.1" xmlns="http://www.w3.org/2000/svg" xmlns:xlink="http://www.w3.org/1999/xlink">
    <title>proportion_9:16</title>
    <g id="proportion_9:16" stroke="none" stroke-width="1" fill="none" fill-rule="evenodd">
        <path d="M19,2 C20.6572,2 22,3.34314 22,5 L22,19 C22,20.6569 20.6572,22 19,22 L5,22 C3.34277,22 2,20.6569 2,19 L2,5 C2,3.34314 3.34277,2 5,2 L19,2 Z M19,3.5 L5,3.5 C4.87598,3.5 4.75586,3.5144 4.63867,3.54327 C4.56348,3.56189 4.48926,3.58655 4.41699,3.61725 C4.33789,3.65051 4.26367,3.68982 4.19238,3.73517 C4.10156,3.79327 4.01758,3.86133 3.93945,3.93933 C3.86133,4.01733 3.79297,4.10168 3.73535,4.19244 C3.68945,4.26331 3.65039,4.33801 3.61719,4.41656 C3.58691,4.4892 3.56152,4.56323 3.54297,4.63879 C3.51465,4.75568 3.5,4.87604 3.5,5 L3.5,19 C3.5,19.124 3.51465,19.2444 3.54297,19.3612 L3.54297,19.3613 C3.56152,19.4368 3.58691,19.5109 3.61719,19.5834 C3.65039,19.662 3.68945,19.7367 3.73535,19.8076 C3.79297,19.8983 3.86133,19.9827 3.93945,20.0607 C4.01758,20.1387 4.10156,20.2067 4.19238,20.2648 C4.26367,20.3102 4.33789,20.3495 4.41699,20.3828 C4.48926,20.4135 4.56348,20.4381 4.63867,20.4567 C4.75586,20.4856 4.87598,20.5 5,20.5 L19,20.5 C19.124,20.5 19.2441,20.4856 19.3613,20.4567 C19.4365,20.4381 19.5107,20.4135 19.583,20.3828 C19.6621,20.3495 19.7363,20.3102 19.8076,20.2648 L19.8076,20.2648 C19.8984,20.2067 19.9824,20.1386 20.0605,20.0607 C20.1387,19.9827 20.207,19.8983 20.2646,19.8076 L20.2646,19.8075 C20.3105,19.7367 20.3496,19.662 20.3828,19.5834 C20.4131,19.5109 20.4385,19.4368 20.457,19.3613 C20.4854,19.2444 20.5,19.124 20.5,19 L20.5,5 C20.5,4.87604 20.4854,4.75562 20.457,4.63873 C20.4385,4.56317 20.4131,4.48914 20.3828,4.41656 C20.3496,4.33801 20.3105,4.26331 20.2646,4.1925 C20.207,4.10175 20.1387,4.01733 20.0605,3.93933 C19.9824,3.86133 19.8984,3.79327 19.8076,3.73517 C19.7363,3.68982 19.6621,3.65051 19.583,3.61725 C19.5107,3.58655 19.4365,3.56189 19.3613,3.54327 L19.3613,3.54321 C19.2441,3.5144 19.124,3.5 19,3.5 Z M14.0074,14.447 C13.9273,14.527 13.8159,14.567 13.6724,14.567 C13.5288,14.567 13.4126,14.527 13.3228,14.447 C13.2359,14.367 13.1929,14.247 13.1929,14.087 L13.1929,10.582 L12.5425,10.942 C12.3824,11.022 12.2564,11.0536 12.1626,11.037 C12.0659,11.0203 11.9859,10.9403 11.9224,10.797 C11.8892,10.6837 11.8931,10.5753 11.9331,10.472 C11.9722,10.3687 12.0806,10.2687 12.2574,10.172 L13.1929,9.62201 C13.4497,9.46198 13.6695,9.40198 13.8531,9.44196 C14.0357,9.48199 14.1275,9.66199 14.1275,9.98199 L14.1275,14.087 C14.1275,14.2468667 14.0875,14.3668 14.0075,14.4468 L14.0074,14.447 Z M17.7876,13.942 C17.4781,14.262 17.0747,14.422 16.5777,14.422 C16.0806,14.422 15.6763,14.2653 15.3628,13.952 C15.0523,13.642 14.898,13.2386 14.898,12.742 C14.898,12.502 14.9409,12.282 15.0279,12.082 C15.1177,11.882 15.2661,11.597 15.4722,11.227 L16.4077,9.71698 C16.521,9.54034 16.6607,9.45697 16.8277,9.46698 C16.9976,9.47363 17.1226,9.54529 17.2027,9.68201 C17.2827,9.81866 17.274,9.95868 17.1773,10.102 L16.4829,11.207 C16.5288,11.207 16.564,11.202 16.5874,11.192 C16.6109,11.1853 16.648,11.182 16.6978,11.182 C17.1441,11.182 17.5161,11.3303 17.813,11.627 C18.1089,11.9203 18.2574,12.3003 18.2574,12.767 C18.2574,13.2303 18.1011,13.622 17.7876,13.942 Z M8.98926,11.785 C8.90918,11.985 8.7666,12.2683 8.55957,12.6349 L8.53418,12.66 L7.57422,14.22 C7.49414,14.3466 7.40625,14.435 7.30957,14.485 C7.21582,14.5316 7.11328,14.5316 7,14.485 C6.87305,14.4216 6.7959,14.3333 6.76953,14.22 C6.74609,14.1066 6.7666,13.97 6.8291,13.81 L7.50488,12.71 C7.30305333,12.7309333 7.11025333,12.7173333 6.92648,12.6692 C6.70033333,12.6100667 6.48786,12.4986667 6.28906,12.335 C5.92969,12.0383 5.75,11.6266 5.75,11.1 C5.75,10.6367 5.90918,10.2483 6.22949,9.935 C6.5498,9.625 6.94922,9.46997 7.42969,9.46997 C7.92578,9.46997 8.33105,9.625 8.64453,9.935 C8.9541,10.2483 9.10938,10.6533 9.10938,11.15 C9.10938,11.3171333 9.08694333,11.4777667 9.04207,11.6319 C9.02699667,11.6836333 9.00939333,11.7346667 8.98926,11.785 Z M10.4701,11.25 C10.6469,11.25 10.7826,11.1984 10.8793,11.095 C10.9731,10.9917 11.0199,10.86 11.0199,10.7 C11.0199,10.5959333 10.998,10.5038333 10.9542,10.4237 C10.9306667,10.3807 10.9008333,10.3411667 10.8647,10.3051 C10.7611,10.2017 10.6293,10.15 10.4701,10.15 C10.3266,10.15 10.2035,10.205 10.1,10.315 C9.99258,10.4283 9.93985,10.5567 9.93985,10.7 C9.93985,10.86 9.9877,10.9917 10.0844,11.095 C10.1811,11.1984 10.31,11.25 10.4701,11.25 Z M7.99414,10.525 C7.85742,10.3817 7.67773,10.31 7.4541,10.31 C7.23145,10.31 7.05078,10.3817 6.91406,10.525 C6.77832,10.6683 6.70996,10.86 6.70996,11.1 C6.70996,11.34 6.77832,11.5366 6.91406,11.6899 C7.05078,11.84 7.23145,11.915 7.4541,11.915 C7.67773,11.915 7.85742,11.84 7.99414,11.6899 C8.02233333,11.6583 8.04762,11.6248667 8.07,11.5896 C8.15614667,11.4536667 8.19922,11.2904667 8.19922,11.1 C8.19922,10.86 8.13086,10.6683 7.99414,10.525 Z M17.1177,12.212 C16.981,12.0687 16.8013,11.997 16.5777,11.997 C16.354,11.997 16.1743,12.0687 16.0376,12.212 C15.9009,12.3553 15.8326,12.547 15.8326,12.787 C15.8326,13.0258667 15.8918,13.2127667 16.0102,13.3477 L16.0103,13.3478 C16.0191,13.3578 16.0282,13.3675333 16.0376,13.377 C16.1743,13.5137 16.354,13.582 16.5777,13.582 C16.8013,13.582 16.981,13.5103 17.1177,13.367 C17.2544,13.2203 17.3228,13.027 17.3228,12.787 C17.3228,12.547 17.2544,12.3553 17.1177,12.212 Z M10.4701,13.845 C10.6469,13.845 10.7826,13.7967 10.8793,13.7 C10.8857,13.6934 10.8919,13.6866 10.8979,13.6796 L10.8982,13.6792 C10.9793333,13.5840667 11.0199,13.4543333 11.0199,13.29 C11.0199,13.13 10.9682,12.9984 10.8647,12.895 C10.7611,12.7917 10.6293,12.7401 10.4701,12.7401 C10.3432,12.7401 10.2231,12.7967 10.1098,12.91 C9.99649,13.02 9.93985,13.1467 9.93985,13.29 C9.93985,13.45 9.9877,13.5834 10.0844,13.69 C10.1811,13.7933 10.31,13.845 10.4701,13.845 Z" id="矢量-823" fill="#000000"></path>
    </g>
</svg>