<svg viewBox="0 0 24 24" xmlns="http://www.w3.org/2000/svg" xmlns:xlink="http://www.w3.org/1999/xlink" width="24.000000" height="24.000000" fill="none">
	<rect id="icon/proportion" width="24.000000" height="24.000000" x="0.000000" y="0.000000" />
	<rect id="矩形 542348" width="24.000000" height="24.000000" x="0.000000" y="0.000000" opacity="0" />
	<g id="组合 29475">
		<path id="矢量 895" d="M22 5C22 3.34314 20.6572 2 19 2L4.99997 2C3.34274 2 1.99997 3.34314 1.99997 5L1.99997 19C1.99997 20.6569 3.34274 22 4.99997 22L19 22C20.6572 22 22 20.6569 22 19L22 5ZM4.99997 3.5L19 3.5C19.124 3.5 19.2441 3.5144 19.3613 3.54321L19.3613 3.54327C19.4365 3.56189 19.5107 3.58655 19.583 3.61725C19.6621 3.65051 19.7363 3.68982 19.8076 3.73517C19.8984 3.79327 19.9824 3.86133 20.0605 3.93933C20.1386 4.01733 20.207 4.10175 20.2646 4.1925C20.3105 4.26331 20.3496 4.33801 20.3828 4.41656C20.4131 4.48914 20.4384 4.56317 20.457 4.63873C20.4853 4.75562 20.5 4.87604 20.5 5L20.5 19C20.5 19.124 20.4853 19.2444 20.457 19.3613C20.4384 19.4368 20.4131 19.5109 20.3828 19.5834C20.3496 19.662 20.3105 19.7367 20.2646 19.8075L20.2646 19.8076C20.207 19.8983 20.1386 19.9827 20.0605 20.0607C19.9824 20.1386 19.8984 20.2067 19.8076 20.2648L19.8076 20.2648C19.7363 20.3102 19.6621 20.3495 19.583 20.3828C19.5107 20.4135 19.4365 20.4381 19.3613 20.4567C19.2441 20.4856 19.124 20.5 19 20.5L4.99997 20.5C4.87595 20.5 4.75583 20.4856 4.63864 20.4567C4.56345 20.4381 4.48923 20.4135 4.41696 20.3828C4.33786 20.3495 4.26364 20.3102 4.19235 20.2648C4.10153 20.2067 4.01755 20.1387 3.93942 20.0607C3.8613 19.9827 3.79294 19.8983 3.73532 19.8076C3.68942 19.7367 3.65036 19.662 3.61716 19.5834C3.58688 19.5109 3.56149 19.4368 3.54294 19.3613L3.54294 19.3612C3.51462 19.2444 3.49997 19.124 3.49997 19L3.49997 5C3.49997 4.87604 3.51462 4.75568 3.54294 4.63879C3.56149 4.56323 3.58688 4.4892 3.61716 4.41656C3.65036 4.33801 3.68942 4.26331 3.73532 4.19244C3.79294 4.10168 3.8613 4.01733 3.93942 3.93933C4.01755 3.86133 4.10153 3.79327 4.19235 3.73517C4.26364 3.68982 4.33786 3.65051 4.41696 3.61725C4.48923 3.58655 4.56345 3.56189 4.63864 3.54327C4.75583 3.5144 4.87595 3.5 4.99997 3.5ZM11.9198 14.447C11.8397 14.527 11.7284 14.567 11.5848 14.567C11.4413 14.567 11.325 14.527 11.2352 14.447C11.1483 14.367 11.1053 14.247 11.1053 14.087L11.1053 10.582L10.4549 10.942C10.2948 11.022 10.1688 11.0537 10.075 11.037C9.97836 11.0204 9.89828 10.9403 9.83481 10.797C9.80161 10.6837 9.80551 10.5753 9.84555 10.472C9.88461 10.3687 9.99301 10.2687 10.1698 10.172L11.1053 9.62203C11.3622 9.462 11.5819 9.402 11.7655 9.44198C11.9481 9.48202 12.0399 9.66201 12.0399 9.98202L12.0399 14.087C12.0399 14.2469 12 14.3669 11.92 14.4468L11.9198 14.447ZM9.19272 14.46C9.10287 14.5333 8.97787 14.57 8.81772 14.57L6.46811 14.57C6.33725 14.57 6.22983 14.5417 6.14291 14.485C6.056 14.4283 5.99643 14.3533 5.96225 14.26C5.94565 14.1 6.01791 13.9233 6.17807 13.73L7.5228 12.24L7.66733 12.1C7.89096 11.8267 8.0394 11.6216 8.11264 11.485C8.18295 11.3483 8.21811 11.1934 8.21811 11.02C8.21811 10.81 8.16245 10.6417 8.05307 10.515C8.01498 10.4714 7.9725 10.435 7.92538 10.406L7.92538 10.406C7.83224 10.3487 7.72153 10.32 7.59311 10.32C7.44955 10.32 7.31772 10.3567 7.1976 10.43C7.07748 10.5034 6.97787 10.6033 6.8978 10.73C6.78745 10.9233 6.65268 11.02 6.49252 11.02C6.33237 11.02 6.21225 10.9517 6.13315 10.815C6.11154 10.7782 6.09579 10.7399 6.08578 10.7001L6.08578 10.7C6.05893 10.5923 6.07468 10.474 6.13315 10.345C6.27573 10.075 6.48276 9.86334 6.75229 9.71002C7.02573 9.55664 7.3226 9.47998 7.64291 9.47998C8.1058 9.47998 8.47397 9.61664 8.74741 9.89001C9.01791 10.1633 9.15268 10.5317 9.15268 10.995C9.15268 11.2817 9.08139 11.5566 8.93784 11.82C8.79428 12.0867 8.54623 12.4117 8.19272 12.795L7.33237 13.755L8.81772 13.755C8.97787 13.755 9.10287 13.79 9.19272 13.86C9.27963 13.9333 9.3226 14.0333 9.3226 14.16C9.3226 14.29 9.27963 14.39 9.19272 14.46ZM17.9171 11.815C17.837 12.015 17.6944 12.2983 17.4874 12.6649L17.462 12.69L16.502 14.25C16.422 14.3766 16.3341 14.465 16.2374 14.515C16.1436 14.5616 16.0411 14.5616 15.9278 14.515C15.8009 14.4516 15.7237 14.3633 15.6974 14.25C15.6739 14.1366 15.6944 14 15.7569 13.84L16.4327 12.74C16.2309 12.7609 16.0381 12.7473 15.8543 12.6992C15.6281 12.6401 15.4157 12.5286 15.2169 12.365C14.8575 12.0683 14.6778 11.6566 14.6778 11.13C14.6778 10.6667 14.837 10.2783 15.1573 9.965C15.4776 9.655 15.877 9.49997 16.3575 9.49997C16.8536 9.49997 17.2589 9.655 17.5724 9.965C17.8819 10.2783 18.0372 10.6833 18.0372 11.18C18.0372 11.3471 18.0147 11.5078 17.9699 11.6619L17.9691 11.6647C17.9542 11.7155 17.9369 11.7656 17.9171 11.815ZM13.2976 11.28C13.4743 11.28 13.6101 11.2284 13.7068 11.125C13.8005 11.0217 13.8474 10.89 13.8474 10.73C13.8474 10.6259 13.8255 10.5338 13.7817 10.4537L13.7816 10.4536C13.7581 10.4107 13.7282 10.3711 13.6921 10.3351C13.5886 10.2317 13.4568 10.18 13.2976 10.18C13.154 10.18 13.031 10.235 12.9275 10.345C12.82 10.4583 12.7673 10.5867 12.7673 10.73C12.7673 10.89 12.8152 11.0217 12.9118 11.125C13.0085 11.2284 13.1374 11.28 13.2976 11.28ZM16.922 10.555C16.7852 10.4117 16.6056 10.34 16.3819 10.34C16.1593 10.34 15.9786 10.4117 15.8419 10.555C15.7061 10.6983 15.6378 10.89 15.6378 11.13C15.6378 11.37 15.7061 11.5666 15.8419 11.7199C15.9786 11.87 16.1593 11.945 16.3819 11.945C16.6056 11.945 16.7852 11.87 16.922 11.7199C16.9502 11.6883 16.9754 11.6549 16.9978 11.6196C17.084 11.4837 17.127 11.3205 17.127 11.13C17.127 10.89 17.0587 10.6983 16.922 10.555ZM13.2976 13.875C13.4743 13.875 13.6101 13.8267 13.7068 13.73C13.7133 13.7233 13.7197 13.7163 13.7257 13.7092C13.8069 13.6141 13.8474 13.4844 13.8474 13.32C13.8474 13.16 13.7956 13.0284 13.6921 12.925C13.5886 12.8217 13.4568 12.7701 13.2976 12.7701C13.1706 12.7701 13.0505 12.8267 12.9372 12.94C12.8239 13.05 12.7673 13.1767 12.7673 13.32C12.7673 13.48 12.8152 13.6134 12.9118 13.72C13.0085 13.8233 13.1374 13.875 13.2976 13.875Z" fill="rgb(0,0,0)" fill-rule="evenodd" />
	</g>
</svg>
