<?xml version="1.0" encoding="UTF-8"?>
<svg width="24px" height="24px" viewBox="0 0 24 24" version="1.1" xmlns="http://www.w3.org/2000/svg" xmlns:xlink="http://www.w3.org/1999/xlink">
    <title>proportion_3:4</title>
    <g id="proportion_3:4" stroke="none" stroke-width="1" fill="none" fill-rule="evenodd">
        <path d="M22,5 C22,3.34314 20.6572,2 19,2 L5,2 C3.34277,2 2,3.34314 2,5 L2,19 C2,20.6569 3.34277,22 5,22 L19,22 C20.6572,22 22,20.6569 22,19 L22,5 Z M5,3.5 L19,3.5 C19.124,3.5 19.2441,3.5144 19.3613,3.54321 L19.3613,3.54327 C19.4365,3.56189 19.5107,3.58655 19.583,3.61725 C19.6621,3.65051 19.7363,3.68982 19.8076,3.73517 C19.8984,3.79327 19.9824,3.86133 20.0605,3.93933 C20.1387,4.01733 20.207,4.10175 20.2646,4.1925 C20.3105,4.26331 20.3496,4.33801 20.3828,4.41656 C20.4131,4.48914 20.4385,4.56317 20.457,4.63873 C20.4854,4.75562 20.5,4.87604 20.5,5 L20.5,19 C20.5,19.124 20.4854,19.2444 20.457,19.3613 C20.4385,19.4368 20.4131,19.5109 20.3828,19.5834 C20.3496,19.662 20.3105,19.7367 20.2646,19.8075 L20.2646,19.8076 C20.207,19.8983 20.1387,19.9827 20.0605,20.0607 C19.9824,20.1386 19.8984,20.2067 19.8076,20.2648 L19.8076,20.2648 C19.7363,20.3102 19.6621,20.3495 19.583,20.3828 C19.5107,20.4135 19.4365,20.4381 19.3613,20.4567 C19.2441,20.4856 19.124,20.5 19,20.5 L5,20.5 C4.87598,20.5 4.75586,20.4856 4.63867,20.4567 C4.56348,20.4381 4.48926,20.4135 4.41699,20.3828 C4.33789,20.3495 4.26367,20.3102 4.19238,20.2648 C4.10156,20.2067 4.01758,20.1387 3.93945,20.0607 C3.86133,19.9827 3.79297,19.8983 3.73535,19.8076 C3.68945,19.7367 3.65039,19.662 3.61719,19.5834 C3.58691,19.5109 3.56152,19.4368 3.54297,19.3613 L3.54297,19.3612 C3.51465,19.2444 3.5,19.124 3.5,19 L3.5,5 C3.5,4.87604 3.51465,4.75568 3.54297,4.63879 C3.56152,4.56323 3.58691,4.4892 3.61719,4.41656 C3.65039,4.33801 3.68945,4.26331 3.73535,4.19244 C3.79297,4.10168 3.86133,4.01733 3.93945,3.93933 C4.01758,3.86133 4.10156,3.79327 4.19238,3.73517 C4.26367,3.68982 4.33789,3.65051 4.41699,3.61725 C4.48926,3.58655 4.56348,3.56189 4.63867,3.54327 C4.75586,3.5144 4.87598,3.5 5,3.5 Z M8.61958,14.585 C9.12935,14.585 9.54146,14.44 9.85493,14.15 C10.1645,13.8633 10.3198,13.4883 10.3198,13.025 C10.3198,12.7517 10.2592,12.5117 10.1401,12.3051 C10.02,12.095 9.83931,11.935 9.60005,11.825 C9.77681,11.7117 9.91255,11.5667 10.0092,11.39 C10.1059,11.2134 10.1547,11.0134 10.1547,10.79 C10.1547,10.3734 10.0151,10.0383 9.73482,9.78503 C9.45454,9.52838 9.08931,9.40002 8.64009,9.40002 C8.31978,9.40002 8.03267,9.47168 7.77974,9.61505 C7.5229,9.75836 7.32271,9.95837 7.18013,10.215 C7.11275,10.3284 7.09322,10.44 7.11958,10.55 C7.14302,10.6633 7.21822,10.76 7.34419,10.84 C7.47505,10.92 7.57954,10.935 7.65962,10.885 C7.7397,10.8384 7.82661,10.7433 7.91939,10.6 C7.99947,10.47 8.09615,10.3783333 8.20943,10.325 C8.26479667,10.2973333 8.32179667,10.2764333 8.38043,10.2623 C8.44176333,10.2475 8.50488,10.2401 8.56978,10.2401 C8.76314,10.2401 8.91451,10.2917 9.02486,10.395 C9.13814,10.4984 9.19478,10.6384 9.19478,10.815 C9.19478,11.0383 9.12935,11.2067 8.99947,11.32 C8.87349,11.4301 8.6899,11.485 8.44966,11.485 C8.33638,11.485 8.2397,11.525 8.15962,11.605 C8.07954,11.685 8.03951,11.7817 8.03951,11.895 C8.03951,12.0217 8.07661,12.125 8.14986,12.205 C8.2231,12.285 8.30611,12.325 8.39986,12.325 C8.78658,12.325 9.04341,12.385 9.16939,12.505 C9.18469,12.5194667 9.19907,12.5347 9.21253,12.5507 C9.31072333,12.6675667 9.35982,12.8256667 9.35982,13.025 C9.35982,13.2484 9.29341,13.4233 9.15962,13.55 C9.0229,13.6801 8.84322,13.745 8.61958,13.745 C8.40942667,13.745 8.23367667,13.6957 8.09233,13.5971 C8.02743,13.5517667 7.96978333,13.4961 7.91939,13.4301 L7.87447,13.385 C7.76118333,13.2383333 7.66450333,13.145 7.58443,13.105 C7.50435,13.065 7.40181,13.085 7.27486,13.165 C7.14497,13.245 7.0649,13.3417 7.03462,13.455 C7.02887333,13.4746667 7.02482333,13.4945 7.02247,13.5145 C7.01123667,13.6101 7.03872333,13.7102667 7.10493,13.815 C7.24849,14.0551 7.4565,14.2433 7.72993,14.38 C8.00337,14.5167 8.29927,14.585 8.61958,14.585 Z M16.1346,14.44 C16.0379,14.5367 15.9266,14.585 15.7997,14.585 C15.7439,14.585 15.6917,14.5756667 15.6431,14.557 C15.5810333,14.5332 15.5248333,14.4942 15.4745,14.44 C15.3885,14.3434 15.3446,14.2233 15.3446,14.08 L15.3446,13.505 L13.6893,13.505 C13.4627,13.505 13.3094,13.4317 13.2293,13.285 C13.1502,13.1417 13.1502,12.9817 13.2293,12.8051 L14.8895,9.66504 C14.9364,9.58502 14.9911,9.52502 15.0545,9.48505 C15.118,9.44501 15.1893,9.42505 15.2694,9.42505 C15.3488,9.42505 15.4195667,9.44143333 15.4817,9.4742 C15.5448333,9.50752 15.5990667,9.55778667 15.6444,9.625 C15.7313,9.76172 15.7352,9.91003 15.6551,10.07 L14.2899,12.685 L15.3446,12.685 L15.3446,11.895 C15.3446,11.735 15.3885,11.6067 15.4745,11.51 C15.5643,11.4133 15.6727,11.3651 15.7997,11.3651 C15.9266,11.3651 16.0379,11.4133 16.1346,11.51 C16.2313,11.6067 16.2801,11.735 16.2801,11.895 L16.2801,12.685 L16.4696,12.685 C16.6161,12.685 16.7362,12.725 16.8299,12.8051 C16.9266,12.885 16.9745,12.9817 16.9745,13.095 C16.9745,13.2084 16.9315,13.3051 16.8446,13.385 C16.7547,13.465 16.6463,13.505 16.5194,13.505 L16.2801,13.505 L16.2801,14.0551 C16.2801,14.215 16.2313,14.3434 16.1346,14.44 Z M11.7592,11.245 C11.9194,11.245 12.0483,11.1984 12.145,11.105 C12.2417,11.0084 12.2895,10.8717 12.2895,10.695 C12.2895,10.535 12.2417,10.4034 12.145,10.3 C12.0483,10.1967 11.9194,10.145 11.7592,10.145 C11.5864,10.145 11.4516,10.1967 11.3549,10.3 C11.2583,10.4034 11.2094,10.535 11.2094,10.695 C11.2094,10.855 11.2583,10.9867 11.3549,11.09 C11.4516,11.1934 11.5864,11.245 11.7592,11.245 Z M11.7592,13.84 C11.9194,13.84 12.0483,13.7917 12.145,13.695 C12.2417,13.5983 12.2895,13.4617 12.2895,13.285 C12.2895,13.125 12.2417,12.9933 12.145,12.89 C12.0483,12.7867 11.9194,12.735 11.7592,12.735 C11.6001,12.735 11.4682,12.7867 11.3647,12.89 C11.2612,12.9933 11.2094,13.125 11.2094,13.285 C11.2094,13.445 11.2583,13.5784 11.3549,13.685 C11.4516,13.7883 11.5864,13.84 11.7592,13.84 Z" id="矢量-825" fill="#000000"></path>
    </g>
</svg>