<?xml version="1.0" encoding="UTF-8"?>
<svg width="24px" height="24px" viewBox="0 0 24 24" version="1.1" xmlns="http://www.w3.org/2000/svg" xmlns:xlink="http://www.w3.org/1999/xlink">
    <title>proportion_3:4_fill_active_light</title>
    <g id="proportion_3:4_fill_active_light" stroke="none" stroke-width="1" fill="none" fill-rule="evenodd">
        <rect id="矩形-542336" fill-opacity="0.200000003" fill="#000000" fill-rule="nonzero" x="4.5" y="2" width="15" height="20" rx="3"></rect>
        <path d="M16.5,2 L7.5,2 C5.84314575,2 4.5,3.34314575 4.5,5 L4.5,19 C4.5,20.6568542 5.84314575,22 7.5,22 L16.5,22 C18.1568542,22 19.5,20.6568542 19.5,19 L19.5,5 C19.5,3.34314575 18.1568542,2 16.5,2 Z M7.5,3.5 L16.5,3.5 C17.3284271,3.5 18,4.17157288 18,5 L18,19 C18,19.8284271 17.3284271,20.5 16.5,20.5 L7.5,20.5 C6.67157288,20.5 6,19.8284271 6,19 L6,5 C6,4.17157288 6.67157288,3.5 7.5,3.5 Z" id="矩形-542336" fill="#000000" fill-rule="nonzero"></path>
    </g>
</svg>