<?xml version="1.0" encoding="UTF-8"?>
<svg width="24px" height="24px" viewBox="0 0 24 24" version="1.1" xmlns="http://www.w3.org/2000/svg" xmlns:xlink="http://www.w3.org/1999/xlink">
    <title>proportion_2:3</title>
    <g id="proportion_2:3" stroke="none" stroke-width="1" fill="none" fill-rule="evenodd">
        <path d="M19,2 C20.6572,2 22,3.34314 22,5 L22,19 C22,20.6569 20.6572,22 19,22 L5,22 C3.34277,22 2,20.6569 2,19 L2,5 C2,3.34314 3.34277,2 5,2 L19,2 Z M19,3.5 L5,3.5 C4.87598,3.5 4.75586,3.5144 4.63867,3.54327 C4.56348,3.56189 4.48926,3.58655 4.41699,3.61725 C4.33789,3.65051 4.26367,3.68982 4.19238,3.73517 L4.19238,3.73517 C4.10156,3.79327 4.01758,3.86133 3.93945,3.93933 C3.86133,4.01733 3.79297,4.10168 3.73535,4.19244 C3.68945,4.26331 3.65039,4.33801 3.61719,4.41656 C3.58691,4.4892 3.56152,4.56323 3.54297,4.63879 C3.51465,4.75568 3.5,4.87604 3.5,5 L3.5,19 C3.5,19.124 3.51465,19.2444 3.54297,19.3612 L3.54297,19.3613 C3.56152,19.4368 3.58691,19.5109 3.61719,19.5834 C3.65039,19.662 3.68945,19.7367 3.73535,19.8076 C3.79297,19.8983 3.86133,19.9827 3.93945,20.0607 C4.01758,20.1387 4.10156,20.2067 4.19238,20.2648 C4.26367,20.3102 4.33789,20.3495 4.41699,20.3828 C4.48926,20.4135 4.56348,20.4381 4.63867,20.4567 C4.75586,20.4856 4.87598,20.5 5,20.5 L19,20.5 C19.124,20.5 19.2441,20.4856 19.3613,20.4567 C19.4365,20.4381 19.5107,20.4135 19.583,20.3828 C19.6621,20.3495 19.7363,20.3102 19.8076,20.2648 L19.8076,20.2648 C19.8984,20.2067 19.9824,20.1386 20.0605,20.0607 C20.1387,19.9827 20.207,19.8983 20.2646,19.8076 L20.2646,19.8076 L20.2646,19.8075 C20.3105,19.7367 20.3496,19.662 20.3828,19.5834 C20.4131,19.5109 20.4385,19.4368 20.457,19.3613 C20.4854,19.2444 20.5,19.124 20.5,19 L20.5,5 C20.5,4.87604 20.4854,4.75562 20.457,4.63873 C20.4385,4.56317 20.4131,4.48914 20.3828,4.41656 C20.3496,4.33801 20.3105,4.26331 20.2646,4.1925 C20.207,4.10175 20.1387,4.01733 20.0605,3.93933 C19.9824,3.86133 19.8984,3.79327 19.8076,3.73517 L19.8076,3.73517 L19.8076,3.73517 C19.7363,3.68982 19.6621,3.65051 19.583,3.61725 C19.5107,3.58655 19.4365,3.56189 19.3613,3.54327 L19.3613,3.54327 L19.3613,3.54321 C19.2441,3.5144 19.124,3.5 19,3.5 Z" id="矢量-825" fill="#000000"></path>
        <path d="M15.0627,14.5849 C15.5725,14.5849 15.9846,14.4399 16.2981,14.1499 C16.6076,13.8632 16.7629,13.4882 16.7629,13.0249 C16.7629,12.7516 16.7024,12.5116 16.5832,12.3049 C16.4631,12.0949 16.2824,11.9349 16.0432,11.8249 C16.2199,11.7115 16.3557,11.5666 16.4524,11.3899 C16.549,11.2133 16.5979,11.0132 16.5979,10.7899 C16.5979,10.3732 16.4582,10.0382 16.1779,9.78491 C15.8977,9.52826 15.5324,9.3999 15.0832,9.3999 C14.7629,9.3999 14.4758,9.47156 14.2229,9.61493 C13.966,9.75824 13.7658,9.95825 13.6232,10.2149 C13.5559,10.3282 13.5363,10.4399 13.5627,10.5499 C13.5861,10.6632 13.6613,10.7599 13.7873,10.8399 C13.9182,10.9199 14.0227,10.9349 14.1027,10.8849 C14.1828,10.8383 14.2697,10.7432 14.3625,10.5999 C14.4426,10.4699 14.5393,10.3782 14.6525,10.3249 C14.7079,10.2972333 14.7649,10.2763 14.8235,10.2621 L14.8236,10.2621 C14.8848667,10.2473 14.9479667,10.2399 15.0129,10.2399 C15.2063,10.2399 15.3576,10.2916 15.468,10.3949 C15.5813,10.4982 15.6379,10.6382 15.6379,10.8149 C15.6379,11.0382 15.5725,11.2065 15.4426,11.3199 C15.3166,11.4299 15.133,11.4849 14.8928,11.4849 C14.7795,11.4849 14.6828,11.5249 14.6027,11.6049 C14.5227,11.6849 14.4826,11.7816 14.4826,11.8949 C14.4826,12.0215 14.5197,12.1249 14.593,12.2049 C14.6662,12.2849 14.7492,12.3249 14.843,12.3249 C15.2297,12.3249 15.4865,12.3849 15.6125,12.5049 C15.6278333,12.5193667 15.6422,12.5346 15.6556,12.5506 C15.7538,12.6674667 15.8029,12.8255667 15.8029,13.0249 C15.8029,13.2482 15.7365,13.4232 15.6027,13.5499 C15.466,13.6799 15.2863,13.7449 15.0627,13.7449 C14.7561,13.7449 14.5227,13.6399 14.3625,13.4299 L14.3176,13.3849 C14.2043333,13.2382333 14.1076333,13.1449 14.0275,13.1049 C13.9475,13.0649 13.8449,13.0849 13.718,13.1649 C13.5881,13.2449 13.508,13.3416 13.4777,13.4549 C13.4719667,13.4745 13.4679333,13.4943333 13.4656,13.5144 L13.4656,13.5144 C13.4543333,13.61 13.4818333,13.7101667 13.5481,13.8149 C13.6916,14.0549 13.8996,14.2432 14.1731,14.3799 C14.4465,14.5165 14.7424,14.5849 15.0627,14.5849 Z M10.4828,14.41 C10.393,14.4833 10.268,14.52 10.1078,14.52 L7.75819,14.52 C7.62733,14.52 7.51991,14.4916 7.433,14.4349 C7.34608,14.3783 7.28651,14.3033 7.25233,14.21 C7.23572,14.0499 7.308,13.8733 7.46815,13.6799 L8.81288,12.1899 L8.95741,12.0499 C9.18105,11.7766 9.32948,11.5716 9.40273,11.4349 C9.47304,11.2983 9.50819,11.1433 9.50819,10.97 C9.50819,10.7599 9.45253,10.5916 9.34316,10.465 C9.30511333,10.4213333 9.26255,10.385 9.21547,10.356 C9.12237,10.2986667 9.01161,10.27 8.88319,10.27 C8.73964,10.27 8.6078,10.3066 8.48769,10.3799 C8.36757,10.4533 8.26796,10.5533 8.18788,10.6799 C8.07753,10.8733 7.94276,10.97 7.78261,10.97 C7.62245,10.97 7.50233,10.9016 7.42323,10.765 C7.40162333,10.7280667 7.38584667,10.6897333 7.3759,10.65 C7.34898667,10.5423333 7.36476333,10.4239667 7.42323,10.2949 C7.56581,10.025 7.77284,9.81329 8.04237,9.65997 C8.31581,9.50659 8.61269,9.42993 8.933,9.42993 C9.39589,9.42993 9.76405,9.56659 10.0375,9.83997 C10.308,10.1133 10.4428,10.4816 10.4428,10.9449 C10.4428,11.2316 10.3715,11.5066 10.2279,11.77 C10.0844,12.0366 9.83632,12.3616 9.4828,12.7449 L8.62245,13.705 L10.1078,13.705 C10.268,13.705 10.393,13.7399 10.4828,13.8099 C10.5697,13.8833 10.6127,13.9833 10.6127,14.1099 C10.6127,14.2399 10.5697,14.34 10.4828,14.41 Z M12.4081,11.1049 C12.3114,11.1982 12.1825,11.2448 12.0223,11.2448 C11.8495,11.2448 11.7147,11.1932 11.618,11.0898 C11.5214,10.9865 11.4725,10.8549 11.4725,10.6948 C11.4725,10.5349 11.5214,10.4032 11.618,10.2999 C11.7147,10.1965 11.8495,10.1448 12.0223,10.1448 C12.1825,10.1448 12.3114,10.1965 12.4081,10.2999 C12.5048,10.4032 12.5526,10.5349 12.5526,10.6948 C12.5526,10.8715 12.5048,11.0082 12.4081,11.1049 Z M12.4081,13.6948 C12.3114,13.7915 12.1825,13.8398 12.0223,13.8398 C11.8495,13.8398 11.7147,13.7881 11.618,13.6848 C11.5214,13.5782 11.4725,13.4448 11.4725,13.2849 C11.4725,13.1248 11.5243,12.9932 11.6278,12.8898 C11.7313,12.7865 11.8632,12.7349 12.0223,12.7349 C12.1825,12.7349 12.3114,12.7865 12.4081,12.8898 C12.5048,12.9932 12.5526,13.1248 12.5526,13.2849 C12.5526,13.4615 12.5048,13.5981 12.4081,13.6948 Z" id="矢量-828" fill="#000000"></path>
    </g>
</svg>