<?xml version="1.0" encoding="UTF-8"?>
<svg width="24px" height="24px" viewBox="0 0 24 24" version="1.1" xmlns="http://www.w3.org/2000/svg" xmlns:xlink="http://www.w3.org/1999/xlink">
    <title>proportion_1:1</title>
    <g id="proportion_1:1" stroke="none" stroke-width="1" fill="none" fill-rule="evenodd">
        <path d="M22.0001,5 C22.0001,3.34326 20.6569,2 19.0001,2 L5.00012,2 C3.34338,2 2.00012,3.34326 2.00012,5 L2.00012,19 C2.00012,20.6567 3.34338,22 5.00012,22 L19.0001,22 C20.6569,22 22.0001,20.6567 22.0001,19 L22.0001,5 Z M5.00012,3.5 L19.0001,3.5 C19.1241,3.5 19.2445,3.51465 19.3612,3.54346 L19.3615,3.54346 C19.4369,3.56201 19.5109,3.58643 19.5836,3.61719 C19.6622,3.65039 19.7369,3.68994 19.8077,3.73535 C19.8986,3.79346 19.9828,3.86133 20.0607,3.93945 C20.1388,4.01758 20.2069,4.10156 20.265,4.19238 L20.2658,4.19359 C20.3108667,4.26403 20.3499,4.33833333 20.3829,4.4165 C20.4135,4.48926 20.4381,4.56299 20.4569,4.63867 C20.4857,4.75537 20.5001,4.87598 20.5001,5 L20.5001,19 C20.5001,19.124 20.4857,19.2446 20.4569,19.3613 C20.4381,19.437 20.4135,19.5107 20.3829,19.5835 C20.3499,19.6616333 20.3108667,19.7359333 20.2658,19.8064 L20.265,19.8076 C20.2069,19.8984 20.1388,19.9829 20.0607,20.0605 C19.9828,20.1387 19.8986,20.2065 19.8077,20.2646 C19.7369,20.3101 19.6622,20.3496 19.5836,20.3828 C19.5109,20.4136 19.4369,20.438 19.3615,20.4565 C19.2445,20.4854 19.1241,20.5 19.0001,20.5 L5.00012,20.5 C4.8761,20.5 4.75574,20.4854 4.63879,20.4565 C4.56335,20.438 4.48938,20.4136 4.41663,20.3828 C4.33826,20.3496 4.26355,20.3101 4.1925,20.2646 C4.10193,20.2065 4.01746,20.1387 3.93958,20.0605 C3.86145,19.9824 3.79333,19.8984 3.73523,19.8076 L3.73446,19.8064 C3.68937333,19.7359333 3.65032333,19.6616333 3.61731,19.5835 C3.58679,19.5107 3.56213,19.437 3.54333,19.3613 C3.51453,19.2441 3.50012,19.124 3.50012,19 L3.50012,5 C3.50012,4.87598 3.51453,4.75586 3.54333,4.63867 C3.56189,4.56348 3.58679,4.48926 3.61731,4.4165 C3.65032333,4.33833333 3.68937333,4.26403 3.73446,4.19359 L3.73523,4.19238 C3.79333,4.10156 3.86145,4.01758 3.93958,3.93945 C4.01746,3.86133 4.10193,3.79346 4.1925,3.73535 C4.26331,3.68994 4.33801,3.65039 4.41663,3.61719 C4.48938,3.58643 4.56335,3.56201 4.63904,3.54346 C4.75574,3.51465 4.8761,3.5 5.00012,3.5 Z M9.62,14.6401 C9.76672,14.6401 9.88,14.5933 9.96008,14.5 C10.0399,14.3999 10.08,14.27 10.08,14.1099 L10.08,9.85986 C10.08,9.68652 10.0533667,9.55322 10.0001,9.45996 C9.99454,9.45066667 9.98848333,9.44175 9.98193,9.43321 L9.98189,9.43316 C9.91786333,9.3497 9.80724,9.30199333 9.65002,9.29004 C9.58337,9.29004 9.51013,9.30664 9.43005,9.33984 C9.34998,9.3667 9.27014,9.40674 9.19006,9.45996 L9.12,9.5 L8.16003,10.0801 C7.98669,10.1733 7.87341,10.2769 7.81995,10.3901 C7.79663,10.4467667 7.78497,10.5034333 7.78497,10.5601 C7.78497,10.6167 7.79663,10.6733333 7.81995,10.73 C7.8866,10.8701 7.96667,10.9468 8.05994,10.96 C8.16003,10.9668 8.29675,10.9365 8.47009,10.8701 L9.14001,10.4902 L9.14001,14.1099 C9.14001,14.29 9.18005,14.4233 9.26013,14.5103 C9.33997,14.5967 9.46008,14.6401 9.62,14.6401 Z M15.3099,14.6401 C15.4567,14.6401 15.5699,14.5933 15.65,14.5 C15.7301,14.3999 15.7701,14.27 15.7701,14.1099 L15.7701,9.85986 C15.7701,9.68652 15.7401,9.55322 15.6801,9.45996 C15.6266,9.35986 15.5033,9.30322 15.3099,9.29004 C15.1967,9.29004 15.0302,9.35986 14.8099,9.5 L13.85,10.0801 C13.67,10.1733 13.5568,10.2769 13.5101,10.3901 C13.4867,10.4467667 13.475,10.5034333 13.475,10.5601 C13.475,10.6167 13.4867,10.6733333 13.5101,10.73 C13.5768,10.8701 13.6566,10.9468 13.7501,10.96 C13.85,10.9668 13.9867,10.9365 14.16,10.8701 L14.8099,10.4902 L14.8099,14.1099 C14.8099,14.27 14.8534,14.3999 14.9401,14.5 C15.0267,14.5933 15.15,14.6401 15.3099,14.6401 Z M12.0001,11.23 C12.1735,11.23 12.3099,11.1802 12.41,11.0801 C12.4348667,11.0516333 12.4564,11.0212667 12.4746,10.989 L12.4747,10.989 C12.5248333,10.9002667 12.5499,10.7973333 12.5499,10.6802 C12.5499,10.52 12.5001,10.3867 12.4,10.2803 C12.2933,10.1802 12.16,10.1299 12.0001,10.1299 C11.8534,10.1299 11.7301,10.1865 11.63,10.2998 C11.5233,10.4067 11.4701,10.5332 11.4701,10.6802 C11.4701,10.8398 11.5201,10.9731 11.62,11.0801 C11.7133,11.1802 11.84,11.23 12.0001,11.23 Z M12.0001,13.8198 C12.1735,13.8198 12.3099,13.7734 12.41,13.6802 C12.4131333,13.6771333 12.4161667,13.674 12.4191,13.6708 L12.42,13.6698 C12.5066,13.5768667 12.5499,13.4436 12.5499,13.27 C12.5499,13.1099 12.5001,12.98 12.4,12.8799 C12.3574667,12.8374333 12.3106667,12.8034333 12.2596,12.7779 C12.1827333,12.7394333 12.0962333,12.7202 12.0001,12.7202 C11.8534,12.7202 11.7301,12.7769 11.63,12.8901 C11.5233,13.0034 11.4701,13.1299 11.4701,13.27 C11.4701,13.4302 11.5201,13.5635 11.62,13.6699 C11.7133,13.77 11.84,13.8198 12.0001,13.8198 Z" id="矢量-426" fill="#000000"></path>
    </g>
</svg>