<svg viewBox="0 0 24 24" xmlns="http://www.w3.org/2000/svg" xmlns:xlink="http://www.w3.org/1999/xlink" width="24.000000" height="24.000000" fill="none">
	<rect id="icon/proportion" width="24.000000" height="24.000000" x="0.000000" y="0.000000" />
	<rect id="矩形 542348" width="24.000000" height="24.000000" x="0.000000" y="0.000000" opacity="0" />
	<g id="组合 29475">
		<path id="矢量 891" d="M22 5C22 3.34314 20.6572 2 19 2L4.99997 2C3.34274 2 1.99997 3.34314 1.99997 5L1.99997 19C1.99997 20.6569 3.34274 22 4.99997 22L19 22C20.6572 22 22 20.6569 22 19L22 5ZM4.99997 3.5L19 3.5C19.124 3.5 19.2441 3.5144 19.3613 3.54321L19.3613 3.54327C19.4365 3.56189 19.5107 3.58655 19.583 3.61725C19.6621 3.65051 19.7363 3.68982 19.8076 3.73517C19.8984 3.79327 19.9824 3.86133 20.0605 3.93933C20.1386 4.01733 20.207 4.10175 20.2646 4.1925C20.3105 4.26331 20.3496 4.33801 20.3828 4.41656C20.4131 4.48914 20.4384 4.56317 20.457 4.63873C20.4853 4.75562 20.5 4.87604 20.5 5L20.5 19C20.5 19.124 20.4853 19.2444 20.457 19.3613C20.4384 19.4368 20.4131 19.5109 20.3828 19.5834C20.3496 19.662 20.3105 19.7367 20.2646 19.8075L20.2646 19.8076C20.207 19.8983 20.1386 19.9827 20.0605 20.0607C19.9824 20.1386 19.8984 20.2067 19.8076 20.2648L19.8076 20.2648C19.7363 20.3102 19.6621 20.3495 19.583 20.3828C19.5107 20.4135 19.4365 20.4381 19.3613 20.4567C19.2441 20.4856 19.124 20.5 19 20.5L4.99997 20.5C4.87595 20.5 4.75583 20.4856 4.63864 20.4567C4.56345 20.4381 4.48923 20.4135 4.41696 20.3828C4.33786 20.3495 4.26364 20.3102 4.19235 20.2648C4.10153 20.2067 4.01755 20.1387 3.93942 20.0607C3.8613 19.9827 3.79294 19.8983 3.73532 19.8076C3.68942 19.7367 3.65036 19.662 3.61716 19.5834C3.58688 19.5109 3.56149 19.4368 3.54294 19.3613L3.54294 19.3612C3.51462 19.2444 3.49997 19.124 3.49997 19L3.49997 5C3.49997 4.87604 3.51462 4.75568 3.54294 4.63879C3.56149 4.56323 3.58688 4.4892 3.61716 4.41656C3.65036 4.33801 3.68942 4.26331 3.73532 4.19244C3.79294 4.10168 3.8613 4.01733 3.93942 3.93933C4.01755 3.86133 4.10153 3.79327 4.19235 3.73517C4.26364 3.68982 4.33786 3.65051 4.41696 3.61725C4.48923 3.58655 4.56345 3.56189 4.63864 3.54327C4.75583 3.5144 4.87595 3.5 4.99997 3.5ZM17.9172 14.447C17.8371 14.527 17.7258 14.567 17.5822 14.567C17.4387 14.567 17.3225 14.527 17.2326 14.447C17.1457 14.367 17.1028 14.247 17.1028 14.087L17.1028 10.582L16.4524 10.942C16.2922 11.022 16.1662 11.0537 16.0725 11.037C15.9758 11.0204 15.8957 10.9403 15.8322 10.797C15.799 10.6837 15.8029 10.5753 15.843 10.472C15.882 10.3687 15.9904 10.2687 16.1672 10.172L17.1028 9.62203C17.3596 9.462 17.5793 9.402 17.7629 9.44198C17.9455 9.48202 18.0373 9.66201 18.0373 9.98202L18.0373 14.087C18.0373 14.2469 17.9974 14.3669 17.9174 14.4468L17.9172 14.447ZM15.1902 14.46C15.1003 14.5333 14.9753 14.57 14.8152 14.57L12.4655 14.57C12.3347 14.57 12.2273 14.5417 12.1404 14.485C12.0534 14.4283 11.9939 14.3533 11.9597 14.26C11.9431 14.1 12.0154 13.9233 12.1755 13.73L13.5202 12.24L13.6648 12.1C13.8884 11.8267 14.0368 11.6216 14.1101 11.485C14.1804 11.3483 14.2155 11.1934 14.2155 11.02C14.2155 10.81 14.1599 10.6417 14.0505 10.515C14.0124 10.4714 13.9699 10.435 13.9228 10.406L13.9228 10.406C13.8297 10.3487 13.719 10.32 13.5905 10.32C13.447 10.32 13.3152 10.3567 13.195 10.43C13.0749 10.5034 12.9753 10.6033 12.8952 10.73C12.7849 10.9233 12.6501 11.02 12.49 11.02C12.3298 11.02 12.2097 10.9517 12.1306 10.815C12.109 10.7782 12.0932 10.7399 12.0832 10.7001L12.0832 10.7C12.0564 10.5923 12.0721 10.474 12.1306 10.345C12.2732 10.075 12.4802 9.86334 12.7497 9.71002C13.0232 9.55664 13.32 9.47998 13.6404 9.47998C14.1032 9.47998 14.4714 9.61664 14.7448 9.89001C15.0154 10.1633 15.1501 10.5317 15.1501 10.995C15.1501 11.2817 15.0788 11.5566 14.9353 11.82C14.7917 12.0867 14.5437 12.4117 14.1902 12.795L13.3298 13.755L14.8152 13.755C14.9753 13.755 15.1003 13.79 15.1902 13.86C15.2771 13.9333 15.32 14.0333 15.32 14.16C15.32 14.29 15.2771 14.39 15.1902 14.46ZM9.19919 11.815C9.11911 12.015 8.97653 12.2983 8.7695 12.6649L8.74411 12.69L7.78415 14.25C7.70407 14.3766 7.61618 14.465 7.5195 14.515C7.42575 14.5616 7.32321 14.5616 7.20993 14.515C7.08298 14.4516 7.00583 14.3633 6.97946 14.25C6.95602 14.1366 6.97653 14 7.03903 13.84L7.71481 12.74C7.51303 12.7609 7.32016 12.7473 7.13644 12.6992L7.13644 12.6992C6.91025 12.6401 6.69785 12.5286 6.49899 12.365C6.13962 12.0683 5.95993 11.6566 5.95993 11.13C5.95993 10.6667 6.11911 10.2783 6.43942 9.965C6.75974 9.655 7.15915 9.49997 7.63962 9.49997C8.13571 9.49997 8.54099 9.655 8.85446 9.965C9.16403 10.2783 9.31931 10.6833 9.31931 11.18C9.31931 11.3471 9.29684 11.5078 9.25204 11.6619C9.25168 11.6628 9.25143 11.6638 9.25119 11.6647C9.2363 11.7155 9.21896 11.7656 9.19919 11.815ZM10.68 11.28C10.8568 11.28 10.9925 11.2284 11.0892 11.125C11.183 11.0217 11.2298 10.89 11.2298 10.73C11.2298 10.6259 11.208 10.5338 11.1642 10.4537L11.164 10.4536C11.1406 10.4107 11.1107 10.3711 11.0746 10.3351C10.971 10.2317 10.8392 10.18 10.68 10.18C10.5365 10.18 10.4134 10.235 10.3099 10.345C10.2025 10.4583 10.1497 10.5867 10.1497 10.73C10.1497 10.89 10.1976 11.0217 10.2943 11.125C10.391 11.2284 10.5199 11.28 10.68 11.28ZM8.20407 10.555C8.06735 10.4117 7.88766 10.34 7.66403 10.34C7.44138 10.34 7.26071 10.4117 7.12399 10.555C6.98825 10.6983 6.91989 10.89 6.91989 11.13C6.91989 11.37 6.98825 11.5666 7.12399 11.7199C7.26071 11.87 7.44138 11.945 7.66403 11.945C7.88766 11.945 8.06735 11.87 8.20407 11.7199C8.23227 11.6883 8.25754 11.6549 8.27988 11.6196C8.36606 11.4837 8.40915 11.3205 8.40915 11.13C8.40915 10.89 8.34079 10.6983 8.20407 10.555ZM10.68 13.875C10.8568 13.875 10.9925 13.8267 11.0892 13.73C11.0958 13.7233 11.1021 13.7163 11.1081 13.7092C11.1893 13.6141 11.2298 13.4844 11.2298 13.32C11.2298 13.16 11.1781 13.0284 11.0746 12.925C10.971 12.8217 10.8392 12.7701 10.68 12.7701C10.5531 12.7701 10.433 12.8267 10.3197 12.94C10.2064 13.05 10.1497 13.1767 10.1497 13.32C10.1497 13.48 10.1976 13.6134 10.2943 13.72C10.391 13.8233 10.5199 13.875 10.68 13.875Z" fill="rgb(0,0,0)" fill-rule="evenodd" />
	</g>
</svg>
