<?xml version="1.0" encoding="UTF-8"?>
<svg width="24px" height="24px" viewBox="0 0 24 24" version="1.1" xmlns="http://www.w3.org/2000/svg" xmlns:xlink="http://www.w3.org/1999/xlink">
    <title>proportion_2:3_fill_active_light</title>
    <g id="proportion_2:3_fill_active_light" stroke="none" stroke-width="1" fill="none" fill-rule="evenodd">
        <rect id="矩形-542335" fill-opacity="0.200000003" fill="#000000" fill-rule="nonzero" x="5.334961" y="2" width="13.33" height="20" rx="3"></rect>
        <path d="M15.664961,2 L8.334961,2 C6.67810675,2 5.334961,3.34314575 5.334961,5 L5.334961,19 C5.334961,20.6568542 6.67810675,22 8.334961,22 L15.664961,22 C17.3218152,22 18.664961,20.6568542 18.664961,19 L18.664961,5 C18.664961,3.34314575 17.3218152,2 15.664961,2 Z M8.334961,3.5 L15.664961,3.5 C16.4933881,3.5 17.164961,4.17157288 17.164961,5 L17.164961,19 C17.164961,19.8284271 16.4933881,20.5 15.664961,20.5 L8.334961,20.5 C7.50653388,20.5 6.834961,19.8284271 6.834961,19 L6.834961,5 C6.834961,4.17157288 7.50653388,3.5 8.334961,3.5 Z" id="矩形-542335" fill="#000000" fill-rule="nonzero"></path>
    </g>
</svg>