<?xml version="1.0" encoding="UTF-8"?>
<svg width="24px" height="24px" viewBox="0 0 24 24" version="1.1" xmlns="http://www.w3.org/2000/svg" xmlns:xlink="http://www.w3.org/1999/xlink">
    <title>proportion_4:3</title>
    <g id="proportion_4:3" stroke="none" stroke-width="1" fill="none" fill-rule="evenodd">
        <path d="M22.0001,5 C22.0001,3.34314 20.6573,2 19.0001,2 L5.00012,2 C3.3429,2 2.00012,3.34314 2.00012,5 L2.00012,19 C2.00012,20.6569 3.3429,22 5.00012,22 L19.0001,22 C20.6573,22 22.0001,20.6569 22.0001,19 L22.0001,5 Z M5.00012,3.5 L19.0001,3.5 C19.1241,3.5 19.2443,3.5144 19.3615,3.54321 L19.3615,3.54327 C19.4366,3.56189 19.5109,3.58655 19.5831,3.61725 C19.6622,3.65051 19.7365,3.68982 19.8077,3.73517 C19.8986,3.79327 19.9825,3.86133 20.0607,3.93933 C20.1388,4.01733 20.2072,4.10175 20.2648,4.1925 C20.3107,4.26331 20.3497,4.33801 20.3829,4.41656 C20.4132,4.48914 20.4386,4.56317 20.4572,4.63873 C20.4855,4.75562 20.5001,4.87604 20.5001,5 L20.5001,19 C20.5001,19.124 20.4855,19.2444 20.4572,19.3613 C20.4386,19.4368 20.4132,19.5109 20.3829,19.5834 C20.3497,19.662 20.3107,19.7367 20.2648,19.8075 L20.2648,19.8076 C20.2072,19.8983 20.1388,19.9827 20.0607,20.0607 C19.9825,20.1386 19.8986,20.2067 19.8077,20.2648 L19.8077,20.2648 C19.7365,20.3102 19.6622,20.3495 19.5831,20.3828 C19.5109,20.4135 19.4366,20.4381 19.3615,20.4567 C19.2443,20.4856 19.1241,20.5 19.0001,20.5 L5.00012,20.5 C4.8761,20.5 4.75598,20.4856 4.63879,20.4567 C4.5636,20.4381 4.48938,20.4135 4.41711,20.3828 C4.33801,20.3495 4.26379,20.3102 4.1925,20.2648 C4.10168,20.2067 4.0177,20.1387 3.93958,20.0607 C3.86145,19.9827 3.79309,19.8983 3.73547,19.8076 C3.68958,19.7367 3.65051,19.662 3.61731,19.5834 C3.58704,19.5109 3.56165,19.4368 3.54309,19.3613 L3.54309,19.3612 C3.51477,19.2444 3.50012,19.124 3.50012,19 L3.50012,5 C3.50012,4.87604 3.51477,4.75568 3.54309,4.63879 C3.56165,4.56323 3.58704,4.4892 3.61731,4.41656 C3.65051,4.33801 3.68958,4.26331 3.73547,4.19244 C3.79309,4.10168 3.86145,4.01733 3.93958,3.93933 C4.0177,3.86133 4.10168,3.79327 4.1925,3.73517 C4.26379,3.68982 4.33801,3.65051 4.41711,3.61725 C4.48938,3.58655 4.5636,3.56189 4.63879,3.54327 C4.75598,3.5144 4.8761,3.5 5.00012,3.5 Z M15.17,14.57 C15.6632,14.57 16.0665,14.425 16.38,14.135 C16.6935,13.8483 16.8497,13.4733 16.8497,13.01 C16.8497,12.45 16.6095,12.05 16.13,11.81 C16.3029,11.6967 16.4386,11.5517 16.5353,11.375 C16.632,11.1984 16.6798,10.9984 16.6798,10.775 C16.6798,10.3583 16.5402,10.0233 16.2599,9.77002 C15.9796,9.51337 15.6163,9.38501 15.17,9.38501 C14.8497,9.38501 14.5616,9.45667 14.3048,9.60004 C14.048,9.74335 13.8478,9.94336 13.7052,10.2 C13.6417,10.3134 13.6212,10.425 13.6447,10.535 C13.6681,10.6483 13.7433,10.745 13.8702,10.825 C14.0001,10.905 14.1085,10.92 14.1945,10.87 C14.2853,10.8234 14.3761,10.7283 14.4698,10.585 C14.5499,10.455 14.6427,10.3633 14.7501,10.31 C14.8536,10.2534 14.9767,10.225 15.1202,10.225 C15.297,10.225 15.4396,10.2767 15.5499,10.38 C15.6632,10.4833 15.7198,10.6234 15.7198,10.8 C15.7198,11.0233 15.6603,11.1917 15.5402,11.305 C15.42,11.415 15.2316,11.47 14.9747,11.47 C14.8644,11.47 14.7697,11.51 14.6896,11.59 C14.6095,11.67 14.5695,11.7667 14.5695,11.88 C14.5695,11.9850667 14.5937,12.0741 14.6421,12.1471 L14.6421,12.1471 C14.6520333,12.1621 14.6629667,12.1764 14.6749,12.19 C14.7482,12.27 14.8331,12.31 14.9298,12.31 C15.3136,12.31 15.5685,12.37 15.6945,12.49 C15.8253,12.61 15.8898,12.7833 15.8898,13.01 C15.8898,13.2167 15.8253,13.3884 15.6945,13.525 C15.5685,13.6617 15.3927,13.73 15.17,13.73 C14.8497,13.73 14.6095,13.625 14.4503,13.415 L14.3995,13.37 C14.2862333,13.2233333 14.1895667,13.13 14.1095,13.09 C14.0294,13.05 13.9269,13.07 13.7999,13.15 C13.673,13.23 13.5929,13.3267 13.5597,13.44 C13.5539667,13.4596 13.5499,13.4794333 13.5475,13.4995 C13.5363,13.5951 13.5638,13.6952667 13.63,13.8 C13.7765,14.04 13.9845,14.2283 14.255,14.365 C14.5284,14.5016 14.8331,14.57 15.17,14.57 Z M9.59973,14.57 C9.72668,14.57 9.83801,14.5217 9.93469,14.425 C10.0314,14.3284 10.0802,14.2 10.0802,14.04 L10.0802,13.49 L10.3195,13.49 C10.4464,13.49 10.5548,13.45 10.6447,13.37 C10.7316,13.29 10.7745,13.1934 10.7745,13.08 C10.7745,12.9667 10.7267,12.87 10.63,12.79 C10.5363,12.71 10.4161,12.67 10.2697,12.67 L10.0802,12.67 L10.0802,11.88 C10.0802,11.72 10.0314,11.5917 9.93469,11.495 C9.83801,11.3983 9.72668,11.35 9.59973,11.35 C9.47278,11.35 9.36438,11.3983 9.27454,11.495 C9.1886,11.5917 9.14465,11.72 9.14465,11.88 L9.14465,12.67 L8.08997,12.67 L9.4552,10.055 C9.53528,9.89502 9.53137,9.7467 9.44446,9.60999 C9.39916,9.54277667 9.34492333,9.49250667 9.28175,9.45918 C9.21962333,9.42641333 9.14886,9.41003 9.06946,9.41003 C8.98938,9.41003 8.91809,9.42999 8.85461,9.47003 C8.79114,9.51001 8.73645,9.57001 8.68958,9.65002 L7.02942,12.79 C6.95032,12.9667 6.95032,13.1266 7.02942,13.27 C7.1095,13.4167 7.26282,13.49 7.48938,13.49 L9.14465,13.49 L9.14465,14.065 C9.14465,14.2083 9.1886,14.3284 9.27454,14.425 C9.32491333,14.4792 9.38112,14.5182 9.44316,14.542 C9.49177333,14.5606667 9.54396333,14.57 9.59973,14.57 Z M12.1202,11.23 C12.297,11.23 12.4327,11.1783 12.5294,11.075 C12.6232,10.9717 12.67,10.84 12.67,10.68 C12.67,10.5758667 12.6481,10.4837667 12.6043,10.4037 C12.5807667,10.3607 12.5509333,10.3211333 12.5148,10.285 C12.4113,10.1817 12.2794,10.13 12.1202,10.13 C11.9767,10.13 11.8536,10.185 11.7501,10.295 C11.6427,10.4083 11.59,10.5367 11.59,10.68 C11.59,10.84 11.6378,10.9717 11.7345,11.075 C11.8312,11.1783 11.9601,11.23 12.1202,11.23 Z M12.1202,13.825 C12.297,13.825 12.4327,13.7767 12.5294,13.68 C12.5358,13.6734 12.542,13.6666 12.548,13.6596 L12.5484,13.6592 C12.6294667,13.5640667 12.67,13.4343333 12.67,13.27 C12.67,13.11 12.6183,12.9783 12.5148,12.875 C12.4113,12.7717 12.2794,12.72 12.1202,12.72 C11.9933,12.72 11.8732,12.7767 11.7599,12.89 C11.6466,13 11.59,13.1266 11.59,13.27 C11.59,13.43 11.6378,13.5634 11.7345,13.67 C11.8312,13.7733 11.9601,13.825 12.1202,13.825 Z" id="矢量-817" fill="#000000"></path>
    </g>
</svg>