<?xml version="1.0" encoding="UTF-8"?>
<svg width="24px" height="24px" viewBox="0 0 24 24" version="1.1" xmlns="http://www.w3.org/2000/svg" xmlns:xlink="http://www.w3.org/1999/xlink">
    <title>proportion_3:2_fill_active_light</title>
    <g id="proportion_3:2_fill_active_light" stroke="none" stroke-width="1" fill="none" fill-rule="evenodd">
        <rect id="矩形-542337" fill-opacity="0.200000003" fill="#000000" fill-rule="nonzero" transform="translate(12.000000, 11.999960) rotate(90.000000) translate(-12.000000, -11.999960) " x="5.335" y="1.99996" width="13.33" height="20" rx="3"></rect>
        <path d="M15.665,1.99996 L8.335,1.99996 C6.67814575,1.99996 5.335,3.34310575 5.335,4.99996 L5.335,18.99996 C5.335,20.6568142 6.67814575,21.99996 8.335,21.99996 L15.665,21.99996 C17.3218542,21.99996 18.665,20.6568142 18.665,18.99996 L18.665,4.99996 C18.665,3.34310575 17.3218542,1.99996 15.665,1.99996 Z M8.335,3.49996 L15.665,3.49996 C16.4934271,3.49996 17.165,4.17153288 17.165,4.99996 L17.165,18.99996 C17.165,19.8283871 16.4934271,20.49996 15.665,20.49996 L8.335,20.49996 C7.50657288,20.49996 6.835,19.8283871 6.835,18.99996 L6.835,4.99996 C6.835,4.17153288 7.50657288,3.49996 8.335,3.49996 Z" id="矩形-542337" fill="#000000" fill-rule="nonzero" transform="translate(12.000000, 11.999960) rotate(90.000000) translate(-12.000000, -11.999960) "></path>
    </g>
</svg>