<?xml version="1.0" encoding="UTF-8"?>
<svg width="24px" height="24px" viewBox="0 0 24 24" version="1.1" xmlns="http://www.w3.org/2000/svg" xmlns:xlink="http://www.w3.org/1999/xlink">
    <title>proportion_16:9</title>
    <g id="proportion_16:9" stroke="none" stroke-width="1" fill="none" fill-rule="evenodd">
        <path d="M22.0001,5 C22.0001,3.34314 20.6573,2 19.0001,2 L5.00012,2 C3.3429,2 2.00012,3.34314 2.00012,5 L2.00012,19 C2.00012,20.6569 3.3429,22 5.00012,22 L19.0001,22 C20.6573,22 22.0001,20.6569 22.0001,19 L22.0001,5 Z M5.00012,3.5 L19.0001,3.5 C19.1241,3.5 19.2443,3.5144 19.3615,3.54321 L19.3615,3.54327 C19.4366,3.56189 19.5109,3.58655 19.5831,3.61725 C19.6622,3.65051 19.7365,3.68982 19.8077,3.73517 C19.8986,3.79327 19.9825,3.86133 20.0607,3.93933 C20.1388,4.01733 20.2072,4.10175 20.2648,4.1925 C20.3107,4.26331 20.3497,4.33801 20.3829,4.41656 C20.4132,4.48914 20.4386,4.56317 20.4572,4.63873 C20.4855,4.75562 20.5001,4.87604 20.5001,5 L20.5001,19 C20.5001,19.124 20.4855,19.2444 20.4572,19.3613 C20.4386,19.4368 20.4132,19.5109 20.3829,19.5834 C20.3497,19.662 20.3107,19.7367 20.2648,19.8075 L20.2648,19.8076 C20.2072,19.8983 20.1388,19.9827 20.0607,20.0607 C19.9825,20.1386 19.8986,20.2067 19.8077,20.2648 L19.8077,20.2648 C19.7365,20.3102 19.6622,20.3495 19.5831,20.3828 C19.5109,20.4135 19.4366,20.4381 19.3615,20.4567 C19.2443,20.4856 19.1241,20.5 19.0001,20.5 L5.00012,20.5 C4.8761,20.5 4.75598,20.4856 4.63879,20.4567 C4.5636,20.4381 4.48938,20.4135 4.41711,20.3828 C4.33801,20.3495 4.26379,20.3102 4.1925,20.2648 C4.10168,20.2067 4.0177,20.1387 3.93958,20.0607 C3.86145,19.9827 3.79309,19.8983 3.73547,19.8076 C3.68958,19.7367 3.65051,19.662 3.61731,19.5834 C3.58704,19.5109 3.56165,19.4368 3.54309,19.3613 L3.54309,19.3612 C3.51477,19.2444 3.50012,19.124 3.50012,19 L3.50012,5 C3.50012,4.87604 3.51477,4.75568 3.54309,4.63879 C3.56165,4.56323 3.58704,4.4892 3.61731,4.41656 C3.65051,4.33801 3.68958,4.26331 3.73547,4.19244 C3.79309,4.10168 3.86145,4.01733 3.93958,3.93933 C4.0177,3.86133 4.10168,3.79327 4.1925,3.73517 C4.26379,3.68982 4.33801,3.65051 4.41711,3.61725 C4.48938,3.58655 4.5636,3.56189 4.63879,3.54327 C4.75598,3.5144 4.8761,3.5 5.00012,3.5 Z M17.7599,12.575 C17.9669,12.2084 18.1095,11.925 18.1896,11.725 C18.2097333,11.6748 18.2273,11.6238333 18.2423,11.5721 L18.2424,11.5719 C18.2872667,11.4178333 18.3097,11.2572 18.3097,11.09 C18.3097,10.5934 18.1544,10.1884 17.8448,9.87506 C17.5314,9.56506 17.1261,9.41003 16.63,9.41003 C16.1495,9.41003 15.7501,9.56506 15.4298,9.87506 C15.1095,10.1884 14.9503,10.5767 14.9503,11.04 C14.9503,11.5667 15.13,11.9784 15.4894,12.275 C15.6882,12.4386667 15.9006667,12.5501 16.1268,12.6093 C16.3106,12.6573667 16.5034,12.6709333 16.7052,12.65 L16.0294,13.7501 C15.9669,13.91 15.9464,14.0467 15.9698,14.16 C15.9962,14.2734 16.0734,14.3617 16.2003,14.425 C16.3136,14.4717 16.4161,14.4717 16.5099,14.425 C16.6066,14.3751 16.6945,14.2867 16.7745,14.16 L17.7345,12.6 L17.7599,12.575 Z M7.43958,14.57 C7.58313,14.57 7.69446,14.53 7.77454,14.45 L7.77472,14.4498 C7.85467333,14.3698667 7.89465,14.2499333 7.89465,14.09 L7.89465,9.98505 C7.89465,9.66504 7.80286,9.48505 7.62024,9.44501 C7.43665,9.40503 7.21692,9.46503 6.96008,9.62506 L6.02454,10.175 C5.84778,10.2717 5.73938,10.3717 5.70032,10.475 C5.66028,10.5784 5.65637,10.6867 5.68958,10.8 C5.75305,10.9434 5.83313,11.0234 5.92981,11.04 C6.02356,11.0567 6.14954,11.025 6.30969,10.945 L6.96008,10.585 L6.96008,14.09 C6.96008,14.2501 7.00305,14.3701 7.08997,14.45 C7.17981,14.53 7.29602,14.57 7.43958,14.57 Z M10.3448,14.425 C10.8419,14.425 11.2452,14.265 11.5548,13.945 C11.8683,13.6251 12.0245,13.2334 12.0245,12.77 C12.0245,12.3033 11.8761,11.9233 11.5802,11.63 C11.2833,11.3334 10.9113,11.1851 10.465,11.1851 C10.4152,11.1851 10.3781,11.1884 10.3546,11.195 C10.3312,11.205 10.296,11.21 10.2501,11.21 L10.9445,10.105 C11.0411,9.96173 11.0499,9.82172 10.9698,9.68506 C10.8898,9.54834 10.7648,9.47668 10.5948,9.47003 C10.4279,9.46002 10.2882,9.5434 10.1749,9.72003 L9.23938,11.23 C9.03333,11.6 8.88489,11.885 8.79504,12.085 C8.70813,12.285 8.66516,12.505 8.66516,12.7451 C8.66516,13.2417 8.81946,13.645 9.13,13.955 C9.44348,14.2684 9.84778,14.425 10.3448,14.425 Z M13.5099,11.255 C13.67,11.255 13.798,11.2067 13.8947,11.11 C13.9913,11.0167 14.0402,10.89 14.0402,10.73 C14.0402,10.57 13.9913,10.4367 13.8947,10.33 C13.798,10.2267 13.67,10.175 13.5099,10.175 C13.3829,10.175 13.2628,10.2267 13.1495,10.33 C13.0402,10.4367 12.9845,10.57 12.9845,10.73 C12.9845,10.8734 13.0363,10.9967 13.1398,11.1 C13.2433,11.2034 13.3663,11.255 13.5099,11.255 Z M16.6544,10.2501 C16.8781,10.2501 17.0577,10.3217 17.1945,10.465 C17.3312,10.6084 17.3995,10.8 17.3995,11.04 C17.3995,11.2305333 17.3564333,11.3937333 17.2703,11.5296 C17.2479,11.5649333 17.2226333,11.5984 17.1945,11.63 C17.0577,11.78 16.8781,11.855 16.6544,11.855 C16.4318,11.855 16.2511,11.78 16.1144,11.63 C15.9786,11.4767 15.9103,11.28 15.9103,11.04 C15.9103,10.8 15.9786,10.6084 16.1144,10.465 C16.2511,10.3217 16.4318,10.2501 16.6544,10.2501 Z M10.3448,12.0001 C10.5685,12.0001 10.7482,12.0717 10.8849,12.215 C11.0216,12.3584 11.09,12.55 11.09,12.79 C11.09,13.03 11.0216,13.2234 10.8849,13.3701 C10.7482,13.5134 10.5685,13.585 10.3448,13.585 C10.1212,13.585 9.94153,13.5167 9.80481,13.38 C9.79533,13.3705333 9.78618,13.3607667 9.77736,13.3507 C9.65894,13.2157667 9.59973,13.0288667 9.59973,12.79 C9.59973,12.55 9.66809,12.3584 9.80481,12.215 C9.94153,12.0717 10.1212,12.0001 10.3448,12.0001 Z M13.5099,13.7501 C13.67,13.7501 13.798,13.6984 13.8947,13.595 C13.9913,13.4917 14.0402,13.36 14.0402,13.2 C14.0402,13.0567 13.9884,12.9333 13.8849,12.83 C13.7814,12.7234 13.6564,12.67 13.5099,12.67 C13.3829,12.67 13.2628,12.7267 13.1495,12.84 C13.0402,12.9534 12.9845,13.0734 12.9845,13.2 C12.9845,13.3434 13.0402,13.4717 13.1495,13.585 C13.2628,13.695 13.3829,13.7501 13.5099,13.7501 Z" id="矢量-819" fill="#000000"></path>
    </g>
</svg>