<?xml version="1.0" encoding="UTF-8"?>
<svg width="24px" height="24px" viewBox="0 0 24 24" version="1.1" xmlns="http://www.w3.org/2000/svg" xmlns:xlink="http://www.w3.org/1999/xlink">
    <title>reset_light</title>
    <g id="reset_light" stroke="none" stroke-width="1" fill="none" fill-rule="evenodd" fill-opacity="0.9">
        <path d="M0.984863,12.095 C0.984863,10.175 1.4482,8.38333 2.37486,6.72 C3.30486,5.05666 4.56986,3.71333 6.16986,2.69 C7.76986,1.66333 9.52986,1.10333 11.4499,1.01 C12.9032,0.943331 14.3149,1.15 15.6849,1.63 C17.0515,2.11 18.2799,2.84666 19.3699,3.84 C20.4565,4.83333 21.3082,5.985 21.9249,7.295 C22.5415,8.60833 22.8899,10 22.9699,11.47 C23.0332,12.9267 22.8249,14.34 22.3449,15.71 C21.8649,17.0767 21.1282,18.3033 20.1349,19.39 C19.1449,20.48 17.9932,21.3333 16.6799,21.95 C15.3665,22.5633 13.9749,22.9033 12.5049,22.97 L11.9749,22.99 C10.6482,22.99 9.36486,22.7583 8.12486,22.295 C6.88486,21.8317 5.7682,21.16 4.77486,20.28 C4.5982,20.1367 4.50986,19.945 4.50986,19.705 C4.50986,19.545 4.57486,19.385 4.70486,19.225 C4.8482,19.0483 5.03986,18.96 5.27986,18.96 C5.43986,18.96 5.59986,19.0233 5.75986,19.15 C6.68653,19.9667 7.72653,20.575 8.87986,20.975 C10.0332,21.375 11.2249,21.5433 12.4549,21.48 C13.7182,21.4167 14.9182,21.1167 16.0549,20.58 C17.1915,20.0433 18.1832,19.3033 19.0299,18.36 C19.8799,17.4333 20.5165,16.3817 20.9399,15.205 C21.3632,14.0283 21.5432,12.8083 21.4799,11.545 C21.4165,10.2817 21.1199,9.08166 20.5899,7.945 C20.0632,6.80833 19.3282,5.81666 18.3849,4.97 C17.4549,4.10333 16.4032,3.45833 15.2299,3.035 C14.0532,2.61166 12.8249,2.43166 11.5449,2.495 C9.88153,2.575 8.36153,3.05166 6.984863,3.925 C5.6082,4.795 4.51986,5.94333 3.71986,7.37 C2.91986,8.79333 2.51986,10.3367 2.51986,12 L4.12986,12 C4.2232,12 4.3032,12.0367 4.36986,12.11 C4.4332,12.18 4.46486,12.255 4.46486,12.335 C4.46486,12.415 4.4482,12.48 4.41486,12.53 L2.34986,15.89 C2.28653,16 2.17486,16.055 2.01486,16.055 C1.8882,16.055 1.78486,15.9833 1.70486,15.84 C1.33486,14.8167 1.10986,13.7367 1.02986,12.6 L1.00986,12.505 L0.984863,12.095 Z" id="çŸ¢é‡-355" fill="#000000" fill-rule="nonzero"></path>
    </g>
</svg>