<svg viewBox="0 0 24 24" xmlns="http://www.w3.org/2000/svg" xmlns:xlink="http://www.w3.org/1999/xlink" width="24.000000" height="24.000000" fill="none" customFrame="#000000">
	<g id="rotate_dark">
		<path id="矩形 3745" d="M12 0C18.6274 0 24 5.37258 24 12C24 18.6274 18.6274 24 12 24C5.37258 24 0 18.6274 0 12C0 5.37258 5.37258 0 12 0Z" fill="rgb(255,255,255)" fill-rule="evenodd" />
		<path id="矩形 3745" d="M24 12C24 5.37258 18.6274 0 12 0C5.37258 0 0 5.37258 0 12C0 18.6274 5.37258 24 12 24C18.6274 24 24 18.6274 24 12ZM1.46563 14.3998Q1.2 13.2301 1.2 12Q1.2 10.7699 1.46563 9.60022Q1.67468 8.67969 2.04822 7.79652Q2.42996 6.894 2.95824 6.08747Q3.5643 5.16219 4.36325 4.36325Q5.16217 3.56432 6.08743 2.95827Q6.89398 2.42997 7.79652 2.04823Q8.67971 1.67467 9.60025 1.46563Q10.77 1.2 12 1.2Q13.23 1.2 14.3998 1.46563Q15.3203 1.67467 16.2035 2.04822Q17.1061 2.42998 17.9126 2.9583Q18.8379 3.56434 19.6368 4.36325Q20.4356 5.16211 21.0416 6.08729Q21.57 6.8939 21.9518 7.79652Q22.3253 8.67969 22.5344 9.60021Q22.8 10.7699 22.8 12Q22.8 13.2301 22.5344 14.3998Q22.3253 15.3203 21.9518 16.2035Q21.57 17.1061 21.0417 17.9127Q20.4356 18.8379 19.6368 19.6368Q18.8378 20.4357 17.9126 21.0417Q17.106 21.57 16.2035 21.9518Q15.3203 22.3253 14.3998 22.5344Q13.23 22.8 12 22.8Q10.77 22.8 9.60023 22.5344Q8.67969 22.3253 7.79652 21.9518Q6.89397 21.57 6.08742 21.0417Q5.16217 20.4357 4.36325 19.6368Q3.56432 18.8378 2.95827 17.9126Q2.42997 17.106 2.04822 16.2035Q1.67468 15.3203 1.46563 14.3998Z" fill="rgb(49,122,247)" fill-rule="evenodd" />
		<path id="矩形 3745(边框)" d="M0 12C0 5.37258 5.37258 0 12 0C18.6274 0 24 5.37258 24 12C24 18.6274 18.6274 24 12 24C5.37258 24 0 18.6274 0 12ZM1.2 12C1.2 12.82 1.28855 13.62 1.46563 14.3998L1.46564 14.3998C1.605 15.0135 1.7992 15.6147 2.04822 16.2035C2.30272 16.8052 2.60607 17.3749 2.95827 17.9126C3.36231 18.5294 3.83063 19.1041 4.36325 19.6368C4.89586 20.1694 5.47058 20.6377 6.08742 21.0417C6.62513 21.3939 7.19483 21.6973 7.79652 21.9518C8.38529 22.2008 8.98651 22.395 9.60018 22.5344L9.60023 22.5344C10.38 22.7115 11.18 22.8 12 22.8C12.82 22.8 13.6199 22.7115 14.3997 22.5344L14.3998 22.5344L14.3998 22.5344C15.0135 22.395 15.6147 22.2008 16.2035 21.9518C16.8052 21.6973 17.3749 21.3939 17.9126 21.0417L17.9127 21.0417C18.5295 20.6376 19.1042 20.1693 19.6368 19.6368C20.1693 19.1042 20.6377 18.5295 21.0417 17.9127C21.3939 17.3749 21.6973 16.8052 21.9518 16.2035C22.2008 15.6147 22.395 15.0135 22.5344 14.3998C22.7115 13.62 22.8 12.82 22.8 12C22.8 11.18 22.7115 10.38 22.5344 9.60021C22.395 8.98652 22.2008 8.38529 21.9518 7.79652C21.6973 7.19477 21.3939 6.62503 21.0416 6.08729C20.6376 5.4705 20.1693 4.89582 19.6368 4.36325C19.1042 3.83064 18.5294 3.36233 17.9126 2.9583C17.3749 2.60609 16.8052 2.30273 16.2035 2.04822C15.6147 1.79919 15.0135 1.60499 14.3998 1.46563C13.62 1.28854 12.82 1.2 12 1.2C11.18 1.2 10.3801 1.28854 9.60025 1.46563L9.60022 1.46563C8.98653 1.605 8.3853 1.79919 7.79652 2.04823C7.19483 2.30272 6.62513 2.60607 6.08744 2.95826L6.08743 2.95827C5.47059 3.36231 4.89586 3.83063 4.36325 4.36325C3.83062 4.89588 3.36228 5.47062 2.95824 6.08747L2.95823 6.08748C2.60605 6.62516 2.30271 7.19485 2.04822 7.79652C1.79919 8.3853 1.605 8.98653 1.46563 9.60022C1.28854 10.38 1.2 11.18 1.2 12Z" fill="rgb(49,122,247)" fill-rule="evenodd" />
		<g id="arrow_2_circlepath">
			<path id="矢量 827" d="M1.91928 10.3854C2.36807 11.0848 2.97206 11.6847 3.73124 12.1849L3.77643 12.2188C3.82394 12.2599 3.86192 12.3062 3.89039 12.3578C3.91758 12.4071 3.93608 12.4612 3.9459 12.5201C3.95543 12.5698 3.95647 12.6182 3.94904 12.6653C3.93884 12.7299 3.91269 12.7919 3.87058 12.8515C3.84236 12.8966 3.80857 12.9347 3.76919 12.9656C3.72097 13.0035 3.66439 13.0307 3.59943 13.0473C3.59462 13.0486 3.58979 13.0499 3.58494 13.051C3.47077 13.0782 3.34505 13.0569 3.20778 12.9871C2.39583 12.4678 1.73641 11.8427 1.22951 11.1119C0.79284 10.4823 0.469356 9.77423 0.259057 8.98764C0.0340309 8.14004 -0.044396 7.30458 0.0237765 6.48126C0.092512 5.65114 0.310278 4.83335 0.677075 4.02791C0.960995 3.40446 1.32018 2.84774 1.75463 2.35775C2.43811 1.58689 3.30787 0.981197 4.36392 0.540667C4.77566 0.364924 5.22255 0.228096 5.70459 0.130182C6.18913 0.0322673 6.69377 -0.0104134 7.21849 0.00213957C7.26824 0.00213957 7.31332 0.0118637 7.35371 0.031312C7.38873 0.0481725 7.42023 0.0723417 7.44821 0.103819C7.48297 0.139972 7.50811 0.17959 7.52362 0.222673C7.53611 0.25738 7.54236 0.294336 7.54236 0.333541C7.54236 0.370538 7.53646 0.405413 7.52467 0.438165C7.50926 0.48098 7.48377 0.520169 7.44821 0.555731L5.68952 2.29935C5.66255 2.32633 5.63281 2.34726 5.6003 2.36216C5.56019 2.38054 5.51587 2.38974 5.46733 2.38974C5.4188 2.38974 5.37447 2.38054 5.33436 2.36216C5.30185 2.34726 5.27211 2.32633 5.24514 2.29935L4.48819 1.5424C3.66539 1.9208 2.98268 2.4213 2.44006 3.04389C2.05382 3.48704 1.73857 3.99204 1.49428 4.55891C1.20359 5.23636 1.03317 5.9225 0.983029 6.61731C0.93227 7.32069 1.00477 8.03298 1.20054 8.75415C1.36267 9.34761 1.60226 9.89137 1.91928 10.3854ZM12.6263 11.5013C12.0381 12.2331 11.29 12.8363 10.3819 13.3109C9.69145 13.6197 9.08137 13.8356 8.55163 13.9587C8.29481 14.0195 8.03623 14.0641 7.77588 14.0926C7.49919 14.1227 7.2205 14.1346 6.93981 14.1281C6.89257 14.1281 6.84922 14.1194 6.80977 14.1018C6.77165 14.0849 6.73717 14.0598 6.70632 14.0264C6.67496 13.9925 6.65175 13.9554 6.63672 13.9153C6.62286 13.8784 6.61594 13.8389 6.61594 13.7967C6.61594 13.7597 6.62183 13.7249 6.63362 13.6921C6.64904 13.6493 6.67453 13.6101 6.71009 13.5745L8.45371 11.8309C8.48833 11.7905 8.52751 11.7617 8.57125 11.7445C8.60364 11.7318 8.63852 11.7255 8.6759 11.7255C8.70175 11.7255 8.72683 11.7285 8.75115 11.7346C8.80953 11.7492 8.86353 11.7813 8.91315 11.8309L9.6701 12.5879C10.4857 12.2069 11.1633 11.7061 11.7028 11.0852C12.0949 10.6339 12.414 10.1193 12.6602 9.54123C12.9584 8.84433 13.1291 8.13968 13.1725 7.42727C13.2146 6.73579 13.1368 6.03701 12.9389 5.33092C12.7531 4.66236 12.4723 4.06045 12.0965 3.52521C11.6652 2.91074 11.1087 2.38413 10.4271 1.94536C10.3745 1.9115 10.3307 1.87113 10.2955 1.82425C10.2551 1.77031 10.2261 1.70774 10.2086 1.63655C10.1919 1.5613 10.191 1.48953 10.206 1.42125C10.2181 1.3665 10.2403 1.314 10.2727 1.26372C10.3251 1.19217 10.3867 1.13824 10.4573 1.10194C10.4981 1.08092 10.542 1.06581 10.589 1.0566C10.6462 1.04538 10.702 1.04394 10.7562 1.05228C10.8233 1.0626 10.888 1.08789 10.9505 1.12815C11.769 1.65692 12.4323 2.29203 12.9404 3.03348C13.3394 3.61572 13.6427 4.26354 13.8503 4.97693C14.0914 5.79984 14.1915 6.61561 14.1506 7.42426C14.1111 8.20689 13.9394 8.98285 13.6356 9.75212C13.3795 10.3997 13.043 10.9828 12.6263 11.5013Z" fill="rgb(49,122,247)" fill-rule="evenodd" transform="matrix(0.0103391,-0.999947,0.999945,0.0105111,5,19.1587)" />
		</g>
	</g>
</svg>
