<?xml version="1.0" encoding="UTF-8"?>
<svg width="32px" height="32px" viewBox="0 0 32 32" fill="none" xmlns="http://www.w3.org/2000/svg" xmlns:xlink="http://www.w3.org/1999/xlink">
	<defs>
		<clipPath id="clip167_53606">
			<rect id="speaker_wave_3_fill" width="24px" height="24px" transform="translate(4 4)" fill="white" fill-opacity="0"/>
		</clipPath>
	</defs>
	<mask id="mask167_53605" mask-type="alpha" maskUnits="userSpaceOnUse" x="0" y="0" width="32px" height="32px">
		<rect id="矩形" rx="8" width="32px" height="32px" fill="#7655FF" fill-opacity="1"/>
		<rect id="矩形" x="0.5" y="0.5" rx="8" width="31px" height="31px" stroke="#979797" stroke-opacity="0" stroke-width="1"/>
	</mask>
	<rect id="矩形" rx="8" width="32px" height="32px" fill="#7655FF" fill-opacity="1"/>
	<rect id="矩形" x="0.5" y="0.5" rx="8" width="31px" height="31px" stroke="#979797" stroke-opacity="0" stroke-width="1"/>
	<g clip-path="url(#clip167_53606)">
		<g opacity="0">
			<rect id="rect" x="4" y="4" width="24px" height="24px" fill="#FFFFFF" fill-opacity="1"/>
		</g>
		<path id="path" d="M15.04 10.82C15.04 10.4 14.9 10.04 14.62 9.76C14.34 9.47 14 9.31 13.61 9.28C13.21 9.24 12.86 9.36 12.54 9.62L9.09 12.42L6.5 12.42C5.95 12.42 5.49 12.61 5.12 13C4.74 13.38 4.55 13.85 4.55 14.39L4.55 17.68C4.55 18.22 4.74 18.68 5.12 19.06C5.49 19.43 5.95 19.62 6.5 19.62L9.09 19.62L12.54 22.43C12.88 22.7 13.24 22.82 13.64 22.78C14.02 22.74 14.35 22.57 14.63 22.28C14.9 21.98 15.04 21.63 15.04 21.23L15.04 10.82Z" fill="#FFFFFF" fill-opacity="1" fill-rule="nonzero"/>
		<g opacity="0.6">
			<path id="path" d="M18.11 13.11C17.87 12.89 17.62 12.82 17.36 12.91C17.09 13 16.91 13.17 16.83 13.42C16.74 13.68 16.81 13.92 17.03 14.14C17.53 14.64 17.78 15.26 17.78 15.99C17.78 16.36 17.71 16.7 17.58 17.02C17.45 17.34 17.26 17.62 17.01 17.86C16.78 18.09 16.71 18.33 16.8 18.59C16.89 18.86 17.07 19.04 17.33 19.12C17.59 19.21 17.84 19.14 18.06 18.92C18.44 18.54 18.74 18.09 18.96 17.59C19.18 17.09 19.29 16.56 19.29 16.01C19.29 15.47 19.18 14.95 18.98 14.44C18.76 13.94 18.47 13.5 18.11 13.11Z" fill="#FFFFFF" fill-opacity="1" fill-rule="nonzero"/>
		</g>
		<g opacity="0.6">
			<path id="path" d="M20.94 10.4C20.72 10.18 20.47 10.11 20.21 10.2C19.95 10.29 19.77 10.47 19.68 10.73C19.59 10.99 19.66 11.24 19.89 11.46C20.48 12.05 20.94 12.74 21.27 13.54C21.59 14.33 21.76 15.15 21.76 16C21.76 16.84 21.6 17.65 21.28 18.43C20.96 19.21 20.49 19.9 19.89 20.51C19.66 20.73 19.59 20.98 19.68 21.24C19.77 21.5 19.95 21.68 20.22 21.77C20.49 21.85 20.74 21.79 20.97 21.57C21.7 20.83 22.27 19.98 22.67 19.02C23.07 18.06 23.27 17.05 23.27 16C23.27 14.94 23.07 13.93 22.67 12.96C22.27 11.99 21.69 11.14 20.94 10.4Z" fill="#FFFFFF" fill-opacity="1" fill-rule="nonzero"/>
		</g>
		<g opacity="0.6">
			<path id="path" d="M24.09 7.88C23.86 7.66 23.62 7.59 23.36 7.67C23.09 7.77 22.91 7.94 22.83 8.2C22.74 8.47 22.81 8.71 23.03 8.93C23.97 9.87 24.7 10.94 25.2 12.15C25.7 13.37 25.96 14.65 25.96 16C25.96 17.32 25.7 18.6 25.2 19.82C24.7 21.03 23.98 22.11 23.06 23.06C22.83 23.28 22.76 23.52 22.85 23.79C22.93 24.05 23.11 24.22 23.38 24.32C23.64 24.4 23.89 24.33 24.11 24.11C25.17 23.03 25.99 21.79 26.57 20.38C27.15 18.98 27.45 17.52 27.45 16C27.45 14.46 27.15 13 26.57 11.6C25.99 10.2 25.16 8.96 24.09 7.88Z" fill="#FFFFFF" fill-opacity="1" fill-rule="nonzero"/>
		</g>
	</g>
</svg>
