<?xml version="1.0" encoding="UTF-8"?>
<svg width="24px" height="24px" viewBox="0 0 24 24" version="1.1" xmlns="http://www.w3.org/2000/svg" xmlns:xlink="http://www.w3.org/1999/xlink">
    <title>stickers_light</title>
    <g id="stickers_light" stroke="none" stroke-width="1" fill="none" fill-rule="evenodd" fill-opacity="0.9">
        <path d="M11.975,1.02002 C10.135,1.02002 8.41502,1.45169 6.81502,2.31502 C5.21502,3.17835 3.89502,4.35835 2.85502,5.85502 C1.81502,7.35169 1.20002,9.00335 1.01002,10.81 C0.800021,12.8734 1.11502,14.81 1.95502,16.62 C2.79502,18.4267 4.02335,19.8984 5.64002,21.035 C7.25669,22.1717 9.06502,22.82 11.065,22.98 C11.4484,22.98 11.7767,22.935 12.05,22.845 C12.32,22.7584 12.575,22.595 12.815,22.355 L22.27,12.9 C22.5434,12.6267 22.7484,12.3017 22.885,11.925 C23.0217,11.5484 23.065,11.1684 23.015,10.785 C22.8084,8.97835 22.185,7.33002 21.145,5.84002 C20.105,4.35335 18.78,3.17835 17.17,2.31502 C15.5634,1.45169 13.8317,1.02002 11.975,1.02002 Z M4.65502,18.08 C3.82502,17.09 3.22502,15.9834 2.85502,14.76 C2.48835,13.5334 2.37669,12.2734 2.52002,10.98 C2.68002,9.38002 3.20335,7.93502 4.09002,6.64502 C4.98002,5.35835 6.12002,4.35002 7.51002,3.62002 C8.90335,2.89335 10.3917,2.53002 11.975,2.53002 C13.5584,2.53002 15.0384,2.88669 16.415,3.60002 C17.7917,4.31002 18.9284,5.29335 19.825,6.55002 C20.7217,7.80669 21.2817,9.21002 21.505,10.76 C19.3117,10.4267 17.4317,10.435 15.865,10.785 C14.295,11.1384 13.0467,11.8267 12.12,12.85 C11.0967,14.0034 10.52,15.3634 10.39,16.93 C10.2634,18.4967 10.3434,19.9934 10.63,21.42 C9.44669,21.2434 8.34336,20.87 7.32002,20.3 C6.29669,19.7334 5.40835,18.9934 4.65502,18.08 Z M12.07,20.985 C12.07,20.955 12.0634,20.9317 12.05,20.915 C11.823363,19.635 11.7667,18.3584 11.88,17.085 C11.9934,15.815 12.45,14.74 13.25,13.86 C13.97,13.06 14.97,12.515 16.25,12.225 C17.53,11.9384 19.0734,11.9234 20.88,12.18 L12.07,20.985 Z" id="矢量-799" fill="#000000" fill-rule="nonzero"></path>
    </g>
</svg>